G75*
G70*
%OFA0B0*%
%FSLAX24Y24*%
%IPPOS*%
%LPD*%
%AMOC8*
5,1,8,0,0,1.08239X$1,22.5*
%
%ADD10C,0.0000*%
%ADD11C,0.0120*%
%ADD12C,0.0061*%
%ADD13C,0.0102*%
%ADD14C,0.0122*%
%ADD15C,0.0081*%
%ADD16C,0.0039*%
%ADD17C,0.0520*%
%ADD18OC8,0.0520*%
%ADD19OC8,0.0630*%
%ADD20C,0.0630*%
%ADD21O,0.1040X0.0520*%
%ADD22C,0.0660*%
%ADD23O,0.1120X0.0560*%
%ADD24C,0.0560*%
%ADD25C,0.1300*%
%ADD26OC8,0.0560*%
%ADD27C,0.1000*%
%ADD28OC8,0.1000*%
%ADD29C,0.0500*%
%ADD30C,0.0100*%
%ADD31C,0.0400*%
%ADD32C,0.0320*%
%ADD33C,0.0200*%
%ADD34C,0.0240*%
%ADD35C,0.0160*%
%ADD36C,0.1660*%
D10*
X001186Y002332D02*
X001186Y021328D01*
X035056Y021328D01*
X035056Y002332D01*
X001186Y002332D01*
D11*
X023396Y019515D02*
X023626Y019745D01*
X023626Y020666D01*
X023857Y020436D02*
X023396Y020436D01*
X024317Y020206D02*
X024317Y019745D01*
X024547Y019515D01*
X025008Y019515D01*
X025238Y019745D01*
X025238Y020206D01*
X025008Y020436D01*
X024547Y020436D01*
X024317Y020206D01*
X025698Y020896D02*
X026619Y019976D01*
X026389Y020206D02*
X025698Y019515D01*
X026619Y019515D02*
X026619Y020896D01*
X027079Y020206D02*
X027310Y020436D01*
X028000Y020436D01*
X028000Y019515D01*
X028460Y019745D02*
X028691Y019515D01*
X029151Y019515D01*
X029381Y019745D01*
X029381Y020206D01*
X029151Y020436D01*
X028691Y020436D01*
X028460Y020206D01*
X028460Y019745D01*
X029842Y019745D02*
X030072Y019515D01*
X030762Y019515D01*
X030762Y020896D01*
X030072Y020896D01*
X029842Y020666D01*
X029842Y020436D01*
X030072Y020206D01*
X030762Y020206D01*
X030072Y020206D02*
X029842Y019976D01*
X029842Y019745D01*
X027079Y019515D02*
X027079Y020206D01*
D12*
X025702Y015580D02*
X025704Y015606D01*
X025710Y015632D01*
X025720Y015657D01*
X025734Y015679D01*
X025751Y015700D01*
X025772Y015717D01*
X025794Y015731D01*
X025819Y015741D01*
X025845Y015747D01*
X025871Y015749D01*
X025897Y015747D01*
X025923Y015741D01*
X025948Y015731D01*
X025970Y015717D01*
X025991Y015700D01*
X026008Y015679D01*
X026022Y015657D01*
X026032Y015632D01*
X026038Y015606D01*
X026040Y015580D01*
X026038Y015554D01*
X026032Y015528D01*
X026022Y015503D01*
X026008Y015481D01*
X025991Y015460D01*
X025970Y015443D01*
X025948Y015429D01*
X025923Y015419D01*
X025897Y015413D01*
X025871Y015411D01*
X025845Y015413D01*
X025819Y015419D01*
X025794Y015429D01*
X025772Y015443D01*
X025751Y015460D01*
X025734Y015481D01*
X025720Y015503D01*
X025710Y015528D01*
X025704Y015554D01*
X025702Y015580D01*
X025702Y014580D02*
X025704Y014606D01*
X025710Y014632D01*
X025720Y014657D01*
X025734Y014679D01*
X025751Y014700D01*
X025772Y014717D01*
X025794Y014731D01*
X025819Y014741D01*
X025845Y014747D01*
X025871Y014749D01*
X025897Y014747D01*
X025923Y014741D01*
X025948Y014731D01*
X025970Y014717D01*
X025991Y014700D01*
X026008Y014679D01*
X026022Y014657D01*
X026032Y014632D01*
X026038Y014606D01*
X026040Y014580D01*
X026038Y014554D01*
X026032Y014528D01*
X026022Y014503D01*
X026008Y014481D01*
X025991Y014460D01*
X025970Y014443D01*
X025948Y014429D01*
X025923Y014419D01*
X025897Y014413D01*
X025871Y014411D01*
X025845Y014413D01*
X025819Y014419D01*
X025794Y014429D01*
X025772Y014443D01*
X025751Y014460D01*
X025734Y014481D01*
X025720Y014503D01*
X025710Y014528D01*
X025704Y014554D01*
X025702Y014580D01*
X025702Y013580D02*
X025704Y013606D01*
X025710Y013632D01*
X025720Y013657D01*
X025734Y013679D01*
X025751Y013700D01*
X025772Y013717D01*
X025794Y013731D01*
X025819Y013741D01*
X025845Y013747D01*
X025871Y013749D01*
X025897Y013747D01*
X025923Y013741D01*
X025948Y013731D01*
X025970Y013717D01*
X025991Y013700D01*
X026008Y013679D01*
X026022Y013657D01*
X026032Y013632D01*
X026038Y013606D01*
X026040Y013580D01*
X026038Y013554D01*
X026032Y013528D01*
X026022Y013503D01*
X026008Y013481D01*
X025991Y013460D01*
X025970Y013443D01*
X025948Y013429D01*
X025923Y013419D01*
X025897Y013413D01*
X025871Y013411D01*
X025845Y013413D01*
X025819Y013419D01*
X025794Y013429D01*
X025772Y013443D01*
X025751Y013460D01*
X025734Y013481D01*
X025720Y013503D01*
X025710Y013528D01*
X025704Y013554D01*
X025702Y013580D01*
X025702Y012580D02*
X025704Y012606D01*
X025710Y012632D01*
X025720Y012657D01*
X025734Y012679D01*
X025751Y012700D01*
X025772Y012717D01*
X025794Y012731D01*
X025819Y012741D01*
X025845Y012747D01*
X025871Y012749D01*
X025897Y012747D01*
X025923Y012741D01*
X025948Y012731D01*
X025970Y012717D01*
X025991Y012700D01*
X026008Y012679D01*
X026022Y012657D01*
X026032Y012632D01*
X026038Y012606D01*
X026040Y012580D01*
X026038Y012554D01*
X026032Y012528D01*
X026022Y012503D01*
X026008Y012481D01*
X025991Y012460D01*
X025970Y012443D01*
X025948Y012429D01*
X025923Y012419D01*
X025897Y012413D01*
X025871Y012411D01*
X025845Y012413D01*
X025819Y012419D01*
X025794Y012429D01*
X025772Y012443D01*
X025751Y012460D01*
X025734Y012481D01*
X025720Y012503D01*
X025710Y012528D01*
X025704Y012554D01*
X025702Y012580D01*
X025702Y011580D02*
X025704Y011606D01*
X025710Y011632D01*
X025720Y011657D01*
X025734Y011679D01*
X025751Y011700D01*
X025772Y011717D01*
X025794Y011731D01*
X025819Y011741D01*
X025845Y011747D01*
X025871Y011749D01*
X025897Y011747D01*
X025923Y011741D01*
X025948Y011731D01*
X025970Y011717D01*
X025991Y011700D01*
X026008Y011679D01*
X026022Y011657D01*
X026032Y011632D01*
X026038Y011606D01*
X026040Y011580D01*
X026038Y011554D01*
X026032Y011528D01*
X026022Y011503D01*
X026008Y011481D01*
X025991Y011460D01*
X025970Y011443D01*
X025948Y011429D01*
X025923Y011419D01*
X025897Y011413D01*
X025871Y011411D01*
X025845Y011413D01*
X025819Y011419D01*
X025794Y011429D01*
X025772Y011443D01*
X025751Y011460D01*
X025734Y011481D01*
X025720Y011503D01*
X025710Y011528D01*
X025704Y011554D01*
X025702Y011580D01*
X025702Y010580D02*
X025704Y010606D01*
X025710Y010632D01*
X025720Y010657D01*
X025734Y010679D01*
X025751Y010700D01*
X025772Y010717D01*
X025794Y010731D01*
X025819Y010741D01*
X025845Y010747D01*
X025871Y010749D01*
X025897Y010747D01*
X025923Y010741D01*
X025948Y010731D01*
X025970Y010717D01*
X025991Y010700D01*
X026008Y010679D01*
X026022Y010657D01*
X026032Y010632D01*
X026038Y010606D01*
X026040Y010580D01*
X026038Y010554D01*
X026032Y010528D01*
X026022Y010503D01*
X026008Y010481D01*
X025991Y010460D01*
X025970Y010443D01*
X025948Y010429D01*
X025923Y010419D01*
X025897Y010413D01*
X025871Y010411D01*
X025845Y010413D01*
X025819Y010419D01*
X025794Y010429D01*
X025772Y010443D01*
X025751Y010460D01*
X025734Y010481D01*
X025720Y010503D01*
X025710Y010528D01*
X025704Y010554D01*
X025702Y010580D01*
X025702Y009580D02*
X025704Y009606D01*
X025710Y009632D01*
X025720Y009657D01*
X025734Y009679D01*
X025751Y009700D01*
X025772Y009717D01*
X025794Y009731D01*
X025819Y009741D01*
X025845Y009747D01*
X025871Y009749D01*
X025897Y009747D01*
X025923Y009741D01*
X025948Y009731D01*
X025970Y009717D01*
X025991Y009700D01*
X026008Y009679D01*
X026022Y009657D01*
X026032Y009632D01*
X026038Y009606D01*
X026040Y009580D01*
X026038Y009554D01*
X026032Y009528D01*
X026022Y009503D01*
X026008Y009481D01*
X025991Y009460D01*
X025970Y009443D01*
X025948Y009429D01*
X025923Y009419D01*
X025897Y009413D01*
X025871Y009411D01*
X025845Y009413D01*
X025819Y009419D01*
X025794Y009429D01*
X025772Y009443D01*
X025751Y009460D01*
X025734Y009481D01*
X025720Y009503D01*
X025710Y009528D01*
X025704Y009554D01*
X025702Y009580D01*
X025702Y008580D02*
X025704Y008606D01*
X025710Y008632D01*
X025720Y008657D01*
X025734Y008679D01*
X025751Y008700D01*
X025772Y008717D01*
X025794Y008731D01*
X025819Y008741D01*
X025845Y008747D01*
X025871Y008749D01*
X025897Y008747D01*
X025923Y008741D01*
X025948Y008731D01*
X025970Y008717D01*
X025991Y008700D01*
X026008Y008679D01*
X026022Y008657D01*
X026032Y008632D01*
X026038Y008606D01*
X026040Y008580D01*
X026038Y008554D01*
X026032Y008528D01*
X026022Y008503D01*
X026008Y008481D01*
X025991Y008460D01*
X025970Y008443D01*
X025948Y008429D01*
X025923Y008419D01*
X025897Y008413D01*
X025871Y008411D01*
X025845Y008413D01*
X025819Y008419D01*
X025794Y008429D01*
X025772Y008443D01*
X025751Y008460D01*
X025734Y008481D01*
X025720Y008503D01*
X025710Y008528D01*
X025704Y008554D01*
X025702Y008580D01*
X025702Y007580D02*
X025704Y007606D01*
X025710Y007632D01*
X025720Y007657D01*
X025734Y007679D01*
X025751Y007700D01*
X025772Y007717D01*
X025794Y007731D01*
X025819Y007741D01*
X025845Y007747D01*
X025871Y007749D01*
X025897Y007747D01*
X025923Y007741D01*
X025948Y007731D01*
X025970Y007717D01*
X025991Y007700D01*
X026008Y007679D01*
X026022Y007657D01*
X026032Y007632D01*
X026038Y007606D01*
X026040Y007580D01*
X026038Y007554D01*
X026032Y007528D01*
X026022Y007503D01*
X026008Y007481D01*
X025991Y007460D01*
X025970Y007443D01*
X025948Y007429D01*
X025923Y007419D01*
X025897Y007413D01*
X025871Y007411D01*
X025845Y007413D01*
X025819Y007419D01*
X025794Y007429D01*
X025772Y007443D01*
X025751Y007460D01*
X025734Y007481D01*
X025720Y007503D01*
X025710Y007528D01*
X025704Y007554D01*
X025702Y007580D01*
X025702Y006580D02*
X025704Y006606D01*
X025710Y006632D01*
X025720Y006657D01*
X025734Y006679D01*
X025751Y006700D01*
X025772Y006717D01*
X025794Y006731D01*
X025819Y006741D01*
X025845Y006747D01*
X025871Y006749D01*
X025897Y006747D01*
X025923Y006741D01*
X025948Y006731D01*
X025970Y006717D01*
X025991Y006700D01*
X026008Y006679D01*
X026022Y006657D01*
X026032Y006632D01*
X026038Y006606D01*
X026040Y006580D01*
X026038Y006554D01*
X026032Y006528D01*
X026022Y006503D01*
X026008Y006481D01*
X025991Y006460D01*
X025970Y006443D01*
X025948Y006429D01*
X025923Y006419D01*
X025897Y006413D01*
X025871Y006411D01*
X025845Y006413D01*
X025819Y006419D01*
X025794Y006429D01*
X025772Y006443D01*
X025751Y006460D01*
X025734Y006481D01*
X025720Y006503D01*
X025710Y006528D01*
X025704Y006554D01*
X025702Y006580D01*
X026702Y005080D02*
X026704Y005106D01*
X026710Y005132D01*
X026720Y005157D01*
X026734Y005179D01*
X026751Y005200D01*
X026772Y005217D01*
X026794Y005231D01*
X026819Y005241D01*
X026845Y005247D01*
X026871Y005249D01*
X026897Y005247D01*
X026923Y005241D01*
X026948Y005231D01*
X026970Y005217D01*
X026991Y005200D01*
X027008Y005179D01*
X027022Y005157D01*
X027032Y005132D01*
X027038Y005106D01*
X027040Y005080D01*
X027038Y005054D01*
X027032Y005028D01*
X027022Y005003D01*
X027008Y004981D01*
X026991Y004960D01*
X026970Y004943D01*
X026948Y004929D01*
X026923Y004919D01*
X026897Y004913D01*
X026871Y004911D01*
X026845Y004913D01*
X026819Y004919D01*
X026794Y004929D01*
X026772Y004943D01*
X026751Y004960D01*
X026734Y004981D01*
X026720Y005003D01*
X026710Y005028D01*
X026704Y005054D01*
X026702Y005080D01*
X027702Y004080D02*
X027704Y004106D01*
X027710Y004132D01*
X027720Y004157D01*
X027734Y004179D01*
X027751Y004200D01*
X027772Y004217D01*
X027794Y004231D01*
X027819Y004241D01*
X027845Y004247D01*
X027871Y004249D01*
X027897Y004247D01*
X027923Y004241D01*
X027948Y004231D01*
X027970Y004217D01*
X027991Y004200D01*
X028008Y004179D01*
X028022Y004157D01*
X028032Y004132D01*
X028038Y004106D01*
X028040Y004080D01*
X028038Y004054D01*
X028032Y004028D01*
X028022Y004003D01*
X028008Y003981D01*
X027991Y003960D01*
X027970Y003943D01*
X027948Y003929D01*
X027923Y003919D01*
X027897Y003913D01*
X027871Y003911D01*
X027845Y003913D01*
X027819Y003919D01*
X027794Y003929D01*
X027772Y003943D01*
X027751Y003960D01*
X027734Y003981D01*
X027720Y004003D01*
X027710Y004028D01*
X027704Y004054D01*
X027702Y004080D01*
X028702Y004080D02*
X028704Y004106D01*
X028710Y004132D01*
X028720Y004157D01*
X028734Y004179D01*
X028751Y004200D01*
X028772Y004217D01*
X028794Y004231D01*
X028819Y004241D01*
X028845Y004247D01*
X028871Y004249D01*
X028897Y004247D01*
X028923Y004241D01*
X028948Y004231D01*
X028970Y004217D01*
X028991Y004200D01*
X029008Y004179D01*
X029022Y004157D01*
X029032Y004132D01*
X029038Y004106D01*
X029040Y004080D01*
X029038Y004054D01*
X029032Y004028D01*
X029022Y004003D01*
X029008Y003981D01*
X028991Y003960D01*
X028970Y003943D01*
X028948Y003929D01*
X028923Y003919D01*
X028897Y003913D01*
X028871Y003911D01*
X028845Y003913D01*
X028819Y003919D01*
X028794Y003929D01*
X028772Y003943D01*
X028751Y003960D01*
X028734Y003981D01*
X028720Y004003D01*
X028710Y004028D01*
X028704Y004054D01*
X028702Y004080D01*
X027702Y007080D02*
X027704Y007106D01*
X027710Y007132D01*
X027720Y007157D01*
X027734Y007179D01*
X027751Y007200D01*
X027772Y007217D01*
X027794Y007231D01*
X027819Y007241D01*
X027845Y007247D01*
X027871Y007249D01*
X027897Y007247D01*
X027923Y007241D01*
X027948Y007231D01*
X027970Y007217D01*
X027991Y007200D01*
X028008Y007179D01*
X028022Y007157D01*
X028032Y007132D01*
X028038Y007106D01*
X028040Y007080D01*
X028038Y007054D01*
X028032Y007028D01*
X028022Y007003D01*
X028008Y006981D01*
X027991Y006960D01*
X027970Y006943D01*
X027948Y006929D01*
X027923Y006919D01*
X027897Y006913D01*
X027871Y006911D01*
X027845Y006913D01*
X027819Y006919D01*
X027794Y006929D01*
X027772Y006943D01*
X027751Y006960D01*
X027734Y006981D01*
X027720Y007003D01*
X027710Y007028D01*
X027704Y007054D01*
X027702Y007080D01*
X027702Y008080D02*
X027704Y008106D01*
X027710Y008132D01*
X027720Y008157D01*
X027734Y008179D01*
X027751Y008200D01*
X027772Y008217D01*
X027794Y008231D01*
X027819Y008241D01*
X027845Y008247D01*
X027871Y008249D01*
X027897Y008247D01*
X027923Y008241D01*
X027948Y008231D01*
X027970Y008217D01*
X027991Y008200D01*
X028008Y008179D01*
X028022Y008157D01*
X028032Y008132D01*
X028038Y008106D01*
X028040Y008080D01*
X028038Y008054D01*
X028032Y008028D01*
X028022Y008003D01*
X028008Y007981D01*
X027991Y007960D01*
X027970Y007943D01*
X027948Y007929D01*
X027923Y007919D01*
X027897Y007913D01*
X027871Y007911D01*
X027845Y007913D01*
X027819Y007919D01*
X027794Y007929D01*
X027772Y007943D01*
X027751Y007960D01*
X027734Y007981D01*
X027720Y008003D01*
X027710Y008028D01*
X027704Y008054D01*
X027702Y008080D01*
X029702Y008080D02*
X029704Y008106D01*
X029710Y008132D01*
X029720Y008157D01*
X029734Y008179D01*
X029751Y008200D01*
X029772Y008217D01*
X029794Y008231D01*
X029819Y008241D01*
X029845Y008247D01*
X029871Y008249D01*
X029897Y008247D01*
X029923Y008241D01*
X029948Y008231D01*
X029970Y008217D01*
X029991Y008200D01*
X030008Y008179D01*
X030022Y008157D01*
X030032Y008132D01*
X030038Y008106D01*
X030040Y008080D01*
X030038Y008054D01*
X030032Y008028D01*
X030022Y008003D01*
X030008Y007981D01*
X029991Y007960D01*
X029970Y007943D01*
X029948Y007929D01*
X029923Y007919D01*
X029897Y007913D01*
X029871Y007911D01*
X029845Y007913D01*
X029819Y007919D01*
X029794Y007929D01*
X029772Y007943D01*
X029751Y007960D01*
X029734Y007981D01*
X029720Y008003D01*
X029710Y008028D01*
X029704Y008054D01*
X029702Y008080D01*
X029702Y007080D02*
X029704Y007106D01*
X029710Y007132D01*
X029720Y007157D01*
X029734Y007179D01*
X029751Y007200D01*
X029772Y007217D01*
X029794Y007231D01*
X029819Y007241D01*
X029845Y007247D01*
X029871Y007249D01*
X029897Y007247D01*
X029923Y007241D01*
X029948Y007231D01*
X029970Y007217D01*
X029991Y007200D01*
X030008Y007179D01*
X030022Y007157D01*
X030032Y007132D01*
X030038Y007106D01*
X030040Y007080D01*
X030038Y007054D01*
X030032Y007028D01*
X030022Y007003D01*
X030008Y006981D01*
X029991Y006960D01*
X029970Y006943D01*
X029948Y006929D01*
X029923Y006919D01*
X029897Y006913D01*
X029871Y006911D01*
X029845Y006913D01*
X029819Y006919D01*
X029794Y006929D01*
X029772Y006943D01*
X029751Y006960D01*
X029734Y006981D01*
X029720Y007003D01*
X029710Y007028D01*
X029704Y007054D01*
X029702Y007080D01*
X029652Y009580D02*
X029654Y009606D01*
X029660Y009632D01*
X029670Y009657D01*
X029684Y009679D01*
X029701Y009700D01*
X029722Y009717D01*
X029744Y009731D01*
X029769Y009741D01*
X029795Y009747D01*
X029821Y009749D01*
X029847Y009747D01*
X029873Y009741D01*
X029898Y009731D01*
X029920Y009717D01*
X029941Y009700D01*
X029958Y009679D01*
X029972Y009657D01*
X029982Y009632D01*
X029988Y009606D01*
X029990Y009580D01*
X029988Y009554D01*
X029982Y009528D01*
X029972Y009503D01*
X029958Y009481D01*
X029941Y009460D01*
X029920Y009443D01*
X029898Y009429D01*
X029873Y009419D01*
X029847Y009413D01*
X029821Y009411D01*
X029795Y009413D01*
X029769Y009419D01*
X029744Y009429D01*
X029722Y009443D01*
X029701Y009460D01*
X029684Y009481D01*
X029670Y009503D01*
X029660Y009528D01*
X029654Y009554D01*
X029652Y009580D01*
X027752Y009580D02*
X027754Y009606D01*
X027760Y009632D01*
X027770Y009657D01*
X027784Y009679D01*
X027801Y009700D01*
X027822Y009717D01*
X027844Y009731D01*
X027869Y009741D01*
X027895Y009747D01*
X027921Y009749D01*
X027947Y009747D01*
X027973Y009741D01*
X027998Y009731D01*
X028020Y009717D01*
X028041Y009700D01*
X028058Y009679D01*
X028072Y009657D01*
X028082Y009632D01*
X028088Y009606D01*
X028090Y009580D01*
X028088Y009554D01*
X028082Y009528D01*
X028072Y009503D01*
X028058Y009481D01*
X028041Y009460D01*
X028020Y009443D01*
X027998Y009429D01*
X027973Y009419D01*
X027947Y009413D01*
X027921Y009411D01*
X027895Y009413D01*
X027869Y009419D01*
X027844Y009429D01*
X027822Y009443D01*
X027801Y009460D01*
X027784Y009481D01*
X027770Y009503D01*
X027760Y009528D01*
X027754Y009554D01*
X027752Y009580D01*
X027702Y011580D02*
X027704Y011606D01*
X027710Y011632D01*
X027720Y011657D01*
X027734Y011679D01*
X027751Y011700D01*
X027772Y011717D01*
X027794Y011731D01*
X027819Y011741D01*
X027845Y011747D01*
X027871Y011749D01*
X027897Y011747D01*
X027923Y011741D01*
X027948Y011731D01*
X027970Y011717D01*
X027991Y011700D01*
X028008Y011679D01*
X028022Y011657D01*
X028032Y011632D01*
X028038Y011606D01*
X028040Y011580D01*
X028038Y011554D01*
X028032Y011528D01*
X028022Y011503D01*
X028008Y011481D01*
X027991Y011460D01*
X027970Y011443D01*
X027948Y011429D01*
X027923Y011419D01*
X027897Y011413D01*
X027871Y011411D01*
X027845Y011413D01*
X027819Y011419D01*
X027794Y011429D01*
X027772Y011443D01*
X027751Y011460D01*
X027734Y011481D01*
X027720Y011503D01*
X027710Y011528D01*
X027704Y011554D01*
X027702Y011580D01*
X027702Y012580D02*
X027704Y012606D01*
X027710Y012632D01*
X027720Y012657D01*
X027734Y012679D01*
X027751Y012700D01*
X027772Y012717D01*
X027794Y012731D01*
X027819Y012741D01*
X027845Y012747D01*
X027871Y012749D01*
X027897Y012747D01*
X027923Y012741D01*
X027948Y012731D01*
X027970Y012717D01*
X027991Y012700D01*
X028008Y012679D01*
X028022Y012657D01*
X028032Y012632D01*
X028038Y012606D01*
X028040Y012580D01*
X028038Y012554D01*
X028032Y012528D01*
X028022Y012503D01*
X028008Y012481D01*
X027991Y012460D01*
X027970Y012443D01*
X027948Y012429D01*
X027923Y012419D01*
X027897Y012413D01*
X027871Y012411D01*
X027845Y012413D01*
X027819Y012419D01*
X027794Y012429D01*
X027772Y012443D01*
X027751Y012460D01*
X027734Y012481D01*
X027720Y012503D01*
X027710Y012528D01*
X027704Y012554D01*
X027702Y012580D01*
X027702Y013580D02*
X027704Y013606D01*
X027710Y013632D01*
X027720Y013657D01*
X027734Y013679D01*
X027751Y013700D01*
X027772Y013717D01*
X027794Y013731D01*
X027819Y013741D01*
X027845Y013747D01*
X027871Y013749D01*
X027897Y013747D01*
X027923Y013741D01*
X027948Y013731D01*
X027970Y013717D01*
X027991Y013700D01*
X028008Y013679D01*
X028022Y013657D01*
X028032Y013632D01*
X028038Y013606D01*
X028040Y013580D01*
X028038Y013554D01*
X028032Y013528D01*
X028022Y013503D01*
X028008Y013481D01*
X027991Y013460D01*
X027970Y013443D01*
X027948Y013429D01*
X027923Y013419D01*
X027897Y013413D01*
X027871Y013411D01*
X027845Y013413D01*
X027819Y013419D01*
X027794Y013429D01*
X027772Y013443D01*
X027751Y013460D01*
X027734Y013481D01*
X027720Y013503D01*
X027710Y013528D01*
X027704Y013554D01*
X027702Y013580D01*
X029702Y013580D02*
X029704Y013606D01*
X029710Y013632D01*
X029720Y013657D01*
X029734Y013679D01*
X029751Y013700D01*
X029772Y013717D01*
X029794Y013731D01*
X029819Y013741D01*
X029845Y013747D01*
X029871Y013749D01*
X029897Y013747D01*
X029923Y013741D01*
X029948Y013731D01*
X029970Y013717D01*
X029991Y013700D01*
X030008Y013679D01*
X030022Y013657D01*
X030032Y013632D01*
X030038Y013606D01*
X030040Y013580D01*
X030038Y013554D01*
X030032Y013528D01*
X030022Y013503D01*
X030008Y013481D01*
X029991Y013460D01*
X029970Y013443D01*
X029948Y013429D01*
X029923Y013419D01*
X029897Y013413D01*
X029871Y013411D01*
X029845Y013413D01*
X029819Y013419D01*
X029794Y013429D01*
X029772Y013443D01*
X029751Y013460D01*
X029734Y013481D01*
X029720Y013503D01*
X029710Y013528D01*
X029704Y013554D01*
X029702Y013580D01*
X029702Y012580D02*
X029704Y012606D01*
X029710Y012632D01*
X029720Y012657D01*
X029734Y012679D01*
X029751Y012700D01*
X029772Y012717D01*
X029794Y012731D01*
X029819Y012741D01*
X029845Y012747D01*
X029871Y012749D01*
X029897Y012747D01*
X029923Y012741D01*
X029948Y012731D01*
X029970Y012717D01*
X029991Y012700D01*
X030008Y012679D01*
X030022Y012657D01*
X030032Y012632D01*
X030038Y012606D01*
X030040Y012580D01*
X030038Y012554D01*
X030032Y012528D01*
X030022Y012503D01*
X030008Y012481D01*
X029991Y012460D01*
X029970Y012443D01*
X029948Y012429D01*
X029923Y012419D01*
X029897Y012413D01*
X029871Y012411D01*
X029845Y012413D01*
X029819Y012419D01*
X029794Y012429D01*
X029772Y012443D01*
X029751Y012460D01*
X029734Y012481D01*
X029720Y012503D01*
X029710Y012528D01*
X029704Y012554D01*
X029702Y012580D01*
X029702Y011580D02*
X029704Y011606D01*
X029710Y011632D01*
X029720Y011657D01*
X029734Y011679D01*
X029751Y011700D01*
X029772Y011717D01*
X029794Y011731D01*
X029819Y011741D01*
X029845Y011747D01*
X029871Y011749D01*
X029897Y011747D01*
X029923Y011741D01*
X029948Y011731D01*
X029970Y011717D01*
X029991Y011700D01*
X030008Y011679D01*
X030022Y011657D01*
X030032Y011632D01*
X030038Y011606D01*
X030040Y011580D01*
X030038Y011554D01*
X030032Y011528D01*
X030022Y011503D01*
X030008Y011481D01*
X029991Y011460D01*
X029970Y011443D01*
X029948Y011429D01*
X029923Y011419D01*
X029897Y011413D01*
X029871Y011411D01*
X029845Y011413D01*
X029819Y011419D01*
X029794Y011429D01*
X029772Y011443D01*
X029751Y011460D01*
X029734Y011481D01*
X029720Y011503D01*
X029710Y011528D01*
X029704Y011554D01*
X029702Y011580D01*
X022702Y011580D02*
X022704Y011606D01*
X022710Y011632D01*
X022720Y011657D01*
X022734Y011679D01*
X022751Y011700D01*
X022772Y011717D01*
X022794Y011731D01*
X022819Y011741D01*
X022845Y011747D01*
X022871Y011749D01*
X022897Y011747D01*
X022923Y011741D01*
X022948Y011731D01*
X022970Y011717D01*
X022991Y011700D01*
X023008Y011679D01*
X023022Y011657D01*
X023032Y011632D01*
X023038Y011606D01*
X023040Y011580D01*
X023038Y011554D01*
X023032Y011528D01*
X023022Y011503D01*
X023008Y011481D01*
X022991Y011460D01*
X022970Y011443D01*
X022948Y011429D01*
X022923Y011419D01*
X022897Y011413D01*
X022871Y011411D01*
X022845Y011413D01*
X022819Y011419D01*
X022794Y011429D01*
X022772Y011443D01*
X022751Y011460D01*
X022734Y011481D01*
X022720Y011503D01*
X022710Y011528D01*
X022704Y011554D01*
X022702Y011580D01*
X022702Y010580D02*
X022704Y010606D01*
X022710Y010632D01*
X022720Y010657D01*
X022734Y010679D01*
X022751Y010700D01*
X022772Y010717D01*
X022794Y010731D01*
X022819Y010741D01*
X022845Y010747D01*
X022871Y010749D01*
X022897Y010747D01*
X022923Y010741D01*
X022948Y010731D01*
X022970Y010717D01*
X022991Y010700D01*
X023008Y010679D01*
X023022Y010657D01*
X023032Y010632D01*
X023038Y010606D01*
X023040Y010580D01*
X023038Y010554D01*
X023032Y010528D01*
X023022Y010503D01*
X023008Y010481D01*
X022991Y010460D01*
X022970Y010443D01*
X022948Y010429D01*
X022923Y010419D01*
X022897Y010413D01*
X022871Y010411D01*
X022845Y010413D01*
X022819Y010419D01*
X022794Y010429D01*
X022772Y010443D01*
X022751Y010460D01*
X022734Y010481D01*
X022720Y010503D01*
X022710Y010528D01*
X022704Y010554D01*
X022702Y010580D01*
X022702Y009580D02*
X022704Y009606D01*
X022710Y009632D01*
X022720Y009657D01*
X022734Y009679D01*
X022751Y009700D01*
X022772Y009717D01*
X022794Y009731D01*
X022819Y009741D01*
X022845Y009747D01*
X022871Y009749D01*
X022897Y009747D01*
X022923Y009741D01*
X022948Y009731D01*
X022970Y009717D01*
X022991Y009700D01*
X023008Y009679D01*
X023022Y009657D01*
X023032Y009632D01*
X023038Y009606D01*
X023040Y009580D01*
X023038Y009554D01*
X023032Y009528D01*
X023022Y009503D01*
X023008Y009481D01*
X022991Y009460D01*
X022970Y009443D01*
X022948Y009429D01*
X022923Y009419D01*
X022897Y009413D01*
X022871Y009411D01*
X022845Y009413D01*
X022819Y009419D01*
X022794Y009429D01*
X022772Y009443D01*
X022751Y009460D01*
X022734Y009481D01*
X022720Y009503D01*
X022710Y009528D01*
X022704Y009554D01*
X022702Y009580D01*
X022702Y008580D02*
X022704Y008606D01*
X022710Y008632D01*
X022720Y008657D01*
X022734Y008679D01*
X022751Y008700D01*
X022772Y008717D01*
X022794Y008731D01*
X022819Y008741D01*
X022845Y008747D01*
X022871Y008749D01*
X022897Y008747D01*
X022923Y008741D01*
X022948Y008731D01*
X022970Y008717D01*
X022991Y008700D01*
X023008Y008679D01*
X023022Y008657D01*
X023032Y008632D01*
X023038Y008606D01*
X023040Y008580D01*
X023038Y008554D01*
X023032Y008528D01*
X023022Y008503D01*
X023008Y008481D01*
X022991Y008460D01*
X022970Y008443D01*
X022948Y008429D01*
X022923Y008419D01*
X022897Y008413D01*
X022871Y008411D01*
X022845Y008413D01*
X022819Y008419D01*
X022794Y008429D01*
X022772Y008443D01*
X022751Y008460D01*
X022734Y008481D01*
X022720Y008503D01*
X022710Y008528D01*
X022704Y008554D01*
X022702Y008580D01*
X022702Y007580D02*
X022704Y007606D01*
X022710Y007632D01*
X022720Y007657D01*
X022734Y007679D01*
X022751Y007700D01*
X022772Y007717D01*
X022794Y007731D01*
X022819Y007741D01*
X022845Y007747D01*
X022871Y007749D01*
X022897Y007747D01*
X022923Y007741D01*
X022948Y007731D01*
X022970Y007717D01*
X022991Y007700D01*
X023008Y007679D01*
X023022Y007657D01*
X023032Y007632D01*
X023038Y007606D01*
X023040Y007580D01*
X023038Y007554D01*
X023032Y007528D01*
X023022Y007503D01*
X023008Y007481D01*
X022991Y007460D01*
X022970Y007443D01*
X022948Y007429D01*
X022923Y007419D01*
X022897Y007413D01*
X022871Y007411D01*
X022845Y007413D01*
X022819Y007419D01*
X022794Y007429D01*
X022772Y007443D01*
X022751Y007460D01*
X022734Y007481D01*
X022720Y007503D01*
X022710Y007528D01*
X022704Y007554D01*
X022702Y007580D01*
X022702Y006580D02*
X022704Y006606D01*
X022710Y006632D01*
X022720Y006657D01*
X022734Y006679D01*
X022751Y006700D01*
X022772Y006717D01*
X022794Y006731D01*
X022819Y006741D01*
X022845Y006747D01*
X022871Y006749D01*
X022897Y006747D01*
X022923Y006741D01*
X022948Y006731D01*
X022970Y006717D01*
X022991Y006700D01*
X023008Y006679D01*
X023022Y006657D01*
X023032Y006632D01*
X023038Y006606D01*
X023040Y006580D01*
X023038Y006554D01*
X023032Y006528D01*
X023022Y006503D01*
X023008Y006481D01*
X022991Y006460D01*
X022970Y006443D01*
X022948Y006429D01*
X022923Y006419D01*
X022897Y006413D01*
X022871Y006411D01*
X022845Y006413D01*
X022819Y006419D01*
X022794Y006429D01*
X022772Y006443D01*
X022751Y006460D01*
X022734Y006481D01*
X022720Y006503D01*
X022710Y006528D01*
X022704Y006554D01*
X022702Y006580D01*
X021202Y006080D02*
X021204Y006106D01*
X021210Y006132D01*
X021220Y006157D01*
X021234Y006179D01*
X021251Y006200D01*
X021272Y006217D01*
X021294Y006231D01*
X021319Y006241D01*
X021345Y006247D01*
X021371Y006249D01*
X021397Y006247D01*
X021423Y006241D01*
X021448Y006231D01*
X021470Y006217D01*
X021491Y006200D01*
X021508Y006179D01*
X021522Y006157D01*
X021532Y006132D01*
X021538Y006106D01*
X021540Y006080D01*
X021538Y006054D01*
X021532Y006028D01*
X021522Y006003D01*
X021508Y005981D01*
X021491Y005960D01*
X021470Y005943D01*
X021448Y005929D01*
X021423Y005919D01*
X021397Y005913D01*
X021371Y005911D01*
X021345Y005913D01*
X021319Y005919D01*
X021294Y005929D01*
X021272Y005943D01*
X021251Y005960D01*
X021234Y005981D01*
X021220Y006003D01*
X021210Y006028D01*
X021204Y006054D01*
X021202Y006080D01*
X022702Y005080D02*
X022704Y005106D01*
X022710Y005132D01*
X022720Y005157D01*
X022734Y005179D01*
X022751Y005200D01*
X022772Y005217D01*
X022794Y005231D01*
X022819Y005241D01*
X022845Y005247D01*
X022871Y005249D01*
X022897Y005247D01*
X022923Y005241D01*
X022948Y005231D01*
X022970Y005217D01*
X022991Y005200D01*
X023008Y005179D01*
X023022Y005157D01*
X023032Y005132D01*
X023038Y005106D01*
X023040Y005080D01*
X023038Y005054D01*
X023032Y005028D01*
X023022Y005003D01*
X023008Y004981D01*
X022991Y004960D01*
X022970Y004943D01*
X022948Y004929D01*
X022923Y004919D01*
X022897Y004913D01*
X022871Y004911D01*
X022845Y004913D01*
X022819Y004919D01*
X022794Y004929D01*
X022772Y004943D01*
X022751Y004960D01*
X022734Y004981D01*
X022720Y005003D01*
X022710Y005028D01*
X022704Y005054D01*
X022702Y005080D01*
X021202Y004080D02*
X021204Y004106D01*
X021210Y004132D01*
X021220Y004157D01*
X021234Y004179D01*
X021251Y004200D01*
X021272Y004217D01*
X021294Y004231D01*
X021319Y004241D01*
X021345Y004247D01*
X021371Y004249D01*
X021397Y004247D01*
X021423Y004241D01*
X021448Y004231D01*
X021470Y004217D01*
X021491Y004200D01*
X021508Y004179D01*
X021522Y004157D01*
X021532Y004132D01*
X021538Y004106D01*
X021540Y004080D01*
X021538Y004054D01*
X021532Y004028D01*
X021522Y004003D01*
X021508Y003981D01*
X021491Y003960D01*
X021470Y003943D01*
X021448Y003929D01*
X021423Y003919D01*
X021397Y003913D01*
X021371Y003911D01*
X021345Y003913D01*
X021319Y003919D01*
X021294Y003929D01*
X021272Y003943D01*
X021251Y003960D01*
X021234Y003981D01*
X021220Y004003D01*
X021210Y004028D01*
X021204Y004054D01*
X021202Y004080D01*
X014202Y006580D02*
X014204Y006606D01*
X014210Y006632D01*
X014220Y006657D01*
X014234Y006679D01*
X014251Y006700D01*
X014272Y006717D01*
X014294Y006731D01*
X014319Y006741D01*
X014345Y006747D01*
X014371Y006749D01*
X014397Y006747D01*
X014423Y006741D01*
X014448Y006731D01*
X014470Y006717D01*
X014491Y006700D01*
X014508Y006679D01*
X014522Y006657D01*
X014532Y006632D01*
X014538Y006606D01*
X014540Y006580D01*
X014538Y006554D01*
X014532Y006528D01*
X014522Y006503D01*
X014508Y006481D01*
X014491Y006460D01*
X014470Y006443D01*
X014448Y006429D01*
X014423Y006419D01*
X014397Y006413D01*
X014371Y006411D01*
X014345Y006413D01*
X014319Y006419D01*
X014294Y006429D01*
X014272Y006443D01*
X014251Y006460D01*
X014234Y006481D01*
X014220Y006503D01*
X014210Y006528D01*
X014204Y006554D01*
X014202Y006580D01*
X014202Y007580D02*
X014204Y007606D01*
X014210Y007632D01*
X014220Y007657D01*
X014234Y007679D01*
X014251Y007700D01*
X014272Y007717D01*
X014294Y007731D01*
X014319Y007741D01*
X014345Y007747D01*
X014371Y007749D01*
X014397Y007747D01*
X014423Y007741D01*
X014448Y007731D01*
X014470Y007717D01*
X014491Y007700D01*
X014508Y007679D01*
X014522Y007657D01*
X014532Y007632D01*
X014538Y007606D01*
X014540Y007580D01*
X014538Y007554D01*
X014532Y007528D01*
X014522Y007503D01*
X014508Y007481D01*
X014491Y007460D01*
X014470Y007443D01*
X014448Y007429D01*
X014423Y007419D01*
X014397Y007413D01*
X014371Y007411D01*
X014345Y007413D01*
X014319Y007419D01*
X014294Y007429D01*
X014272Y007443D01*
X014251Y007460D01*
X014234Y007481D01*
X014220Y007503D01*
X014210Y007528D01*
X014204Y007554D01*
X014202Y007580D01*
X014202Y008580D02*
X014204Y008606D01*
X014210Y008632D01*
X014220Y008657D01*
X014234Y008679D01*
X014251Y008700D01*
X014272Y008717D01*
X014294Y008731D01*
X014319Y008741D01*
X014345Y008747D01*
X014371Y008749D01*
X014397Y008747D01*
X014423Y008741D01*
X014448Y008731D01*
X014470Y008717D01*
X014491Y008700D01*
X014508Y008679D01*
X014522Y008657D01*
X014532Y008632D01*
X014538Y008606D01*
X014540Y008580D01*
X014538Y008554D01*
X014532Y008528D01*
X014522Y008503D01*
X014508Y008481D01*
X014491Y008460D01*
X014470Y008443D01*
X014448Y008429D01*
X014423Y008419D01*
X014397Y008413D01*
X014371Y008411D01*
X014345Y008413D01*
X014319Y008419D01*
X014294Y008429D01*
X014272Y008443D01*
X014251Y008460D01*
X014234Y008481D01*
X014220Y008503D01*
X014210Y008528D01*
X014204Y008554D01*
X014202Y008580D01*
X014202Y009580D02*
X014204Y009606D01*
X014210Y009632D01*
X014220Y009657D01*
X014234Y009679D01*
X014251Y009700D01*
X014272Y009717D01*
X014294Y009731D01*
X014319Y009741D01*
X014345Y009747D01*
X014371Y009749D01*
X014397Y009747D01*
X014423Y009741D01*
X014448Y009731D01*
X014470Y009717D01*
X014491Y009700D01*
X014508Y009679D01*
X014522Y009657D01*
X014532Y009632D01*
X014538Y009606D01*
X014540Y009580D01*
X014538Y009554D01*
X014532Y009528D01*
X014522Y009503D01*
X014508Y009481D01*
X014491Y009460D01*
X014470Y009443D01*
X014448Y009429D01*
X014423Y009419D01*
X014397Y009413D01*
X014371Y009411D01*
X014345Y009413D01*
X014319Y009419D01*
X014294Y009429D01*
X014272Y009443D01*
X014251Y009460D01*
X014234Y009481D01*
X014220Y009503D01*
X014210Y009528D01*
X014204Y009554D01*
X014202Y009580D01*
X014202Y010580D02*
X014204Y010606D01*
X014210Y010632D01*
X014220Y010657D01*
X014234Y010679D01*
X014251Y010700D01*
X014272Y010717D01*
X014294Y010731D01*
X014319Y010741D01*
X014345Y010747D01*
X014371Y010749D01*
X014397Y010747D01*
X014423Y010741D01*
X014448Y010731D01*
X014470Y010717D01*
X014491Y010700D01*
X014508Y010679D01*
X014522Y010657D01*
X014532Y010632D01*
X014538Y010606D01*
X014540Y010580D01*
X014538Y010554D01*
X014532Y010528D01*
X014522Y010503D01*
X014508Y010481D01*
X014491Y010460D01*
X014470Y010443D01*
X014448Y010429D01*
X014423Y010419D01*
X014397Y010413D01*
X014371Y010411D01*
X014345Y010413D01*
X014319Y010419D01*
X014294Y010429D01*
X014272Y010443D01*
X014251Y010460D01*
X014234Y010481D01*
X014220Y010503D01*
X014210Y010528D01*
X014204Y010554D01*
X014202Y010580D01*
X014202Y011580D02*
X014204Y011606D01*
X014210Y011632D01*
X014220Y011657D01*
X014234Y011679D01*
X014251Y011700D01*
X014272Y011717D01*
X014294Y011731D01*
X014319Y011741D01*
X014345Y011747D01*
X014371Y011749D01*
X014397Y011747D01*
X014423Y011741D01*
X014448Y011731D01*
X014470Y011717D01*
X014491Y011700D01*
X014508Y011679D01*
X014522Y011657D01*
X014532Y011632D01*
X014538Y011606D01*
X014540Y011580D01*
X014538Y011554D01*
X014532Y011528D01*
X014522Y011503D01*
X014508Y011481D01*
X014491Y011460D01*
X014470Y011443D01*
X014448Y011429D01*
X014423Y011419D01*
X014397Y011413D01*
X014371Y011411D01*
X014345Y011413D01*
X014319Y011419D01*
X014294Y011429D01*
X014272Y011443D01*
X014251Y011460D01*
X014234Y011481D01*
X014220Y011503D01*
X014210Y011528D01*
X014204Y011554D01*
X014202Y011580D01*
X014202Y012580D02*
X014204Y012606D01*
X014210Y012632D01*
X014220Y012657D01*
X014234Y012679D01*
X014251Y012700D01*
X014272Y012717D01*
X014294Y012731D01*
X014319Y012741D01*
X014345Y012747D01*
X014371Y012749D01*
X014397Y012747D01*
X014423Y012741D01*
X014448Y012731D01*
X014470Y012717D01*
X014491Y012700D01*
X014508Y012679D01*
X014522Y012657D01*
X014532Y012632D01*
X014538Y012606D01*
X014540Y012580D01*
X014538Y012554D01*
X014532Y012528D01*
X014522Y012503D01*
X014508Y012481D01*
X014491Y012460D01*
X014470Y012443D01*
X014448Y012429D01*
X014423Y012419D01*
X014397Y012413D01*
X014371Y012411D01*
X014345Y012413D01*
X014319Y012419D01*
X014294Y012429D01*
X014272Y012443D01*
X014251Y012460D01*
X014234Y012481D01*
X014220Y012503D01*
X014210Y012528D01*
X014204Y012554D01*
X014202Y012580D01*
X014202Y013580D02*
X014204Y013606D01*
X014210Y013632D01*
X014220Y013657D01*
X014234Y013679D01*
X014251Y013700D01*
X014272Y013717D01*
X014294Y013731D01*
X014319Y013741D01*
X014345Y013747D01*
X014371Y013749D01*
X014397Y013747D01*
X014423Y013741D01*
X014448Y013731D01*
X014470Y013717D01*
X014491Y013700D01*
X014508Y013679D01*
X014522Y013657D01*
X014532Y013632D01*
X014538Y013606D01*
X014540Y013580D01*
X014538Y013554D01*
X014532Y013528D01*
X014522Y013503D01*
X014508Y013481D01*
X014491Y013460D01*
X014470Y013443D01*
X014448Y013429D01*
X014423Y013419D01*
X014397Y013413D01*
X014371Y013411D01*
X014345Y013413D01*
X014319Y013419D01*
X014294Y013429D01*
X014272Y013443D01*
X014251Y013460D01*
X014234Y013481D01*
X014220Y013503D01*
X014210Y013528D01*
X014204Y013554D01*
X014202Y013580D01*
X014202Y014580D02*
X014204Y014606D01*
X014210Y014632D01*
X014220Y014657D01*
X014234Y014679D01*
X014251Y014700D01*
X014272Y014717D01*
X014294Y014731D01*
X014319Y014741D01*
X014345Y014747D01*
X014371Y014749D01*
X014397Y014747D01*
X014423Y014741D01*
X014448Y014731D01*
X014470Y014717D01*
X014491Y014700D01*
X014508Y014679D01*
X014522Y014657D01*
X014532Y014632D01*
X014538Y014606D01*
X014540Y014580D01*
X014538Y014554D01*
X014532Y014528D01*
X014522Y014503D01*
X014508Y014481D01*
X014491Y014460D01*
X014470Y014443D01*
X014448Y014429D01*
X014423Y014419D01*
X014397Y014413D01*
X014371Y014411D01*
X014345Y014413D01*
X014319Y014419D01*
X014294Y014429D01*
X014272Y014443D01*
X014251Y014460D01*
X014234Y014481D01*
X014220Y014503D01*
X014210Y014528D01*
X014204Y014554D01*
X014202Y014580D01*
X014202Y015580D02*
X014204Y015606D01*
X014210Y015632D01*
X014220Y015657D01*
X014234Y015679D01*
X014251Y015700D01*
X014272Y015717D01*
X014294Y015731D01*
X014319Y015741D01*
X014345Y015747D01*
X014371Y015749D01*
X014397Y015747D01*
X014423Y015741D01*
X014448Y015731D01*
X014470Y015717D01*
X014491Y015700D01*
X014508Y015679D01*
X014522Y015657D01*
X014532Y015632D01*
X014538Y015606D01*
X014540Y015580D01*
X014538Y015554D01*
X014532Y015528D01*
X014522Y015503D01*
X014508Y015481D01*
X014491Y015460D01*
X014470Y015443D01*
X014448Y015429D01*
X014423Y015419D01*
X014397Y015413D01*
X014371Y015411D01*
X014345Y015413D01*
X014319Y015419D01*
X014294Y015429D01*
X014272Y015443D01*
X014251Y015460D01*
X014234Y015481D01*
X014220Y015503D01*
X014210Y015528D01*
X014204Y015554D01*
X014202Y015580D01*
X014202Y017080D02*
X014204Y017106D01*
X014210Y017132D01*
X014220Y017157D01*
X014234Y017179D01*
X014251Y017200D01*
X014272Y017217D01*
X014294Y017231D01*
X014319Y017241D01*
X014345Y017247D01*
X014371Y017249D01*
X014397Y017247D01*
X014423Y017241D01*
X014448Y017231D01*
X014470Y017217D01*
X014491Y017200D01*
X014508Y017179D01*
X014522Y017157D01*
X014532Y017132D01*
X014538Y017106D01*
X014540Y017080D01*
X014538Y017054D01*
X014532Y017028D01*
X014522Y017003D01*
X014508Y016981D01*
X014491Y016960D01*
X014470Y016943D01*
X014448Y016929D01*
X014423Y016919D01*
X014397Y016913D01*
X014371Y016911D01*
X014345Y016913D01*
X014319Y016919D01*
X014294Y016929D01*
X014272Y016943D01*
X014251Y016960D01*
X014234Y016981D01*
X014220Y017003D01*
X014210Y017028D01*
X014204Y017054D01*
X014202Y017080D01*
X014202Y018080D02*
X014204Y018106D01*
X014210Y018132D01*
X014220Y018157D01*
X014234Y018179D01*
X014251Y018200D01*
X014272Y018217D01*
X014294Y018231D01*
X014319Y018241D01*
X014345Y018247D01*
X014371Y018249D01*
X014397Y018247D01*
X014423Y018241D01*
X014448Y018231D01*
X014470Y018217D01*
X014491Y018200D01*
X014508Y018179D01*
X014522Y018157D01*
X014532Y018132D01*
X014538Y018106D01*
X014540Y018080D01*
X014538Y018054D01*
X014532Y018028D01*
X014522Y018003D01*
X014508Y017981D01*
X014491Y017960D01*
X014470Y017943D01*
X014448Y017929D01*
X014423Y017919D01*
X014397Y017913D01*
X014371Y017911D01*
X014345Y017913D01*
X014319Y017919D01*
X014294Y017929D01*
X014272Y017943D01*
X014251Y017960D01*
X014234Y017981D01*
X014220Y018003D01*
X014210Y018028D01*
X014204Y018054D01*
X014202Y018080D01*
X012702Y018080D02*
X012704Y018106D01*
X012710Y018132D01*
X012720Y018157D01*
X012734Y018179D01*
X012751Y018200D01*
X012772Y018217D01*
X012794Y018231D01*
X012819Y018241D01*
X012845Y018247D01*
X012871Y018249D01*
X012897Y018247D01*
X012923Y018241D01*
X012948Y018231D01*
X012970Y018217D01*
X012991Y018200D01*
X013008Y018179D01*
X013022Y018157D01*
X013032Y018132D01*
X013038Y018106D01*
X013040Y018080D01*
X013038Y018054D01*
X013032Y018028D01*
X013022Y018003D01*
X013008Y017981D01*
X012991Y017960D01*
X012970Y017943D01*
X012948Y017929D01*
X012923Y017919D01*
X012897Y017913D01*
X012871Y017911D01*
X012845Y017913D01*
X012819Y017919D01*
X012794Y017929D01*
X012772Y017943D01*
X012751Y017960D01*
X012734Y017981D01*
X012720Y018003D01*
X012710Y018028D01*
X012704Y018054D01*
X012702Y018080D01*
X012702Y017080D02*
X012704Y017106D01*
X012710Y017132D01*
X012720Y017157D01*
X012734Y017179D01*
X012751Y017200D01*
X012772Y017217D01*
X012794Y017231D01*
X012819Y017241D01*
X012845Y017247D01*
X012871Y017249D01*
X012897Y017247D01*
X012923Y017241D01*
X012948Y017231D01*
X012970Y017217D01*
X012991Y017200D01*
X013008Y017179D01*
X013022Y017157D01*
X013032Y017132D01*
X013038Y017106D01*
X013040Y017080D01*
X013038Y017054D01*
X013032Y017028D01*
X013022Y017003D01*
X013008Y016981D01*
X012991Y016960D01*
X012970Y016943D01*
X012948Y016929D01*
X012923Y016919D01*
X012897Y016913D01*
X012871Y016911D01*
X012845Y016913D01*
X012819Y016919D01*
X012794Y016929D01*
X012772Y016943D01*
X012751Y016960D01*
X012734Y016981D01*
X012720Y017003D01*
X012710Y017028D01*
X012704Y017054D01*
X012702Y017080D01*
X011202Y017080D02*
X011204Y017106D01*
X011210Y017132D01*
X011220Y017157D01*
X011234Y017179D01*
X011251Y017200D01*
X011272Y017217D01*
X011294Y017231D01*
X011319Y017241D01*
X011345Y017247D01*
X011371Y017249D01*
X011397Y017247D01*
X011423Y017241D01*
X011448Y017231D01*
X011470Y017217D01*
X011491Y017200D01*
X011508Y017179D01*
X011522Y017157D01*
X011532Y017132D01*
X011538Y017106D01*
X011540Y017080D01*
X011538Y017054D01*
X011532Y017028D01*
X011522Y017003D01*
X011508Y016981D01*
X011491Y016960D01*
X011470Y016943D01*
X011448Y016929D01*
X011423Y016919D01*
X011397Y016913D01*
X011371Y016911D01*
X011345Y016913D01*
X011319Y016919D01*
X011294Y016929D01*
X011272Y016943D01*
X011251Y016960D01*
X011234Y016981D01*
X011220Y017003D01*
X011210Y017028D01*
X011204Y017054D01*
X011202Y017080D01*
X011202Y018080D02*
X011204Y018106D01*
X011210Y018132D01*
X011220Y018157D01*
X011234Y018179D01*
X011251Y018200D01*
X011272Y018217D01*
X011294Y018231D01*
X011319Y018241D01*
X011345Y018247D01*
X011371Y018249D01*
X011397Y018247D01*
X011423Y018241D01*
X011448Y018231D01*
X011470Y018217D01*
X011491Y018200D01*
X011508Y018179D01*
X011522Y018157D01*
X011532Y018132D01*
X011538Y018106D01*
X011540Y018080D01*
X011538Y018054D01*
X011532Y018028D01*
X011522Y018003D01*
X011508Y017981D01*
X011491Y017960D01*
X011470Y017943D01*
X011448Y017929D01*
X011423Y017919D01*
X011397Y017913D01*
X011371Y017911D01*
X011345Y017913D01*
X011319Y017919D01*
X011294Y017929D01*
X011272Y017943D01*
X011251Y017960D01*
X011234Y017981D01*
X011220Y018003D01*
X011210Y018028D01*
X011204Y018054D01*
X011202Y018080D01*
X009702Y019580D02*
X009704Y019606D01*
X009710Y019632D01*
X009720Y019657D01*
X009734Y019679D01*
X009751Y019700D01*
X009772Y019717D01*
X009794Y019731D01*
X009819Y019741D01*
X009845Y019747D01*
X009871Y019749D01*
X009897Y019747D01*
X009923Y019741D01*
X009948Y019731D01*
X009970Y019717D01*
X009991Y019700D01*
X010008Y019679D01*
X010022Y019657D01*
X010032Y019632D01*
X010038Y019606D01*
X010040Y019580D01*
X010038Y019554D01*
X010032Y019528D01*
X010022Y019503D01*
X010008Y019481D01*
X009991Y019460D01*
X009970Y019443D01*
X009948Y019429D01*
X009923Y019419D01*
X009897Y019413D01*
X009871Y019411D01*
X009845Y019413D01*
X009819Y019419D01*
X009794Y019429D01*
X009772Y019443D01*
X009751Y019460D01*
X009734Y019481D01*
X009720Y019503D01*
X009710Y019528D01*
X009704Y019554D01*
X009702Y019580D01*
X009702Y020580D02*
X009704Y020606D01*
X009710Y020632D01*
X009720Y020657D01*
X009734Y020679D01*
X009751Y020700D01*
X009772Y020717D01*
X009794Y020731D01*
X009819Y020741D01*
X009845Y020747D01*
X009871Y020749D01*
X009897Y020747D01*
X009923Y020741D01*
X009948Y020731D01*
X009970Y020717D01*
X009991Y020700D01*
X010008Y020679D01*
X010022Y020657D01*
X010032Y020632D01*
X010038Y020606D01*
X010040Y020580D01*
X010038Y020554D01*
X010032Y020528D01*
X010022Y020503D01*
X010008Y020481D01*
X009991Y020460D01*
X009970Y020443D01*
X009948Y020429D01*
X009923Y020419D01*
X009897Y020413D01*
X009871Y020411D01*
X009845Y020413D01*
X009819Y020419D01*
X009794Y020429D01*
X009772Y020443D01*
X009751Y020460D01*
X009734Y020481D01*
X009720Y020503D01*
X009710Y020528D01*
X009704Y020554D01*
X009702Y020580D01*
X012702Y020580D02*
X012704Y020606D01*
X012710Y020632D01*
X012720Y020657D01*
X012734Y020679D01*
X012751Y020700D01*
X012772Y020717D01*
X012794Y020731D01*
X012819Y020741D01*
X012845Y020747D01*
X012871Y020749D01*
X012897Y020747D01*
X012923Y020741D01*
X012948Y020731D01*
X012970Y020717D01*
X012991Y020700D01*
X013008Y020679D01*
X013022Y020657D01*
X013032Y020632D01*
X013038Y020606D01*
X013040Y020580D01*
X013038Y020554D01*
X013032Y020528D01*
X013022Y020503D01*
X013008Y020481D01*
X012991Y020460D01*
X012970Y020443D01*
X012948Y020429D01*
X012923Y020419D01*
X012897Y020413D01*
X012871Y020411D01*
X012845Y020413D01*
X012819Y020419D01*
X012794Y020429D01*
X012772Y020443D01*
X012751Y020460D01*
X012734Y020481D01*
X012720Y020503D01*
X012710Y020528D01*
X012704Y020554D01*
X012702Y020580D01*
X012702Y019580D02*
X012704Y019606D01*
X012710Y019632D01*
X012720Y019657D01*
X012734Y019679D01*
X012751Y019700D01*
X012772Y019717D01*
X012794Y019731D01*
X012819Y019741D01*
X012845Y019747D01*
X012871Y019749D01*
X012897Y019747D01*
X012923Y019741D01*
X012948Y019731D01*
X012970Y019717D01*
X012991Y019700D01*
X013008Y019679D01*
X013022Y019657D01*
X013032Y019632D01*
X013038Y019606D01*
X013040Y019580D01*
X013038Y019554D01*
X013032Y019528D01*
X013022Y019503D01*
X013008Y019481D01*
X012991Y019460D01*
X012970Y019443D01*
X012948Y019429D01*
X012923Y019419D01*
X012897Y019413D01*
X012871Y019411D01*
X012845Y019413D01*
X012819Y019419D01*
X012794Y019429D01*
X012772Y019443D01*
X012751Y019460D01*
X012734Y019481D01*
X012720Y019503D01*
X012710Y019528D01*
X012704Y019554D01*
X012702Y019580D01*
X015702Y019580D02*
X015704Y019606D01*
X015710Y019632D01*
X015720Y019657D01*
X015734Y019679D01*
X015751Y019700D01*
X015772Y019717D01*
X015794Y019731D01*
X015819Y019741D01*
X015845Y019747D01*
X015871Y019749D01*
X015897Y019747D01*
X015923Y019741D01*
X015948Y019731D01*
X015970Y019717D01*
X015991Y019700D01*
X016008Y019679D01*
X016022Y019657D01*
X016032Y019632D01*
X016038Y019606D01*
X016040Y019580D01*
X016038Y019554D01*
X016032Y019528D01*
X016022Y019503D01*
X016008Y019481D01*
X015991Y019460D01*
X015970Y019443D01*
X015948Y019429D01*
X015923Y019419D01*
X015897Y019413D01*
X015871Y019411D01*
X015845Y019413D01*
X015819Y019419D01*
X015794Y019429D01*
X015772Y019443D01*
X015751Y019460D01*
X015734Y019481D01*
X015720Y019503D01*
X015710Y019528D01*
X015704Y019554D01*
X015702Y019580D01*
X015702Y020580D02*
X015704Y020606D01*
X015710Y020632D01*
X015720Y020657D01*
X015734Y020679D01*
X015751Y020700D01*
X015772Y020717D01*
X015794Y020731D01*
X015819Y020741D01*
X015845Y020747D01*
X015871Y020749D01*
X015897Y020747D01*
X015923Y020741D01*
X015948Y020731D01*
X015970Y020717D01*
X015991Y020700D01*
X016008Y020679D01*
X016022Y020657D01*
X016032Y020632D01*
X016038Y020606D01*
X016040Y020580D01*
X016038Y020554D01*
X016032Y020528D01*
X016022Y020503D01*
X016008Y020481D01*
X015991Y020460D01*
X015970Y020443D01*
X015948Y020429D01*
X015923Y020419D01*
X015897Y020413D01*
X015871Y020411D01*
X015845Y020413D01*
X015819Y020419D01*
X015794Y020429D01*
X015772Y020443D01*
X015751Y020460D01*
X015734Y020481D01*
X015720Y020503D01*
X015710Y020528D01*
X015704Y020554D01*
X015702Y020580D01*
X011202Y015580D02*
X011204Y015606D01*
X011210Y015632D01*
X011220Y015657D01*
X011234Y015679D01*
X011251Y015700D01*
X011272Y015717D01*
X011294Y015731D01*
X011319Y015741D01*
X011345Y015747D01*
X011371Y015749D01*
X011397Y015747D01*
X011423Y015741D01*
X011448Y015731D01*
X011470Y015717D01*
X011491Y015700D01*
X011508Y015679D01*
X011522Y015657D01*
X011532Y015632D01*
X011538Y015606D01*
X011540Y015580D01*
X011538Y015554D01*
X011532Y015528D01*
X011522Y015503D01*
X011508Y015481D01*
X011491Y015460D01*
X011470Y015443D01*
X011448Y015429D01*
X011423Y015419D01*
X011397Y015413D01*
X011371Y015411D01*
X011345Y015413D01*
X011319Y015419D01*
X011294Y015429D01*
X011272Y015443D01*
X011251Y015460D01*
X011234Y015481D01*
X011220Y015503D01*
X011210Y015528D01*
X011204Y015554D01*
X011202Y015580D01*
X011202Y014580D02*
X011204Y014606D01*
X011210Y014632D01*
X011220Y014657D01*
X011234Y014679D01*
X011251Y014700D01*
X011272Y014717D01*
X011294Y014731D01*
X011319Y014741D01*
X011345Y014747D01*
X011371Y014749D01*
X011397Y014747D01*
X011423Y014741D01*
X011448Y014731D01*
X011470Y014717D01*
X011491Y014700D01*
X011508Y014679D01*
X011522Y014657D01*
X011532Y014632D01*
X011538Y014606D01*
X011540Y014580D01*
X011538Y014554D01*
X011532Y014528D01*
X011522Y014503D01*
X011508Y014481D01*
X011491Y014460D01*
X011470Y014443D01*
X011448Y014429D01*
X011423Y014419D01*
X011397Y014413D01*
X011371Y014411D01*
X011345Y014413D01*
X011319Y014419D01*
X011294Y014429D01*
X011272Y014443D01*
X011251Y014460D01*
X011234Y014481D01*
X011220Y014503D01*
X011210Y014528D01*
X011204Y014554D01*
X011202Y014580D01*
X011202Y013580D02*
X011204Y013606D01*
X011210Y013632D01*
X011220Y013657D01*
X011234Y013679D01*
X011251Y013700D01*
X011272Y013717D01*
X011294Y013731D01*
X011319Y013741D01*
X011345Y013747D01*
X011371Y013749D01*
X011397Y013747D01*
X011423Y013741D01*
X011448Y013731D01*
X011470Y013717D01*
X011491Y013700D01*
X011508Y013679D01*
X011522Y013657D01*
X011532Y013632D01*
X011538Y013606D01*
X011540Y013580D01*
X011538Y013554D01*
X011532Y013528D01*
X011522Y013503D01*
X011508Y013481D01*
X011491Y013460D01*
X011470Y013443D01*
X011448Y013429D01*
X011423Y013419D01*
X011397Y013413D01*
X011371Y013411D01*
X011345Y013413D01*
X011319Y013419D01*
X011294Y013429D01*
X011272Y013443D01*
X011251Y013460D01*
X011234Y013481D01*
X011220Y013503D01*
X011210Y013528D01*
X011204Y013554D01*
X011202Y013580D01*
X011202Y012580D02*
X011204Y012606D01*
X011210Y012632D01*
X011220Y012657D01*
X011234Y012679D01*
X011251Y012700D01*
X011272Y012717D01*
X011294Y012731D01*
X011319Y012741D01*
X011345Y012747D01*
X011371Y012749D01*
X011397Y012747D01*
X011423Y012741D01*
X011448Y012731D01*
X011470Y012717D01*
X011491Y012700D01*
X011508Y012679D01*
X011522Y012657D01*
X011532Y012632D01*
X011538Y012606D01*
X011540Y012580D01*
X011538Y012554D01*
X011532Y012528D01*
X011522Y012503D01*
X011508Y012481D01*
X011491Y012460D01*
X011470Y012443D01*
X011448Y012429D01*
X011423Y012419D01*
X011397Y012413D01*
X011371Y012411D01*
X011345Y012413D01*
X011319Y012419D01*
X011294Y012429D01*
X011272Y012443D01*
X011251Y012460D01*
X011234Y012481D01*
X011220Y012503D01*
X011210Y012528D01*
X011204Y012554D01*
X011202Y012580D01*
X011202Y011580D02*
X011204Y011606D01*
X011210Y011632D01*
X011220Y011657D01*
X011234Y011679D01*
X011251Y011700D01*
X011272Y011717D01*
X011294Y011731D01*
X011319Y011741D01*
X011345Y011747D01*
X011371Y011749D01*
X011397Y011747D01*
X011423Y011741D01*
X011448Y011731D01*
X011470Y011717D01*
X011491Y011700D01*
X011508Y011679D01*
X011522Y011657D01*
X011532Y011632D01*
X011538Y011606D01*
X011540Y011580D01*
X011538Y011554D01*
X011532Y011528D01*
X011522Y011503D01*
X011508Y011481D01*
X011491Y011460D01*
X011470Y011443D01*
X011448Y011429D01*
X011423Y011419D01*
X011397Y011413D01*
X011371Y011411D01*
X011345Y011413D01*
X011319Y011419D01*
X011294Y011429D01*
X011272Y011443D01*
X011251Y011460D01*
X011234Y011481D01*
X011220Y011503D01*
X011210Y011528D01*
X011204Y011554D01*
X011202Y011580D01*
X011202Y010580D02*
X011204Y010606D01*
X011210Y010632D01*
X011220Y010657D01*
X011234Y010679D01*
X011251Y010700D01*
X011272Y010717D01*
X011294Y010731D01*
X011319Y010741D01*
X011345Y010747D01*
X011371Y010749D01*
X011397Y010747D01*
X011423Y010741D01*
X011448Y010731D01*
X011470Y010717D01*
X011491Y010700D01*
X011508Y010679D01*
X011522Y010657D01*
X011532Y010632D01*
X011538Y010606D01*
X011540Y010580D01*
X011538Y010554D01*
X011532Y010528D01*
X011522Y010503D01*
X011508Y010481D01*
X011491Y010460D01*
X011470Y010443D01*
X011448Y010429D01*
X011423Y010419D01*
X011397Y010413D01*
X011371Y010411D01*
X011345Y010413D01*
X011319Y010419D01*
X011294Y010429D01*
X011272Y010443D01*
X011251Y010460D01*
X011234Y010481D01*
X011220Y010503D01*
X011210Y010528D01*
X011204Y010554D01*
X011202Y010580D01*
X011202Y009580D02*
X011204Y009606D01*
X011210Y009632D01*
X011220Y009657D01*
X011234Y009679D01*
X011251Y009700D01*
X011272Y009717D01*
X011294Y009731D01*
X011319Y009741D01*
X011345Y009747D01*
X011371Y009749D01*
X011397Y009747D01*
X011423Y009741D01*
X011448Y009731D01*
X011470Y009717D01*
X011491Y009700D01*
X011508Y009679D01*
X011522Y009657D01*
X011532Y009632D01*
X011538Y009606D01*
X011540Y009580D01*
X011538Y009554D01*
X011532Y009528D01*
X011522Y009503D01*
X011508Y009481D01*
X011491Y009460D01*
X011470Y009443D01*
X011448Y009429D01*
X011423Y009419D01*
X011397Y009413D01*
X011371Y009411D01*
X011345Y009413D01*
X011319Y009419D01*
X011294Y009429D01*
X011272Y009443D01*
X011251Y009460D01*
X011234Y009481D01*
X011220Y009503D01*
X011210Y009528D01*
X011204Y009554D01*
X011202Y009580D01*
X011202Y008580D02*
X011204Y008606D01*
X011210Y008632D01*
X011220Y008657D01*
X011234Y008679D01*
X011251Y008700D01*
X011272Y008717D01*
X011294Y008731D01*
X011319Y008741D01*
X011345Y008747D01*
X011371Y008749D01*
X011397Y008747D01*
X011423Y008741D01*
X011448Y008731D01*
X011470Y008717D01*
X011491Y008700D01*
X011508Y008679D01*
X011522Y008657D01*
X011532Y008632D01*
X011538Y008606D01*
X011540Y008580D01*
X011538Y008554D01*
X011532Y008528D01*
X011522Y008503D01*
X011508Y008481D01*
X011491Y008460D01*
X011470Y008443D01*
X011448Y008429D01*
X011423Y008419D01*
X011397Y008413D01*
X011371Y008411D01*
X011345Y008413D01*
X011319Y008419D01*
X011294Y008429D01*
X011272Y008443D01*
X011251Y008460D01*
X011234Y008481D01*
X011220Y008503D01*
X011210Y008528D01*
X011204Y008554D01*
X011202Y008580D01*
X011202Y007580D02*
X011204Y007606D01*
X011210Y007632D01*
X011220Y007657D01*
X011234Y007679D01*
X011251Y007700D01*
X011272Y007717D01*
X011294Y007731D01*
X011319Y007741D01*
X011345Y007747D01*
X011371Y007749D01*
X011397Y007747D01*
X011423Y007741D01*
X011448Y007731D01*
X011470Y007717D01*
X011491Y007700D01*
X011508Y007679D01*
X011522Y007657D01*
X011532Y007632D01*
X011538Y007606D01*
X011540Y007580D01*
X011538Y007554D01*
X011532Y007528D01*
X011522Y007503D01*
X011508Y007481D01*
X011491Y007460D01*
X011470Y007443D01*
X011448Y007429D01*
X011423Y007419D01*
X011397Y007413D01*
X011371Y007411D01*
X011345Y007413D01*
X011319Y007419D01*
X011294Y007429D01*
X011272Y007443D01*
X011251Y007460D01*
X011234Y007481D01*
X011220Y007503D01*
X011210Y007528D01*
X011204Y007554D01*
X011202Y007580D01*
X011202Y006580D02*
X011204Y006606D01*
X011210Y006632D01*
X011220Y006657D01*
X011234Y006679D01*
X011251Y006700D01*
X011272Y006717D01*
X011294Y006731D01*
X011319Y006741D01*
X011345Y006747D01*
X011371Y006749D01*
X011397Y006747D01*
X011423Y006741D01*
X011448Y006731D01*
X011470Y006717D01*
X011491Y006700D01*
X011508Y006679D01*
X011522Y006657D01*
X011532Y006632D01*
X011538Y006606D01*
X011540Y006580D01*
X011538Y006554D01*
X011532Y006528D01*
X011522Y006503D01*
X011508Y006481D01*
X011491Y006460D01*
X011470Y006443D01*
X011448Y006429D01*
X011423Y006419D01*
X011397Y006413D01*
X011371Y006411D01*
X011345Y006413D01*
X011319Y006419D01*
X011294Y006429D01*
X011272Y006443D01*
X011251Y006460D01*
X011234Y006481D01*
X011220Y006503D01*
X011210Y006528D01*
X011204Y006554D01*
X011202Y006580D01*
X011202Y005080D02*
X011204Y005106D01*
X011210Y005132D01*
X011220Y005157D01*
X011234Y005179D01*
X011251Y005200D01*
X011272Y005217D01*
X011294Y005231D01*
X011319Y005241D01*
X011345Y005247D01*
X011371Y005249D01*
X011397Y005247D01*
X011423Y005241D01*
X011448Y005231D01*
X011470Y005217D01*
X011491Y005200D01*
X011508Y005179D01*
X011522Y005157D01*
X011532Y005132D01*
X011538Y005106D01*
X011540Y005080D01*
X011538Y005054D01*
X011532Y005028D01*
X011522Y005003D01*
X011508Y004981D01*
X011491Y004960D01*
X011470Y004943D01*
X011448Y004929D01*
X011423Y004919D01*
X011397Y004913D01*
X011371Y004911D01*
X011345Y004913D01*
X011319Y004919D01*
X011294Y004929D01*
X011272Y004943D01*
X011251Y004960D01*
X011234Y004981D01*
X011220Y005003D01*
X011210Y005028D01*
X011204Y005054D01*
X011202Y005080D01*
X013202Y004580D02*
X013204Y004606D01*
X013210Y004632D01*
X013220Y004657D01*
X013234Y004679D01*
X013251Y004700D01*
X013272Y004717D01*
X013294Y004731D01*
X013319Y004741D01*
X013345Y004747D01*
X013371Y004749D01*
X013397Y004747D01*
X013423Y004741D01*
X013448Y004731D01*
X013470Y004717D01*
X013491Y004700D01*
X013508Y004679D01*
X013522Y004657D01*
X013532Y004632D01*
X013538Y004606D01*
X013540Y004580D01*
X013538Y004554D01*
X013532Y004528D01*
X013522Y004503D01*
X013508Y004481D01*
X013491Y004460D01*
X013470Y004443D01*
X013448Y004429D01*
X013423Y004419D01*
X013397Y004413D01*
X013371Y004411D01*
X013345Y004413D01*
X013319Y004419D01*
X013294Y004429D01*
X013272Y004443D01*
X013251Y004460D01*
X013234Y004481D01*
X013220Y004503D01*
X013210Y004528D01*
X013204Y004554D01*
X013202Y004580D01*
X013202Y003580D02*
X013204Y003606D01*
X013210Y003632D01*
X013220Y003657D01*
X013234Y003679D01*
X013251Y003700D01*
X013272Y003717D01*
X013294Y003731D01*
X013319Y003741D01*
X013345Y003747D01*
X013371Y003749D01*
X013397Y003747D01*
X013423Y003741D01*
X013448Y003731D01*
X013470Y003717D01*
X013491Y003700D01*
X013508Y003679D01*
X013522Y003657D01*
X013532Y003632D01*
X013538Y003606D01*
X013540Y003580D01*
X013538Y003554D01*
X013532Y003528D01*
X013522Y003503D01*
X013508Y003481D01*
X013491Y003460D01*
X013470Y003443D01*
X013448Y003429D01*
X013423Y003419D01*
X013397Y003413D01*
X013371Y003411D01*
X013345Y003413D01*
X013319Y003419D01*
X013294Y003429D01*
X013272Y003443D01*
X013251Y003460D01*
X013234Y003481D01*
X013220Y003503D01*
X013210Y003528D01*
X013204Y003554D01*
X013202Y003580D01*
X011202Y003080D02*
X011204Y003106D01*
X011210Y003132D01*
X011220Y003157D01*
X011234Y003179D01*
X011251Y003200D01*
X011272Y003217D01*
X011294Y003231D01*
X011319Y003241D01*
X011345Y003247D01*
X011371Y003249D01*
X011397Y003247D01*
X011423Y003241D01*
X011448Y003231D01*
X011470Y003217D01*
X011491Y003200D01*
X011508Y003179D01*
X011522Y003157D01*
X011532Y003132D01*
X011538Y003106D01*
X011540Y003080D01*
X011538Y003054D01*
X011532Y003028D01*
X011522Y003003D01*
X011508Y002981D01*
X011491Y002960D01*
X011470Y002943D01*
X011448Y002929D01*
X011423Y002919D01*
X011397Y002913D01*
X011371Y002911D01*
X011345Y002913D01*
X011319Y002919D01*
X011294Y002929D01*
X011272Y002943D01*
X011251Y002960D01*
X011234Y002981D01*
X011220Y003003D01*
X011210Y003028D01*
X011204Y003054D01*
X011202Y003080D01*
X002702Y009580D02*
X002704Y009606D01*
X002710Y009632D01*
X002720Y009657D01*
X002734Y009679D01*
X002751Y009700D01*
X002772Y009717D01*
X002794Y009731D01*
X002819Y009741D01*
X002845Y009747D01*
X002871Y009749D01*
X002897Y009747D01*
X002923Y009741D01*
X002948Y009731D01*
X002970Y009717D01*
X002991Y009700D01*
X003008Y009679D01*
X003022Y009657D01*
X003032Y009632D01*
X003038Y009606D01*
X003040Y009580D01*
X003038Y009554D01*
X003032Y009528D01*
X003022Y009503D01*
X003008Y009481D01*
X002991Y009460D01*
X002970Y009443D01*
X002948Y009429D01*
X002923Y009419D01*
X002897Y009413D01*
X002871Y009411D01*
X002845Y009413D01*
X002819Y009419D01*
X002794Y009429D01*
X002772Y009443D01*
X002751Y009460D01*
X002734Y009481D01*
X002720Y009503D01*
X002710Y009528D01*
X002704Y009554D01*
X002702Y009580D01*
X002702Y011580D02*
X002704Y011606D01*
X002710Y011632D01*
X002720Y011657D01*
X002734Y011679D01*
X002751Y011700D01*
X002772Y011717D01*
X002794Y011731D01*
X002819Y011741D01*
X002845Y011747D01*
X002871Y011749D01*
X002897Y011747D01*
X002923Y011741D01*
X002948Y011731D01*
X002970Y011717D01*
X002991Y011700D01*
X003008Y011679D01*
X003022Y011657D01*
X003032Y011632D01*
X003038Y011606D01*
X003040Y011580D01*
X003038Y011554D01*
X003032Y011528D01*
X003022Y011503D01*
X003008Y011481D01*
X002991Y011460D01*
X002970Y011443D01*
X002948Y011429D01*
X002923Y011419D01*
X002897Y011413D01*
X002871Y011411D01*
X002845Y011413D01*
X002819Y011419D01*
X002794Y011429D01*
X002772Y011443D01*
X002751Y011460D01*
X002734Y011481D01*
X002720Y011503D01*
X002710Y011528D01*
X002704Y011554D01*
X002702Y011580D01*
X002702Y012580D02*
X002704Y012606D01*
X002710Y012632D01*
X002720Y012657D01*
X002734Y012679D01*
X002751Y012700D01*
X002772Y012717D01*
X002794Y012731D01*
X002819Y012741D01*
X002845Y012747D01*
X002871Y012749D01*
X002897Y012747D01*
X002923Y012741D01*
X002948Y012731D01*
X002970Y012717D01*
X002991Y012700D01*
X003008Y012679D01*
X003022Y012657D01*
X003032Y012632D01*
X003038Y012606D01*
X003040Y012580D01*
X003038Y012554D01*
X003032Y012528D01*
X003022Y012503D01*
X003008Y012481D01*
X002991Y012460D01*
X002970Y012443D01*
X002948Y012429D01*
X002923Y012419D01*
X002897Y012413D01*
X002871Y012411D01*
X002845Y012413D01*
X002819Y012419D01*
X002794Y012429D01*
X002772Y012443D01*
X002751Y012460D01*
X002734Y012481D01*
X002720Y012503D01*
X002710Y012528D01*
X002704Y012554D01*
X002702Y012580D01*
X005702Y013580D02*
X005704Y013606D01*
X005710Y013632D01*
X005720Y013657D01*
X005734Y013679D01*
X005751Y013700D01*
X005772Y013717D01*
X005794Y013731D01*
X005819Y013741D01*
X005845Y013747D01*
X005871Y013749D01*
X005897Y013747D01*
X005923Y013741D01*
X005948Y013731D01*
X005970Y013717D01*
X005991Y013700D01*
X006008Y013679D01*
X006022Y013657D01*
X006032Y013632D01*
X006038Y013606D01*
X006040Y013580D01*
X006038Y013554D01*
X006032Y013528D01*
X006022Y013503D01*
X006008Y013481D01*
X005991Y013460D01*
X005970Y013443D01*
X005948Y013429D01*
X005923Y013419D01*
X005897Y013413D01*
X005871Y013411D01*
X005845Y013413D01*
X005819Y013419D01*
X005794Y013429D01*
X005772Y013443D01*
X005751Y013460D01*
X005734Y013481D01*
X005720Y013503D01*
X005710Y013528D01*
X005704Y013554D01*
X005702Y013580D01*
X007702Y013580D02*
X007704Y013606D01*
X007710Y013632D01*
X007720Y013657D01*
X007734Y013679D01*
X007751Y013700D01*
X007772Y013717D01*
X007794Y013731D01*
X007819Y013741D01*
X007845Y013747D01*
X007871Y013749D01*
X007897Y013747D01*
X007923Y013741D01*
X007948Y013731D01*
X007970Y013717D01*
X007991Y013700D01*
X008008Y013679D01*
X008022Y013657D01*
X008032Y013632D01*
X008038Y013606D01*
X008040Y013580D01*
X008038Y013554D01*
X008032Y013528D01*
X008022Y013503D01*
X008008Y013481D01*
X007991Y013460D01*
X007970Y013443D01*
X007948Y013429D01*
X007923Y013419D01*
X007897Y013413D01*
X007871Y013411D01*
X007845Y013413D01*
X007819Y013419D01*
X007794Y013429D01*
X007772Y013443D01*
X007751Y013460D01*
X007734Y013481D01*
X007720Y013503D01*
X007710Y013528D01*
X007704Y013554D01*
X007702Y013580D01*
X022702Y013580D02*
X022704Y013606D01*
X022710Y013632D01*
X022720Y013657D01*
X022734Y013679D01*
X022751Y013700D01*
X022772Y013717D01*
X022794Y013731D01*
X022819Y013741D01*
X022845Y013747D01*
X022871Y013749D01*
X022897Y013747D01*
X022923Y013741D01*
X022948Y013731D01*
X022970Y013717D01*
X022991Y013700D01*
X023008Y013679D01*
X023022Y013657D01*
X023032Y013632D01*
X023038Y013606D01*
X023040Y013580D01*
X023038Y013554D01*
X023032Y013528D01*
X023022Y013503D01*
X023008Y013481D01*
X022991Y013460D01*
X022970Y013443D01*
X022948Y013429D01*
X022923Y013419D01*
X022897Y013413D01*
X022871Y013411D01*
X022845Y013413D01*
X022819Y013419D01*
X022794Y013429D01*
X022772Y013443D01*
X022751Y013460D01*
X022734Y013481D01*
X022720Y013503D01*
X022710Y013528D01*
X022704Y013554D01*
X022702Y013580D01*
X022702Y012580D02*
X022704Y012606D01*
X022710Y012632D01*
X022720Y012657D01*
X022734Y012679D01*
X022751Y012700D01*
X022772Y012717D01*
X022794Y012731D01*
X022819Y012741D01*
X022845Y012747D01*
X022871Y012749D01*
X022897Y012747D01*
X022923Y012741D01*
X022948Y012731D01*
X022970Y012717D01*
X022991Y012700D01*
X023008Y012679D01*
X023022Y012657D01*
X023032Y012632D01*
X023038Y012606D01*
X023040Y012580D01*
X023038Y012554D01*
X023032Y012528D01*
X023022Y012503D01*
X023008Y012481D01*
X022991Y012460D01*
X022970Y012443D01*
X022948Y012429D01*
X022923Y012419D01*
X022897Y012413D01*
X022871Y012411D01*
X022845Y012413D01*
X022819Y012419D01*
X022794Y012429D01*
X022772Y012443D01*
X022751Y012460D01*
X022734Y012481D01*
X022720Y012503D01*
X022710Y012528D01*
X022704Y012554D01*
X022702Y012580D01*
X022702Y014580D02*
X022704Y014606D01*
X022710Y014632D01*
X022720Y014657D01*
X022734Y014679D01*
X022751Y014700D01*
X022772Y014717D01*
X022794Y014731D01*
X022819Y014741D01*
X022845Y014747D01*
X022871Y014749D01*
X022897Y014747D01*
X022923Y014741D01*
X022948Y014731D01*
X022970Y014717D01*
X022991Y014700D01*
X023008Y014679D01*
X023022Y014657D01*
X023032Y014632D01*
X023038Y014606D01*
X023040Y014580D01*
X023038Y014554D01*
X023032Y014528D01*
X023022Y014503D01*
X023008Y014481D01*
X022991Y014460D01*
X022970Y014443D01*
X022948Y014429D01*
X022923Y014419D01*
X022897Y014413D01*
X022871Y014411D01*
X022845Y014413D01*
X022819Y014419D01*
X022794Y014429D01*
X022772Y014443D01*
X022751Y014460D01*
X022734Y014481D01*
X022720Y014503D01*
X022710Y014528D01*
X022704Y014554D01*
X022702Y014580D01*
X022702Y015580D02*
X022704Y015606D01*
X022710Y015632D01*
X022720Y015657D01*
X022734Y015679D01*
X022751Y015700D01*
X022772Y015717D01*
X022794Y015731D01*
X022819Y015741D01*
X022845Y015747D01*
X022871Y015749D01*
X022897Y015747D01*
X022923Y015741D01*
X022948Y015731D01*
X022970Y015717D01*
X022991Y015700D01*
X023008Y015679D01*
X023022Y015657D01*
X023032Y015632D01*
X023038Y015606D01*
X023040Y015580D01*
X023038Y015554D01*
X023032Y015528D01*
X023022Y015503D01*
X023008Y015481D01*
X022991Y015460D01*
X022970Y015443D01*
X022948Y015429D01*
X022923Y015419D01*
X022897Y015413D01*
X022871Y015411D01*
X022845Y015413D01*
X022819Y015419D01*
X022794Y015429D01*
X022772Y015443D01*
X022751Y015460D01*
X022734Y015481D01*
X022720Y015503D01*
X022710Y015528D01*
X022704Y015554D01*
X022702Y015580D01*
D13*
X005682Y015580D02*
X005684Y015608D01*
X005690Y015634D01*
X005700Y015660D01*
X005713Y015684D01*
X005730Y015706D01*
X005750Y015725D01*
X005773Y015741D01*
X005797Y015754D01*
X005823Y015763D01*
X005850Y015768D01*
X005878Y015769D01*
X005905Y015766D01*
X005932Y015759D01*
X005957Y015748D01*
X005981Y015734D01*
X006002Y015716D01*
X006021Y015696D01*
X006036Y015672D01*
X006048Y015648D01*
X006055Y015621D01*
X006059Y015594D01*
X006059Y015566D01*
X006055Y015539D01*
X006048Y015512D01*
X006036Y015488D01*
X006021Y015464D01*
X006002Y015444D01*
X005981Y015426D01*
X005957Y015412D01*
X005932Y015401D01*
X005905Y015394D01*
X005878Y015391D01*
X005850Y015392D01*
X005823Y015397D01*
X005797Y015406D01*
X005773Y015419D01*
X005750Y015435D01*
X005730Y015454D01*
X005713Y015476D01*
X005700Y015500D01*
X005690Y015526D01*
X005684Y015552D01*
X005682Y015580D01*
X005682Y017580D02*
X005684Y017608D01*
X005690Y017634D01*
X005700Y017660D01*
X005713Y017684D01*
X005730Y017706D01*
X005750Y017725D01*
X005773Y017741D01*
X005797Y017754D01*
X005823Y017763D01*
X005850Y017768D01*
X005878Y017769D01*
X005905Y017766D01*
X005932Y017759D01*
X005957Y017748D01*
X005981Y017734D01*
X006002Y017716D01*
X006021Y017696D01*
X006036Y017672D01*
X006048Y017648D01*
X006055Y017621D01*
X006059Y017594D01*
X006059Y017566D01*
X006055Y017539D01*
X006048Y017512D01*
X006036Y017488D01*
X006021Y017464D01*
X006002Y017444D01*
X005981Y017426D01*
X005957Y017412D01*
X005932Y017401D01*
X005905Y017394D01*
X005878Y017391D01*
X005850Y017392D01*
X005823Y017397D01*
X005797Y017406D01*
X005773Y017419D01*
X005750Y017435D01*
X005730Y017454D01*
X005713Y017476D01*
X005700Y017500D01*
X005690Y017526D01*
X005684Y017552D01*
X005682Y017580D01*
D14*
X028673Y018580D02*
X028675Y018608D01*
X028681Y018636D01*
X028691Y018662D01*
X028704Y018687D01*
X028721Y018710D01*
X028741Y018730D01*
X028764Y018747D01*
X028789Y018760D01*
X028815Y018770D01*
X028843Y018776D01*
X028871Y018778D01*
X028899Y018776D01*
X028927Y018770D01*
X028953Y018760D01*
X028978Y018747D01*
X029001Y018730D01*
X029021Y018710D01*
X029038Y018687D01*
X029051Y018662D01*
X029061Y018636D01*
X029067Y018608D01*
X029069Y018580D01*
X029067Y018552D01*
X029061Y018524D01*
X029051Y018498D01*
X029038Y018473D01*
X029021Y018450D01*
X029001Y018430D01*
X028978Y018413D01*
X028953Y018400D01*
X028927Y018390D01*
X028899Y018384D01*
X028871Y018382D01*
X028843Y018384D01*
X028815Y018390D01*
X028789Y018400D01*
X028764Y018413D01*
X028741Y018430D01*
X028721Y018450D01*
X028704Y018473D01*
X028691Y018498D01*
X028681Y018524D01*
X028675Y018552D01*
X028673Y018580D01*
X029673Y018580D02*
X029675Y018608D01*
X029681Y018636D01*
X029691Y018662D01*
X029704Y018687D01*
X029721Y018710D01*
X029741Y018730D01*
X029764Y018747D01*
X029789Y018760D01*
X029815Y018770D01*
X029843Y018776D01*
X029871Y018778D01*
X029899Y018776D01*
X029927Y018770D01*
X029953Y018760D01*
X029978Y018747D01*
X030001Y018730D01*
X030021Y018710D01*
X030038Y018687D01*
X030051Y018662D01*
X030061Y018636D01*
X030067Y018608D01*
X030069Y018580D01*
X030067Y018552D01*
X030061Y018524D01*
X030051Y018498D01*
X030038Y018473D01*
X030021Y018450D01*
X030001Y018430D01*
X029978Y018413D01*
X029953Y018400D01*
X029927Y018390D01*
X029899Y018384D01*
X029871Y018382D01*
X029843Y018384D01*
X029815Y018390D01*
X029789Y018400D01*
X029764Y018413D01*
X029741Y018430D01*
X029721Y018450D01*
X029704Y018473D01*
X029691Y018498D01*
X029681Y018524D01*
X029675Y018552D01*
X029673Y018580D01*
X029673Y014580D02*
X029675Y014608D01*
X029681Y014636D01*
X029691Y014662D01*
X029704Y014687D01*
X029721Y014710D01*
X029741Y014730D01*
X029764Y014747D01*
X029789Y014760D01*
X029815Y014770D01*
X029843Y014776D01*
X029871Y014778D01*
X029899Y014776D01*
X029927Y014770D01*
X029953Y014760D01*
X029978Y014747D01*
X030001Y014730D01*
X030021Y014710D01*
X030038Y014687D01*
X030051Y014662D01*
X030061Y014636D01*
X030067Y014608D01*
X030069Y014580D01*
X030067Y014552D01*
X030061Y014524D01*
X030051Y014498D01*
X030038Y014473D01*
X030021Y014450D01*
X030001Y014430D01*
X029978Y014413D01*
X029953Y014400D01*
X029927Y014390D01*
X029899Y014384D01*
X029871Y014382D01*
X029843Y014384D01*
X029815Y014390D01*
X029789Y014400D01*
X029764Y014413D01*
X029741Y014430D01*
X029721Y014450D01*
X029704Y014473D01*
X029691Y014498D01*
X029681Y014524D01*
X029675Y014552D01*
X029673Y014580D01*
X028673Y014580D02*
X028675Y014608D01*
X028681Y014636D01*
X028691Y014662D01*
X028704Y014687D01*
X028721Y014710D01*
X028741Y014730D01*
X028764Y014747D01*
X028789Y014760D01*
X028815Y014770D01*
X028843Y014776D01*
X028871Y014778D01*
X028899Y014776D01*
X028927Y014770D01*
X028953Y014760D01*
X028978Y014747D01*
X029001Y014730D01*
X029021Y014710D01*
X029038Y014687D01*
X029051Y014662D01*
X029061Y014636D01*
X029067Y014608D01*
X029069Y014580D01*
X029067Y014552D01*
X029061Y014524D01*
X029051Y014498D01*
X029038Y014473D01*
X029021Y014450D01*
X029001Y014430D01*
X028978Y014413D01*
X028953Y014400D01*
X028927Y014390D01*
X028899Y014384D01*
X028871Y014382D01*
X028843Y014384D01*
X028815Y014390D01*
X028789Y014400D01*
X028764Y014413D01*
X028741Y014430D01*
X028721Y014450D01*
X028704Y014473D01*
X028691Y014498D01*
X028681Y014524D01*
X028675Y014552D01*
X028673Y014580D01*
D15*
X031913Y013572D02*
X031915Y013599D01*
X031921Y013626D01*
X031931Y013651D01*
X031945Y013674D01*
X031963Y013695D01*
X031983Y013714D01*
X032006Y013728D01*
X032031Y013740D01*
X032057Y013747D01*
X032084Y013750D01*
X032111Y013749D01*
X032138Y013744D01*
X032164Y013734D01*
X032188Y013721D01*
X032209Y013705D01*
X032228Y013685D01*
X032244Y013663D01*
X032256Y013639D01*
X032264Y013613D01*
X032268Y013586D01*
X032268Y013558D01*
X032264Y013531D01*
X032256Y013505D01*
X032244Y013481D01*
X032228Y013459D01*
X032209Y013439D01*
X032188Y013423D01*
X032164Y013410D01*
X032138Y013400D01*
X032111Y013395D01*
X032084Y013394D01*
X032057Y013397D01*
X032031Y013404D01*
X032006Y013416D01*
X031983Y013430D01*
X031963Y013449D01*
X031945Y013470D01*
X031931Y013493D01*
X031921Y013518D01*
X031915Y013545D01*
X031913Y013572D01*
X032692Y013572D02*
X032694Y013599D01*
X032700Y013625D01*
X032710Y013650D01*
X032723Y013673D01*
X032740Y013694D01*
X032759Y013712D01*
X032782Y013727D01*
X032806Y013739D01*
X032831Y013747D01*
X032858Y013750D01*
X032884Y013750D01*
X032911Y013747D01*
X032936Y013739D01*
X032961Y013727D01*
X032983Y013712D01*
X033002Y013694D01*
X033019Y013673D01*
X033032Y013650D01*
X033042Y013625D01*
X033048Y013599D01*
X033050Y013572D01*
X033048Y013545D01*
X033042Y013519D01*
X033032Y013494D01*
X033019Y013471D01*
X033002Y013450D01*
X032983Y013432D01*
X032960Y013417D01*
X032936Y013405D01*
X032911Y013397D01*
X032884Y013394D01*
X032858Y013394D01*
X032831Y013397D01*
X032806Y013405D01*
X032781Y013417D01*
X032759Y013432D01*
X032740Y013450D01*
X032723Y013471D01*
X032710Y013494D01*
X032700Y013519D01*
X032694Y013545D01*
X032692Y013572D01*
X032692Y012588D02*
X032694Y012615D01*
X032700Y012641D01*
X032710Y012666D01*
X032723Y012689D01*
X032740Y012710D01*
X032759Y012728D01*
X032782Y012743D01*
X032806Y012755D01*
X032831Y012763D01*
X032858Y012766D01*
X032884Y012766D01*
X032911Y012763D01*
X032936Y012755D01*
X032961Y012743D01*
X032983Y012728D01*
X033002Y012710D01*
X033019Y012689D01*
X033032Y012666D01*
X033042Y012641D01*
X033048Y012615D01*
X033050Y012588D01*
X033048Y012561D01*
X033042Y012535D01*
X033032Y012510D01*
X033019Y012487D01*
X033002Y012466D01*
X032983Y012448D01*
X032960Y012433D01*
X032936Y012421D01*
X032911Y012413D01*
X032884Y012410D01*
X032858Y012410D01*
X032831Y012413D01*
X032806Y012421D01*
X032781Y012433D01*
X032759Y012448D01*
X032740Y012466D01*
X032723Y012487D01*
X032710Y012510D01*
X032700Y012535D01*
X032694Y012561D01*
X032692Y012588D01*
X031913Y012588D02*
X031915Y012615D01*
X031921Y012642D01*
X031931Y012667D01*
X031945Y012690D01*
X031963Y012711D01*
X031983Y012730D01*
X032006Y012744D01*
X032031Y012756D01*
X032057Y012763D01*
X032084Y012766D01*
X032111Y012765D01*
X032138Y012760D01*
X032164Y012750D01*
X032188Y012737D01*
X032209Y012721D01*
X032228Y012701D01*
X032244Y012679D01*
X032256Y012655D01*
X032264Y012629D01*
X032268Y012602D01*
X032268Y012574D01*
X032264Y012547D01*
X032256Y012521D01*
X032244Y012497D01*
X032228Y012475D01*
X032209Y012455D01*
X032188Y012439D01*
X032164Y012426D01*
X032138Y012416D01*
X032111Y012411D01*
X032084Y012410D01*
X032057Y012413D01*
X032031Y012420D01*
X032006Y012432D01*
X031983Y012446D01*
X031963Y012465D01*
X031945Y012486D01*
X031931Y012509D01*
X031921Y012534D01*
X031915Y012561D01*
X031913Y012588D01*
X018692Y010080D02*
X018694Y010107D01*
X018700Y010133D01*
X018710Y010158D01*
X018723Y010181D01*
X018740Y010202D01*
X018759Y010220D01*
X018782Y010235D01*
X018806Y010247D01*
X018831Y010255D01*
X018858Y010258D01*
X018884Y010258D01*
X018911Y010255D01*
X018936Y010247D01*
X018961Y010235D01*
X018983Y010220D01*
X019002Y010202D01*
X019019Y010181D01*
X019032Y010158D01*
X019042Y010133D01*
X019048Y010107D01*
X019050Y010080D01*
X019048Y010053D01*
X019042Y010027D01*
X019032Y010002D01*
X019019Y009979D01*
X019002Y009958D01*
X018983Y009940D01*
X018960Y009925D01*
X018936Y009913D01*
X018911Y009905D01*
X018884Y009902D01*
X018858Y009902D01*
X018831Y009905D01*
X018806Y009913D01*
X018781Y009925D01*
X018759Y009940D01*
X018740Y009958D01*
X018723Y009979D01*
X018710Y010002D01*
X018700Y010027D01*
X018694Y010053D01*
X018692Y010080D01*
X017692Y010080D02*
X017694Y010107D01*
X017700Y010133D01*
X017710Y010158D01*
X017723Y010181D01*
X017740Y010202D01*
X017759Y010220D01*
X017782Y010235D01*
X017806Y010247D01*
X017831Y010255D01*
X017858Y010258D01*
X017884Y010258D01*
X017911Y010255D01*
X017936Y010247D01*
X017961Y010235D01*
X017983Y010220D01*
X018002Y010202D01*
X018019Y010181D01*
X018032Y010158D01*
X018042Y010133D01*
X018048Y010107D01*
X018050Y010080D01*
X018048Y010053D01*
X018042Y010027D01*
X018032Y010002D01*
X018019Y009979D01*
X018002Y009958D01*
X017983Y009940D01*
X017960Y009925D01*
X017936Y009913D01*
X017911Y009905D01*
X017884Y009902D01*
X017858Y009902D01*
X017831Y009905D01*
X017806Y009913D01*
X017781Y009925D01*
X017759Y009940D01*
X017740Y009958D01*
X017723Y009979D01*
X017710Y010002D01*
X017700Y010027D01*
X017694Y010053D01*
X017692Y010080D01*
X017692Y009080D02*
X017694Y009107D01*
X017700Y009133D01*
X017710Y009158D01*
X017723Y009181D01*
X017740Y009202D01*
X017759Y009220D01*
X017782Y009235D01*
X017806Y009247D01*
X017831Y009255D01*
X017858Y009258D01*
X017884Y009258D01*
X017911Y009255D01*
X017936Y009247D01*
X017961Y009235D01*
X017983Y009220D01*
X018002Y009202D01*
X018019Y009181D01*
X018032Y009158D01*
X018042Y009133D01*
X018048Y009107D01*
X018050Y009080D01*
X018048Y009053D01*
X018042Y009027D01*
X018032Y009002D01*
X018019Y008979D01*
X018002Y008958D01*
X017983Y008940D01*
X017960Y008925D01*
X017936Y008913D01*
X017911Y008905D01*
X017884Y008902D01*
X017858Y008902D01*
X017831Y008905D01*
X017806Y008913D01*
X017781Y008925D01*
X017759Y008940D01*
X017740Y008958D01*
X017723Y008979D01*
X017710Y009002D01*
X017700Y009027D01*
X017694Y009053D01*
X017692Y009080D01*
X018692Y009080D02*
X018694Y009107D01*
X018700Y009133D01*
X018710Y009158D01*
X018723Y009181D01*
X018740Y009202D01*
X018759Y009220D01*
X018782Y009235D01*
X018806Y009247D01*
X018831Y009255D01*
X018858Y009258D01*
X018884Y009258D01*
X018911Y009255D01*
X018936Y009247D01*
X018961Y009235D01*
X018983Y009220D01*
X019002Y009202D01*
X019019Y009181D01*
X019032Y009158D01*
X019042Y009133D01*
X019048Y009107D01*
X019050Y009080D01*
X019048Y009053D01*
X019042Y009027D01*
X019032Y009002D01*
X019019Y008979D01*
X019002Y008958D01*
X018983Y008940D01*
X018960Y008925D01*
X018936Y008913D01*
X018911Y008905D01*
X018884Y008902D01*
X018858Y008902D01*
X018831Y008905D01*
X018806Y008913D01*
X018781Y008925D01*
X018759Y008940D01*
X018740Y008958D01*
X018723Y008979D01*
X018710Y009002D01*
X018700Y009027D01*
X018694Y009053D01*
X018692Y009080D01*
X018692Y008080D02*
X018694Y008107D01*
X018700Y008133D01*
X018710Y008158D01*
X018723Y008181D01*
X018740Y008202D01*
X018759Y008220D01*
X018782Y008235D01*
X018806Y008247D01*
X018831Y008255D01*
X018858Y008258D01*
X018884Y008258D01*
X018911Y008255D01*
X018936Y008247D01*
X018961Y008235D01*
X018983Y008220D01*
X019002Y008202D01*
X019019Y008181D01*
X019032Y008158D01*
X019042Y008133D01*
X019048Y008107D01*
X019050Y008080D01*
X019048Y008053D01*
X019042Y008027D01*
X019032Y008002D01*
X019019Y007979D01*
X019002Y007958D01*
X018983Y007940D01*
X018960Y007925D01*
X018936Y007913D01*
X018911Y007905D01*
X018884Y007902D01*
X018858Y007902D01*
X018831Y007905D01*
X018806Y007913D01*
X018781Y007925D01*
X018759Y007940D01*
X018740Y007958D01*
X018723Y007979D01*
X018710Y008002D01*
X018700Y008027D01*
X018694Y008053D01*
X018692Y008080D01*
X017692Y008080D02*
X017694Y008107D01*
X017700Y008133D01*
X017710Y008158D01*
X017723Y008181D01*
X017740Y008202D01*
X017759Y008220D01*
X017782Y008235D01*
X017806Y008247D01*
X017831Y008255D01*
X017858Y008258D01*
X017884Y008258D01*
X017911Y008255D01*
X017936Y008247D01*
X017961Y008235D01*
X017983Y008220D01*
X018002Y008202D01*
X018019Y008181D01*
X018032Y008158D01*
X018042Y008133D01*
X018048Y008107D01*
X018050Y008080D01*
X018048Y008053D01*
X018042Y008027D01*
X018032Y008002D01*
X018019Y007979D01*
X018002Y007958D01*
X017983Y007940D01*
X017960Y007925D01*
X017936Y007913D01*
X017911Y007905D01*
X017884Y007902D01*
X017858Y007902D01*
X017831Y007905D01*
X017806Y007913D01*
X017781Y007925D01*
X017759Y007940D01*
X017740Y007958D01*
X017723Y007979D01*
X017710Y008002D01*
X017700Y008027D01*
X017694Y008053D01*
X017692Y008080D01*
X017692Y007080D02*
X017694Y007107D01*
X017700Y007133D01*
X017710Y007158D01*
X017723Y007181D01*
X017740Y007202D01*
X017759Y007220D01*
X017782Y007235D01*
X017806Y007247D01*
X017831Y007255D01*
X017858Y007258D01*
X017884Y007258D01*
X017911Y007255D01*
X017936Y007247D01*
X017961Y007235D01*
X017983Y007220D01*
X018002Y007202D01*
X018019Y007181D01*
X018032Y007158D01*
X018042Y007133D01*
X018048Y007107D01*
X018050Y007080D01*
X018048Y007053D01*
X018042Y007027D01*
X018032Y007002D01*
X018019Y006979D01*
X018002Y006958D01*
X017983Y006940D01*
X017960Y006925D01*
X017936Y006913D01*
X017911Y006905D01*
X017884Y006902D01*
X017858Y006902D01*
X017831Y006905D01*
X017806Y006913D01*
X017781Y006925D01*
X017759Y006940D01*
X017740Y006958D01*
X017723Y006979D01*
X017710Y007002D01*
X017700Y007027D01*
X017694Y007053D01*
X017692Y007080D01*
X018692Y007080D02*
X018694Y007107D01*
X018700Y007133D01*
X018710Y007158D01*
X018723Y007181D01*
X018740Y007202D01*
X018759Y007220D01*
X018782Y007235D01*
X018806Y007247D01*
X018831Y007255D01*
X018858Y007258D01*
X018884Y007258D01*
X018911Y007255D01*
X018936Y007247D01*
X018961Y007235D01*
X018983Y007220D01*
X019002Y007202D01*
X019019Y007181D01*
X019032Y007158D01*
X019042Y007133D01*
X019048Y007107D01*
X019050Y007080D01*
X019048Y007053D01*
X019042Y007027D01*
X019032Y007002D01*
X019019Y006979D01*
X019002Y006958D01*
X018983Y006940D01*
X018960Y006925D01*
X018936Y006913D01*
X018911Y006905D01*
X018884Y006902D01*
X018858Y006902D01*
X018831Y006905D01*
X018806Y006913D01*
X018781Y006925D01*
X018759Y006940D01*
X018740Y006958D01*
X018723Y006979D01*
X018710Y007002D01*
X018700Y007027D01*
X018694Y007053D01*
X018692Y007080D01*
X018692Y006080D02*
X018694Y006107D01*
X018700Y006133D01*
X018710Y006158D01*
X018723Y006181D01*
X018740Y006202D01*
X018759Y006220D01*
X018782Y006235D01*
X018806Y006247D01*
X018831Y006255D01*
X018858Y006258D01*
X018884Y006258D01*
X018911Y006255D01*
X018936Y006247D01*
X018961Y006235D01*
X018983Y006220D01*
X019002Y006202D01*
X019019Y006181D01*
X019032Y006158D01*
X019042Y006133D01*
X019048Y006107D01*
X019050Y006080D01*
X019048Y006053D01*
X019042Y006027D01*
X019032Y006002D01*
X019019Y005979D01*
X019002Y005958D01*
X018983Y005940D01*
X018960Y005925D01*
X018936Y005913D01*
X018911Y005905D01*
X018884Y005902D01*
X018858Y005902D01*
X018831Y005905D01*
X018806Y005913D01*
X018781Y005925D01*
X018759Y005940D01*
X018740Y005958D01*
X018723Y005979D01*
X018710Y006002D01*
X018700Y006027D01*
X018694Y006053D01*
X018692Y006080D01*
X017692Y006080D02*
X017694Y006107D01*
X017700Y006133D01*
X017710Y006158D01*
X017723Y006181D01*
X017740Y006202D01*
X017759Y006220D01*
X017782Y006235D01*
X017806Y006247D01*
X017831Y006255D01*
X017858Y006258D01*
X017884Y006258D01*
X017911Y006255D01*
X017936Y006247D01*
X017961Y006235D01*
X017983Y006220D01*
X018002Y006202D01*
X018019Y006181D01*
X018032Y006158D01*
X018042Y006133D01*
X018048Y006107D01*
X018050Y006080D01*
X018048Y006053D01*
X018042Y006027D01*
X018032Y006002D01*
X018019Y005979D01*
X018002Y005958D01*
X017983Y005940D01*
X017960Y005925D01*
X017936Y005913D01*
X017911Y005905D01*
X017884Y005902D01*
X017858Y005902D01*
X017831Y005905D01*
X017806Y005913D01*
X017781Y005925D01*
X017759Y005940D01*
X017740Y005958D01*
X017723Y005979D01*
X017710Y006002D01*
X017700Y006027D01*
X017694Y006053D01*
X017692Y006080D01*
X009692Y011580D02*
X009694Y011607D01*
X009700Y011633D01*
X009710Y011658D01*
X009723Y011681D01*
X009740Y011702D01*
X009759Y011720D01*
X009782Y011735D01*
X009806Y011747D01*
X009831Y011755D01*
X009858Y011758D01*
X009884Y011758D01*
X009911Y011755D01*
X009936Y011747D01*
X009961Y011735D01*
X009983Y011720D01*
X010002Y011702D01*
X010019Y011681D01*
X010032Y011658D01*
X010042Y011633D01*
X010048Y011607D01*
X010050Y011580D01*
X010048Y011553D01*
X010042Y011527D01*
X010032Y011502D01*
X010019Y011479D01*
X010002Y011458D01*
X009983Y011440D01*
X009960Y011425D01*
X009936Y011413D01*
X009911Y011405D01*
X009884Y011402D01*
X009858Y011402D01*
X009831Y011405D01*
X009806Y011413D01*
X009781Y011425D01*
X009759Y011440D01*
X009740Y011458D01*
X009723Y011479D01*
X009710Y011502D01*
X009700Y011527D01*
X009694Y011553D01*
X009692Y011580D01*
X009692Y012580D02*
X009694Y012607D01*
X009700Y012633D01*
X009710Y012658D01*
X009723Y012681D01*
X009740Y012702D01*
X009759Y012720D01*
X009782Y012735D01*
X009806Y012747D01*
X009831Y012755D01*
X009858Y012758D01*
X009884Y012758D01*
X009911Y012755D01*
X009936Y012747D01*
X009961Y012735D01*
X009983Y012720D01*
X010002Y012702D01*
X010019Y012681D01*
X010032Y012658D01*
X010042Y012633D01*
X010048Y012607D01*
X010050Y012580D01*
X010048Y012553D01*
X010042Y012527D01*
X010032Y012502D01*
X010019Y012479D01*
X010002Y012458D01*
X009983Y012440D01*
X009960Y012425D01*
X009936Y012413D01*
X009911Y012405D01*
X009884Y012402D01*
X009858Y012402D01*
X009831Y012405D01*
X009806Y012413D01*
X009781Y012425D01*
X009759Y012440D01*
X009740Y012458D01*
X009723Y012479D01*
X009710Y012502D01*
X009700Y012527D01*
X009694Y012553D01*
X009692Y012580D01*
X007192Y010080D02*
X007194Y010107D01*
X007200Y010133D01*
X007210Y010158D01*
X007223Y010181D01*
X007240Y010202D01*
X007259Y010220D01*
X007282Y010235D01*
X007306Y010247D01*
X007331Y010255D01*
X007358Y010258D01*
X007384Y010258D01*
X007411Y010255D01*
X007436Y010247D01*
X007461Y010235D01*
X007483Y010220D01*
X007502Y010202D01*
X007519Y010181D01*
X007532Y010158D01*
X007542Y010133D01*
X007548Y010107D01*
X007550Y010080D01*
X007548Y010053D01*
X007542Y010027D01*
X007532Y010002D01*
X007519Y009979D01*
X007502Y009958D01*
X007483Y009940D01*
X007460Y009925D01*
X007436Y009913D01*
X007411Y009905D01*
X007384Y009902D01*
X007358Y009902D01*
X007331Y009905D01*
X007306Y009913D01*
X007281Y009925D01*
X007259Y009940D01*
X007240Y009958D01*
X007223Y009979D01*
X007210Y010002D01*
X007200Y010027D01*
X007194Y010053D01*
X007192Y010080D01*
X006192Y010080D02*
X006194Y010107D01*
X006200Y010133D01*
X006210Y010158D01*
X006223Y010181D01*
X006240Y010202D01*
X006259Y010220D01*
X006282Y010235D01*
X006306Y010247D01*
X006331Y010255D01*
X006358Y010258D01*
X006384Y010258D01*
X006411Y010255D01*
X006436Y010247D01*
X006461Y010235D01*
X006483Y010220D01*
X006502Y010202D01*
X006519Y010181D01*
X006532Y010158D01*
X006542Y010133D01*
X006548Y010107D01*
X006550Y010080D01*
X006548Y010053D01*
X006542Y010027D01*
X006532Y010002D01*
X006519Y009979D01*
X006502Y009958D01*
X006483Y009940D01*
X006460Y009925D01*
X006436Y009913D01*
X006411Y009905D01*
X006384Y009902D01*
X006358Y009902D01*
X006331Y009905D01*
X006306Y009913D01*
X006281Y009925D01*
X006259Y009940D01*
X006240Y009958D01*
X006223Y009979D01*
X006210Y010002D01*
X006200Y010027D01*
X006194Y010053D01*
X006192Y010080D01*
X006192Y009080D02*
X006194Y009107D01*
X006200Y009133D01*
X006210Y009158D01*
X006223Y009181D01*
X006240Y009202D01*
X006259Y009220D01*
X006282Y009235D01*
X006306Y009247D01*
X006331Y009255D01*
X006358Y009258D01*
X006384Y009258D01*
X006411Y009255D01*
X006436Y009247D01*
X006461Y009235D01*
X006483Y009220D01*
X006502Y009202D01*
X006519Y009181D01*
X006532Y009158D01*
X006542Y009133D01*
X006548Y009107D01*
X006550Y009080D01*
X006548Y009053D01*
X006542Y009027D01*
X006532Y009002D01*
X006519Y008979D01*
X006502Y008958D01*
X006483Y008940D01*
X006460Y008925D01*
X006436Y008913D01*
X006411Y008905D01*
X006384Y008902D01*
X006358Y008902D01*
X006331Y008905D01*
X006306Y008913D01*
X006281Y008925D01*
X006259Y008940D01*
X006240Y008958D01*
X006223Y008979D01*
X006210Y009002D01*
X006200Y009027D01*
X006194Y009053D01*
X006192Y009080D01*
X007192Y009080D02*
X007194Y009107D01*
X007200Y009133D01*
X007210Y009158D01*
X007223Y009181D01*
X007240Y009202D01*
X007259Y009220D01*
X007282Y009235D01*
X007306Y009247D01*
X007331Y009255D01*
X007358Y009258D01*
X007384Y009258D01*
X007411Y009255D01*
X007436Y009247D01*
X007461Y009235D01*
X007483Y009220D01*
X007502Y009202D01*
X007519Y009181D01*
X007532Y009158D01*
X007542Y009133D01*
X007548Y009107D01*
X007550Y009080D01*
X007548Y009053D01*
X007542Y009027D01*
X007532Y009002D01*
X007519Y008979D01*
X007502Y008958D01*
X007483Y008940D01*
X007460Y008925D01*
X007436Y008913D01*
X007411Y008905D01*
X007384Y008902D01*
X007358Y008902D01*
X007331Y008905D01*
X007306Y008913D01*
X007281Y008925D01*
X007259Y008940D01*
X007240Y008958D01*
X007223Y008979D01*
X007210Y009002D01*
X007200Y009027D01*
X007194Y009053D01*
X007192Y009080D01*
X007192Y008080D02*
X007194Y008107D01*
X007200Y008133D01*
X007210Y008158D01*
X007223Y008181D01*
X007240Y008202D01*
X007259Y008220D01*
X007282Y008235D01*
X007306Y008247D01*
X007331Y008255D01*
X007358Y008258D01*
X007384Y008258D01*
X007411Y008255D01*
X007436Y008247D01*
X007461Y008235D01*
X007483Y008220D01*
X007502Y008202D01*
X007519Y008181D01*
X007532Y008158D01*
X007542Y008133D01*
X007548Y008107D01*
X007550Y008080D01*
X007548Y008053D01*
X007542Y008027D01*
X007532Y008002D01*
X007519Y007979D01*
X007502Y007958D01*
X007483Y007940D01*
X007460Y007925D01*
X007436Y007913D01*
X007411Y007905D01*
X007384Y007902D01*
X007358Y007902D01*
X007331Y007905D01*
X007306Y007913D01*
X007281Y007925D01*
X007259Y007940D01*
X007240Y007958D01*
X007223Y007979D01*
X007210Y008002D01*
X007200Y008027D01*
X007194Y008053D01*
X007192Y008080D01*
X006192Y008080D02*
X006194Y008107D01*
X006200Y008133D01*
X006210Y008158D01*
X006223Y008181D01*
X006240Y008202D01*
X006259Y008220D01*
X006282Y008235D01*
X006306Y008247D01*
X006331Y008255D01*
X006358Y008258D01*
X006384Y008258D01*
X006411Y008255D01*
X006436Y008247D01*
X006461Y008235D01*
X006483Y008220D01*
X006502Y008202D01*
X006519Y008181D01*
X006532Y008158D01*
X006542Y008133D01*
X006548Y008107D01*
X006550Y008080D01*
X006548Y008053D01*
X006542Y008027D01*
X006532Y008002D01*
X006519Y007979D01*
X006502Y007958D01*
X006483Y007940D01*
X006460Y007925D01*
X006436Y007913D01*
X006411Y007905D01*
X006384Y007902D01*
X006358Y007902D01*
X006331Y007905D01*
X006306Y007913D01*
X006281Y007925D01*
X006259Y007940D01*
X006240Y007958D01*
X006223Y007979D01*
X006210Y008002D01*
X006200Y008027D01*
X006194Y008053D01*
X006192Y008080D01*
X006192Y007080D02*
X006194Y007107D01*
X006200Y007133D01*
X006210Y007158D01*
X006223Y007181D01*
X006240Y007202D01*
X006259Y007220D01*
X006282Y007235D01*
X006306Y007247D01*
X006331Y007255D01*
X006358Y007258D01*
X006384Y007258D01*
X006411Y007255D01*
X006436Y007247D01*
X006461Y007235D01*
X006483Y007220D01*
X006502Y007202D01*
X006519Y007181D01*
X006532Y007158D01*
X006542Y007133D01*
X006548Y007107D01*
X006550Y007080D01*
X006548Y007053D01*
X006542Y007027D01*
X006532Y007002D01*
X006519Y006979D01*
X006502Y006958D01*
X006483Y006940D01*
X006460Y006925D01*
X006436Y006913D01*
X006411Y006905D01*
X006384Y006902D01*
X006358Y006902D01*
X006331Y006905D01*
X006306Y006913D01*
X006281Y006925D01*
X006259Y006940D01*
X006240Y006958D01*
X006223Y006979D01*
X006210Y007002D01*
X006200Y007027D01*
X006194Y007053D01*
X006192Y007080D01*
X007192Y007080D02*
X007194Y007107D01*
X007200Y007133D01*
X007210Y007158D01*
X007223Y007181D01*
X007240Y007202D01*
X007259Y007220D01*
X007282Y007235D01*
X007306Y007247D01*
X007331Y007255D01*
X007358Y007258D01*
X007384Y007258D01*
X007411Y007255D01*
X007436Y007247D01*
X007461Y007235D01*
X007483Y007220D01*
X007502Y007202D01*
X007519Y007181D01*
X007532Y007158D01*
X007542Y007133D01*
X007548Y007107D01*
X007550Y007080D01*
X007548Y007053D01*
X007542Y007027D01*
X007532Y007002D01*
X007519Y006979D01*
X007502Y006958D01*
X007483Y006940D01*
X007460Y006925D01*
X007436Y006913D01*
X007411Y006905D01*
X007384Y006902D01*
X007358Y006902D01*
X007331Y006905D01*
X007306Y006913D01*
X007281Y006925D01*
X007259Y006940D01*
X007240Y006958D01*
X007223Y006979D01*
X007210Y007002D01*
X007200Y007027D01*
X007194Y007053D01*
X007192Y007080D01*
X007192Y006080D02*
X007194Y006107D01*
X007200Y006133D01*
X007210Y006158D01*
X007223Y006181D01*
X007240Y006202D01*
X007259Y006220D01*
X007282Y006235D01*
X007306Y006247D01*
X007331Y006255D01*
X007358Y006258D01*
X007384Y006258D01*
X007411Y006255D01*
X007436Y006247D01*
X007461Y006235D01*
X007483Y006220D01*
X007502Y006202D01*
X007519Y006181D01*
X007532Y006158D01*
X007542Y006133D01*
X007548Y006107D01*
X007550Y006080D01*
X007548Y006053D01*
X007542Y006027D01*
X007532Y006002D01*
X007519Y005979D01*
X007502Y005958D01*
X007483Y005940D01*
X007460Y005925D01*
X007436Y005913D01*
X007411Y005905D01*
X007384Y005902D01*
X007358Y005902D01*
X007331Y005905D01*
X007306Y005913D01*
X007281Y005925D01*
X007259Y005940D01*
X007240Y005958D01*
X007223Y005979D01*
X007210Y006002D01*
X007200Y006027D01*
X007194Y006053D01*
X007192Y006080D01*
X006192Y006080D02*
X006194Y006107D01*
X006200Y006133D01*
X006210Y006158D01*
X006223Y006181D01*
X006240Y006202D01*
X006259Y006220D01*
X006282Y006235D01*
X006306Y006247D01*
X006331Y006255D01*
X006358Y006258D01*
X006384Y006258D01*
X006411Y006255D01*
X006436Y006247D01*
X006461Y006235D01*
X006483Y006220D01*
X006502Y006202D01*
X006519Y006181D01*
X006532Y006158D01*
X006542Y006133D01*
X006548Y006107D01*
X006550Y006080D01*
X006548Y006053D01*
X006542Y006027D01*
X006532Y006002D01*
X006519Y005979D01*
X006502Y005958D01*
X006483Y005940D01*
X006460Y005925D01*
X006436Y005913D01*
X006411Y005905D01*
X006384Y005902D01*
X006358Y005902D01*
X006331Y005905D01*
X006306Y005913D01*
X006281Y005925D01*
X006259Y005940D01*
X006240Y005958D01*
X006223Y005979D01*
X006210Y006002D01*
X006200Y006027D01*
X006194Y006053D01*
X006192Y006080D01*
D16*
X009714Y006080D02*
X009716Y006105D01*
X009722Y006130D01*
X009732Y006153D01*
X009745Y006174D01*
X009762Y006193D01*
X009782Y006209D01*
X009804Y006222D01*
X009827Y006231D01*
X009852Y006236D01*
X009877Y006237D01*
X009902Y006234D01*
X009927Y006227D01*
X009949Y006216D01*
X009970Y006202D01*
X009989Y006184D01*
X010004Y006164D01*
X010015Y006142D01*
X010023Y006118D01*
X010027Y006093D01*
X010027Y006067D01*
X010023Y006042D01*
X010015Y006018D01*
X010004Y005996D01*
X009989Y005976D01*
X009970Y005958D01*
X009950Y005944D01*
X009927Y005933D01*
X009902Y005926D01*
X009877Y005923D01*
X009852Y005924D01*
X009827Y005929D01*
X009804Y005938D01*
X009782Y005951D01*
X009762Y005967D01*
X009745Y005986D01*
X009732Y006007D01*
X009722Y006030D01*
X009716Y006055D01*
X009714Y006080D01*
X009714Y009580D02*
X009716Y009605D01*
X009722Y009630D01*
X009732Y009653D01*
X009745Y009674D01*
X009762Y009693D01*
X009782Y009709D01*
X009804Y009722D01*
X009827Y009731D01*
X009852Y009736D01*
X009877Y009737D01*
X009902Y009734D01*
X009927Y009727D01*
X009949Y009716D01*
X009970Y009702D01*
X009989Y009684D01*
X010004Y009664D01*
X010015Y009642D01*
X010023Y009618D01*
X010027Y009593D01*
X010027Y009567D01*
X010023Y009542D01*
X010015Y009518D01*
X010004Y009496D01*
X009989Y009476D01*
X009970Y009458D01*
X009950Y009444D01*
X009927Y009433D01*
X009902Y009426D01*
X009877Y009423D01*
X009852Y009424D01*
X009827Y009429D01*
X009804Y009438D01*
X009782Y009451D01*
X009762Y009467D01*
X009745Y009486D01*
X009732Y009507D01*
X009722Y009530D01*
X009716Y009555D01*
X009714Y009580D01*
X004214Y009580D02*
X004216Y009605D01*
X004222Y009630D01*
X004232Y009653D01*
X004245Y009674D01*
X004262Y009693D01*
X004282Y009709D01*
X004304Y009722D01*
X004327Y009731D01*
X004352Y009736D01*
X004377Y009737D01*
X004402Y009734D01*
X004427Y009727D01*
X004449Y009716D01*
X004470Y009702D01*
X004489Y009684D01*
X004504Y009664D01*
X004515Y009642D01*
X004523Y009618D01*
X004527Y009593D01*
X004527Y009567D01*
X004523Y009542D01*
X004515Y009518D01*
X004504Y009496D01*
X004489Y009476D01*
X004470Y009458D01*
X004450Y009444D01*
X004427Y009433D01*
X004402Y009426D01*
X004377Y009423D01*
X004352Y009424D01*
X004327Y009429D01*
X004304Y009438D01*
X004282Y009451D01*
X004262Y009467D01*
X004245Y009486D01*
X004232Y009507D01*
X004222Y009530D01*
X004216Y009555D01*
X004214Y009580D01*
X004214Y012580D02*
X004216Y012605D01*
X004222Y012630D01*
X004232Y012653D01*
X004245Y012674D01*
X004262Y012693D01*
X004282Y012709D01*
X004304Y012722D01*
X004327Y012731D01*
X004352Y012736D01*
X004377Y012737D01*
X004402Y012734D01*
X004427Y012727D01*
X004449Y012716D01*
X004470Y012702D01*
X004489Y012684D01*
X004504Y012664D01*
X004515Y012642D01*
X004523Y012618D01*
X004527Y012593D01*
X004527Y012567D01*
X004523Y012542D01*
X004515Y012518D01*
X004504Y012496D01*
X004489Y012476D01*
X004470Y012458D01*
X004450Y012444D01*
X004427Y012433D01*
X004402Y012426D01*
X004377Y012423D01*
X004352Y012424D01*
X004327Y012429D01*
X004304Y012438D01*
X004282Y012451D01*
X004262Y012467D01*
X004245Y012486D01*
X004232Y012507D01*
X004222Y012530D01*
X004216Y012555D01*
X004214Y012580D01*
X003214Y014580D02*
X003216Y014605D01*
X003222Y014630D01*
X003232Y014653D01*
X003245Y014674D01*
X003262Y014693D01*
X003282Y014709D01*
X003304Y014722D01*
X003327Y014731D01*
X003352Y014736D01*
X003377Y014737D01*
X003402Y014734D01*
X003427Y014727D01*
X003449Y014716D01*
X003470Y014702D01*
X003489Y014684D01*
X003504Y014664D01*
X003515Y014642D01*
X003523Y014618D01*
X003527Y014593D01*
X003527Y014567D01*
X003523Y014542D01*
X003515Y014518D01*
X003504Y014496D01*
X003489Y014476D01*
X003470Y014458D01*
X003450Y014444D01*
X003427Y014433D01*
X003402Y014426D01*
X003377Y014423D01*
X003352Y014424D01*
X003327Y014429D01*
X003304Y014438D01*
X003282Y014451D01*
X003262Y014467D01*
X003245Y014486D01*
X003232Y014507D01*
X003222Y014530D01*
X003216Y014555D01*
X003214Y014580D01*
X006714Y014580D02*
X006716Y014605D01*
X006722Y014630D01*
X006732Y014653D01*
X006745Y014674D01*
X006762Y014693D01*
X006782Y014709D01*
X006804Y014722D01*
X006827Y014731D01*
X006852Y014736D01*
X006877Y014737D01*
X006902Y014734D01*
X006927Y014727D01*
X006949Y014716D01*
X006970Y014702D01*
X006989Y014684D01*
X007004Y014664D01*
X007015Y014642D01*
X007023Y014618D01*
X007027Y014593D01*
X007027Y014567D01*
X007023Y014542D01*
X007015Y014518D01*
X007004Y014496D01*
X006989Y014476D01*
X006970Y014458D01*
X006950Y014444D01*
X006927Y014433D01*
X006902Y014426D01*
X006877Y014423D01*
X006852Y014424D01*
X006827Y014429D01*
X006804Y014438D01*
X006782Y014451D01*
X006762Y014467D01*
X006745Y014486D01*
X006732Y014507D01*
X006722Y014530D01*
X006716Y014555D01*
X006714Y014580D01*
X015964Y013080D02*
X015966Y013105D01*
X015972Y013130D01*
X015982Y013153D01*
X015995Y013174D01*
X016012Y013193D01*
X016032Y013209D01*
X016054Y013222D01*
X016077Y013231D01*
X016102Y013236D01*
X016127Y013237D01*
X016152Y013234D01*
X016177Y013227D01*
X016199Y013216D01*
X016220Y013202D01*
X016239Y013184D01*
X016254Y013164D01*
X016265Y013142D01*
X016273Y013118D01*
X016277Y013093D01*
X016277Y013067D01*
X016273Y013042D01*
X016265Y013018D01*
X016254Y012996D01*
X016239Y012976D01*
X016220Y012958D01*
X016200Y012944D01*
X016177Y012933D01*
X016152Y012926D01*
X016127Y012923D01*
X016102Y012924D01*
X016077Y012929D01*
X016054Y012938D01*
X016032Y012951D01*
X016012Y012967D01*
X015995Y012986D01*
X015982Y013007D01*
X015972Y013030D01*
X015966Y013055D01*
X015964Y013080D01*
X016714Y014080D02*
X016716Y014105D01*
X016722Y014130D01*
X016732Y014153D01*
X016745Y014174D01*
X016762Y014193D01*
X016782Y014209D01*
X016804Y014222D01*
X016827Y014231D01*
X016852Y014236D01*
X016877Y014237D01*
X016902Y014234D01*
X016927Y014227D01*
X016949Y014216D01*
X016970Y014202D01*
X016989Y014184D01*
X017004Y014164D01*
X017015Y014142D01*
X017023Y014118D01*
X017027Y014093D01*
X017027Y014067D01*
X017023Y014042D01*
X017015Y014018D01*
X017004Y013996D01*
X016989Y013976D01*
X016970Y013958D01*
X016950Y013944D01*
X016927Y013933D01*
X016902Y013926D01*
X016877Y013923D01*
X016852Y013924D01*
X016827Y013929D01*
X016804Y013938D01*
X016782Y013951D01*
X016762Y013967D01*
X016745Y013986D01*
X016732Y014007D01*
X016722Y014030D01*
X016716Y014055D01*
X016714Y014080D01*
X018714Y014080D02*
X018716Y014105D01*
X018722Y014130D01*
X018732Y014153D01*
X018745Y014174D01*
X018762Y014193D01*
X018782Y014209D01*
X018804Y014222D01*
X018827Y014231D01*
X018852Y014236D01*
X018877Y014237D01*
X018902Y014234D01*
X018927Y014227D01*
X018949Y014216D01*
X018970Y014202D01*
X018989Y014184D01*
X019004Y014164D01*
X019015Y014142D01*
X019023Y014118D01*
X019027Y014093D01*
X019027Y014067D01*
X019023Y014042D01*
X019015Y014018D01*
X019004Y013996D01*
X018989Y013976D01*
X018970Y013958D01*
X018950Y013944D01*
X018927Y013933D01*
X018902Y013926D01*
X018877Y013923D01*
X018852Y013924D01*
X018827Y013929D01*
X018804Y013938D01*
X018782Y013951D01*
X018762Y013967D01*
X018745Y013986D01*
X018732Y014007D01*
X018722Y014030D01*
X018716Y014055D01*
X018714Y014080D01*
X018714Y013080D02*
X018716Y013105D01*
X018722Y013130D01*
X018732Y013153D01*
X018745Y013174D01*
X018762Y013193D01*
X018782Y013209D01*
X018804Y013222D01*
X018827Y013231D01*
X018852Y013236D01*
X018877Y013237D01*
X018902Y013234D01*
X018927Y013227D01*
X018949Y013216D01*
X018970Y013202D01*
X018989Y013184D01*
X019004Y013164D01*
X019015Y013142D01*
X019023Y013118D01*
X019027Y013093D01*
X019027Y013067D01*
X019023Y013042D01*
X019015Y013018D01*
X019004Y012996D01*
X018989Y012976D01*
X018970Y012958D01*
X018950Y012944D01*
X018927Y012933D01*
X018902Y012926D01*
X018877Y012923D01*
X018852Y012924D01*
X018827Y012929D01*
X018804Y012938D01*
X018782Y012951D01*
X018762Y012967D01*
X018745Y012986D01*
X018732Y013007D01*
X018722Y013030D01*
X018716Y013055D01*
X018714Y013080D01*
X020214Y010580D02*
X020216Y010605D01*
X020222Y010630D01*
X020232Y010653D01*
X020245Y010674D01*
X020262Y010693D01*
X020282Y010709D01*
X020304Y010722D01*
X020327Y010731D01*
X020352Y010736D01*
X020377Y010737D01*
X020402Y010734D01*
X020427Y010727D01*
X020449Y010716D01*
X020470Y010702D01*
X020489Y010684D01*
X020504Y010664D01*
X020515Y010642D01*
X020523Y010618D01*
X020527Y010593D01*
X020527Y010567D01*
X020523Y010542D01*
X020515Y010518D01*
X020504Y010496D01*
X020489Y010476D01*
X020470Y010458D01*
X020450Y010444D01*
X020427Y010433D01*
X020402Y010426D01*
X020377Y010423D01*
X020352Y010424D01*
X020327Y010429D01*
X020304Y010438D01*
X020282Y010451D01*
X020262Y010467D01*
X020245Y010486D01*
X020232Y010507D01*
X020222Y010530D01*
X020216Y010555D01*
X020214Y010580D01*
X020214Y006080D02*
X020216Y006105D01*
X020222Y006130D01*
X020232Y006153D01*
X020245Y006174D01*
X020262Y006193D01*
X020282Y006209D01*
X020304Y006222D01*
X020327Y006231D01*
X020352Y006236D01*
X020377Y006237D01*
X020402Y006234D01*
X020427Y006227D01*
X020449Y006216D01*
X020470Y006202D01*
X020489Y006184D01*
X020504Y006164D01*
X020515Y006142D01*
X020523Y006118D01*
X020527Y006093D01*
X020527Y006067D01*
X020523Y006042D01*
X020515Y006018D01*
X020504Y005996D01*
X020489Y005976D01*
X020470Y005958D01*
X020450Y005944D01*
X020427Y005933D01*
X020402Y005926D01*
X020377Y005923D01*
X020352Y005924D01*
X020327Y005929D01*
X020304Y005938D01*
X020282Y005951D01*
X020262Y005967D01*
X020245Y005986D01*
X020232Y006007D01*
X020222Y006030D01*
X020216Y006055D01*
X020214Y006080D01*
X027714Y006080D02*
X027716Y006105D01*
X027722Y006130D01*
X027732Y006153D01*
X027745Y006174D01*
X027762Y006193D01*
X027782Y006209D01*
X027804Y006222D01*
X027827Y006231D01*
X027852Y006236D01*
X027877Y006237D01*
X027902Y006234D01*
X027927Y006227D01*
X027949Y006216D01*
X027970Y006202D01*
X027989Y006184D01*
X028004Y006164D01*
X028015Y006142D01*
X028023Y006118D01*
X028027Y006093D01*
X028027Y006067D01*
X028023Y006042D01*
X028015Y006018D01*
X028004Y005996D01*
X027989Y005976D01*
X027970Y005958D01*
X027950Y005944D01*
X027927Y005933D01*
X027902Y005926D01*
X027877Y005923D01*
X027852Y005924D01*
X027827Y005929D01*
X027804Y005938D01*
X027782Y005951D01*
X027762Y005967D01*
X027745Y005986D01*
X027732Y006007D01*
X027722Y006030D01*
X027716Y006055D01*
X027714Y006080D01*
X030714Y006080D02*
X030716Y006105D01*
X030722Y006130D01*
X030732Y006153D01*
X030745Y006174D01*
X030762Y006193D01*
X030782Y006209D01*
X030804Y006222D01*
X030827Y006231D01*
X030852Y006236D01*
X030877Y006237D01*
X030902Y006234D01*
X030927Y006227D01*
X030949Y006216D01*
X030970Y006202D01*
X030989Y006184D01*
X031004Y006164D01*
X031015Y006142D01*
X031023Y006118D01*
X031027Y006093D01*
X031027Y006067D01*
X031023Y006042D01*
X031015Y006018D01*
X031004Y005996D01*
X030989Y005976D01*
X030970Y005958D01*
X030950Y005944D01*
X030927Y005933D01*
X030902Y005926D01*
X030877Y005923D01*
X030852Y005924D01*
X030827Y005929D01*
X030804Y005938D01*
X030782Y005951D01*
X030762Y005967D01*
X030745Y005986D01*
X030732Y006007D01*
X030722Y006030D01*
X030716Y006055D01*
X030714Y006080D01*
X030714Y010580D02*
X030716Y010605D01*
X030722Y010630D01*
X030732Y010653D01*
X030745Y010674D01*
X030762Y010693D01*
X030782Y010709D01*
X030804Y010722D01*
X030827Y010731D01*
X030852Y010736D01*
X030877Y010737D01*
X030902Y010734D01*
X030927Y010727D01*
X030949Y010716D01*
X030970Y010702D01*
X030989Y010684D01*
X031004Y010664D01*
X031015Y010642D01*
X031023Y010618D01*
X031027Y010593D01*
X031027Y010567D01*
X031023Y010542D01*
X031015Y010518D01*
X031004Y010496D01*
X030989Y010476D01*
X030970Y010458D01*
X030950Y010444D01*
X030927Y010433D01*
X030902Y010426D01*
X030877Y010423D01*
X030852Y010424D01*
X030827Y010429D01*
X030804Y010438D01*
X030782Y010451D01*
X030762Y010467D01*
X030745Y010486D01*
X030732Y010507D01*
X030722Y010530D01*
X030716Y010555D01*
X030714Y010580D01*
X030714Y013580D02*
X030716Y013605D01*
X030722Y013630D01*
X030732Y013653D01*
X030745Y013674D01*
X030762Y013693D01*
X030782Y013709D01*
X030804Y013722D01*
X030827Y013731D01*
X030852Y013736D01*
X030877Y013737D01*
X030902Y013734D01*
X030927Y013727D01*
X030949Y013716D01*
X030970Y013702D01*
X030989Y013684D01*
X031004Y013664D01*
X031015Y013642D01*
X031023Y013618D01*
X031027Y013593D01*
X031027Y013567D01*
X031023Y013542D01*
X031015Y013518D01*
X031004Y013496D01*
X030989Y013476D01*
X030970Y013458D01*
X030950Y013444D01*
X030927Y013433D01*
X030902Y013426D01*
X030877Y013423D01*
X030852Y013424D01*
X030827Y013429D01*
X030804Y013438D01*
X030782Y013451D01*
X030762Y013467D01*
X030745Y013486D01*
X030732Y013507D01*
X030722Y013530D01*
X030716Y013555D01*
X030714Y013580D01*
D17*
X029821Y009580D03*
X027921Y009580D03*
D18*
X027871Y008080D03*
X027871Y007080D03*
X029871Y007080D03*
X029871Y008080D03*
X026871Y005080D03*
X022871Y005080D03*
X021371Y004080D03*
X021371Y006080D03*
X027871Y011580D03*
X027871Y012580D03*
X027871Y013580D03*
X029871Y013580D03*
X029871Y012580D03*
X029871Y011580D03*
X015871Y019580D03*
X015871Y020580D03*
X012871Y020580D03*
X012871Y019580D03*
X012871Y018080D03*
X012871Y017080D03*
X014371Y017080D03*
X014371Y018080D03*
X011371Y018080D03*
X011371Y017080D03*
X009871Y019580D03*
X009871Y020580D03*
X007871Y013580D03*
X005871Y013580D03*
X011371Y005080D03*
X011371Y003080D03*
D19*
X013371Y003580D03*
X028871Y004080D03*
D20*
X027871Y004080D03*
X013371Y004580D03*
D21*
X014371Y006580D03*
X014371Y007580D03*
X014371Y008580D03*
X014371Y009580D03*
X014371Y010580D03*
X014371Y011580D03*
X014371Y012580D03*
X014371Y013580D03*
X014371Y014580D03*
X014371Y015580D03*
X011371Y015580D03*
X011371Y014580D03*
X011371Y013580D03*
X011371Y012580D03*
X011371Y011580D03*
X011371Y010580D03*
X011371Y009580D03*
X011371Y008580D03*
X011371Y007580D03*
X011371Y006580D03*
X002871Y009580D03*
X002871Y011580D03*
X002871Y012580D03*
X022871Y012580D03*
X022871Y011580D03*
X022871Y010580D03*
X022871Y009580D03*
X022871Y008580D03*
X022871Y007580D03*
X022871Y006580D03*
X025871Y006580D03*
X025871Y007580D03*
X025871Y008580D03*
X025871Y009580D03*
X025871Y010580D03*
X025871Y011580D03*
X025871Y012580D03*
X025871Y013580D03*
X025871Y014580D03*
X025871Y015580D03*
X022871Y015580D03*
X022871Y014580D03*
X022871Y013580D03*
D22*
X028871Y014580D03*
X029871Y014580D03*
X029871Y018580D03*
X028871Y018580D03*
D23*
X009871Y012580D03*
X009871Y011580D03*
D24*
X009871Y009580D03*
X009871Y006080D03*
X004371Y009580D03*
X004371Y012580D03*
X003371Y014580D03*
X006871Y014580D03*
X016121Y013080D03*
X016871Y014080D03*
X018871Y014080D03*
X018871Y013080D03*
X020371Y010580D03*
X020371Y006080D03*
X027871Y006080D03*
X030871Y006080D03*
X030871Y010580D03*
X032091Y012588D03*
X032871Y012588D03*
X032871Y013572D03*
X032091Y013572D03*
X030871Y013580D03*
D25*
X033941Y015450D03*
X033941Y010710D03*
D26*
X018871Y010080D03*
X017871Y010080D03*
X017871Y009080D03*
X018871Y009080D03*
X018871Y008080D03*
X017871Y008080D03*
X017871Y007080D03*
X018871Y007080D03*
X018871Y006080D03*
X017871Y006080D03*
X007371Y006080D03*
X006371Y006080D03*
X006371Y007080D03*
X007371Y007080D03*
X007371Y008080D03*
X006371Y008080D03*
X006371Y009080D03*
X007371Y009080D03*
X007371Y010080D03*
X006371Y010080D03*
D27*
X005871Y015580D03*
D28*
X005871Y017580D03*
D29*
X004371Y017580D01*
X007371Y020580D01*
X009871Y020580D01*
X012871Y020580D01*
X015871Y020580D01*
X016246Y020580D01*
X017871Y018955D01*
X017871Y018580D01*
X017871Y015580D01*
X014371Y015580D01*
X017871Y015580D02*
X017871Y010080D01*
X017871Y009080D01*
X017871Y008080D01*
X017871Y007080D01*
X021371Y004080D02*
X021371Y003080D01*
X028371Y003080D01*
X028871Y003580D01*
X028871Y004080D01*
X028871Y007080D01*
X027871Y007080D01*
X028871Y007080D02*
X029871Y007080D01*
X021371Y003080D02*
X013371Y003080D01*
X013371Y003580D01*
X013371Y003080D02*
X011371Y003080D01*
X006371Y003080D01*
X001871Y007580D01*
X001871Y012580D01*
X001871Y014580D01*
X001871Y015080D01*
X004371Y017580D01*
X003371Y014580D02*
X001871Y014580D01*
X001871Y012580D02*
X002871Y012580D01*
X006371Y012580D02*
X006871Y013080D01*
X006871Y014580D01*
X009371Y014580D01*
X009871Y014080D01*
X009871Y012580D01*
X006371Y012580D02*
X006371Y010080D01*
X006371Y009080D01*
X006371Y008080D01*
X006371Y007080D01*
X017871Y018580D02*
X025871Y018580D01*
X025871Y015580D01*
X025871Y018580D02*
X028871Y018580D01*
X029871Y018580D01*
X032371Y018580D01*
X032871Y018080D01*
X032871Y013572D01*
D30*
X032921Y013617D02*
X034506Y013617D01*
X034506Y013518D02*
X032921Y013518D01*
X032921Y013420D02*
X034506Y013420D01*
X034506Y013321D02*
X033269Y013321D01*
X033341Y013292D02*
X033036Y013418D01*
X032921Y013418D01*
X032921Y013737D01*
X032794Y014042D01*
X032561Y014276D01*
X032256Y014402D01*
X031926Y014402D01*
X031732Y014322D01*
X031248Y014322D01*
X031036Y014410D01*
X030751Y014410D01*
X030751Y014755D01*
X030617Y015079D01*
X030369Y015326D01*
X030046Y015460D01*
X029696Y015460D01*
X029372Y015326D01*
X029371Y015325D01*
X029369Y015326D01*
X029046Y015460D01*
X028696Y015460D01*
X028372Y015326D01*
X028125Y015079D01*
X027991Y014755D01*
X027991Y014405D01*
X027997Y014390D01*
X027535Y014390D01*
X027435Y014290D01*
X026941Y014290D01*
X026941Y014916D01*
X026466Y015390D01*
X025275Y015390D01*
X024801Y014916D01*
X024801Y014654D01*
X024665Y014790D01*
X023941Y014790D01*
X023941Y014916D01*
X023776Y015080D01*
X023941Y015245D01*
X023941Y015916D01*
X023466Y016390D01*
X022275Y016390D01*
X021801Y015916D01*
X021801Y015245D01*
X021965Y015080D01*
X021801Y014916D01*
X021801Y014790D01*
X019326Y014790D01*
X019036Y014910D01*
X018706Y014910D01*
X018401Y014784D01*
X018167Y014550D01*
X018041Y014245D01*
X018041Y013915D01*
X018167Y013610D01*
X018197Y013580D01*
X018167Y013550D01*
X018041Y013245D01*
X018041Y012915D01*
X018167Y012610D01*
X018401Y012376D01*
X018706Y012250D01*
X019036Y012250D01*
X019326Y012370D01*
X021801Y012370D01*
X021801Y012245D01*
X021965Y012080D01*
X021801Y011916D01*
X021801Y011245D01*
X021965Y011080D01*
X021801Y010916D01*
X021801Y010290D01*
X021665Y010290D01*
X021194Y010761D01*
X021074Y011050D01*
X020841Y011284D01*
X020536Y011410D01*
X020206Y011410D01*
X019901Y011284D01*
X019667Y011050D01*
X019559Y010790D01*
X019334Y010790D01*
X019214Y010910D01*
X018527Y010910D01*
X018041Y010424D01*
X018041Y009736D01*
X018197Y009580D01*
X018041Y009424D01*
X018041Y008736D01*
X018197Y008580D01*
X018041Y008424D01*
X018041Y007736D01*
X018197Y007580D01*
X018041Y007424D01*
X018041Y006910D01*
X017527Y006910D01*
X017041Y006424D01*
X017041Y005830D01*
X015026Y005830D01*
X015441Y006245D01*
X015441Y006870D01*
X016665Y006870D01*
X017081Y007286D01*
X017581Y007786D01*
X017581Y008374D01*
X017581Y013625D01*
X017701Y013915D01*
X017701Y014245D01*
X017574Y014550D01*
X017341Y014784D01*
X017036Y014910D01*
X016706Y014910D01*
X016401Y014784D01*
X016167Y014550D01*
X016041Y014245D01*
X016041Y013915D01*
X016043Y013910D01*
X015956Y013910D01*
X015651Y013784D01*
X015441Y013574D01*
X015441Y013916D01*
X015276Y014080D01*
X015441Y014245D01*
X015441Y014916D01*
X014966Y015390D01*
X014081Y015390D01*
X014081Y016270D01*
X014706Y016270D01*
X015181Y016745D01*
X015181Y017416D01*
X015016Y017580D01*
X015181Y017745D01*
X015181Y018416D01*
X015081Y018516D01*
X015081Y018786D01*
X015165Y018870D01*
X015435Y018870D01*
X015535Y018770D01*
X016206Y018770D01*
X016681Y019245D01*
X016681Y019916D01*
X016206Y020390D01*
X015535Y020390D01*
X015435Y020290D01*
X014577Y020290D01*
X014161Y019874D01*
X013681Y019394D01*
X013681Y019916D01*
X013206Y020390D01*
X012535Y020390D01*
X012061Y019916D01*
X012061Y019394D01*
X011581Y019874D01*
X011165Y020290D01*
X010306Y020290D01*
X010206Y020390D01*
X009535Y020390D01*
X009061Y019916D01*
X009061Y019245D01*
X009535Y018770D01*
X010206Y018770D01*
X010306Y018870D01*
X010577Y018870D01*
X010661Y018786D01*
X010661Y018516D01*
X010561Y018416D01*
X010561Y017745D01*
X010725Y017580D01*
X010561Y017416D01*
X010561Y016745D01*
X010915Y016390D01*
X010815Y016390D01*
X009915Y017290D01*
X009327Y017290D01*
X004577Y017290D01*
X004161Y016874D01*
X003661Y016374D01*
X003661Y015786D01*
X003661Y013035D01*
X003541Y012745D01*
X003541Y012415D01*
X003576Y012330D01*
X003526Y012330D01*
X003466Y012390D01*
X002275Y012390D01*
X001801Y011916D01*
X001801Y011245D01*
X002275Y010770D01*
X003466Y010770D01*
X003526Y010830D01*
X004871Y010830D01*
X004871Y010254D01*
X004841Y010284D01*
X004536Y010410D01*
X004206Y010410D01*
X003916Y010290D01*
X003566Y010290D01*
X003466Y010390D01*
X002275Y010390D01*
X001801Y009916D01*
X001801Y009245D01*
X002275Y008770D01*
X003466Y008770D01*
X003566Y008870D01*
X003916Y008870D01*
X004206Y008750D01*
X004536Y008750D01*
X004841Y008876D01*
X004871Y008906D01*
X004871Y006391D01*
X004871Y005769D01*
X004871Y005766D01*
X004871Y005144D01*
X005246Y004769D01*
X005685Y004330D01*
X010975Y004330D01*
X011035Y004270D01*
X011706Y004270D01*
X011766Y004330D01*
X012538Y004330D01*
X012637Y004090D01*
X012881Y003847D01*
X013199Y003715D01*
X013543Y003715D01*
X013861Y003847D01*
X014104Y004090D01*
X014203Y004330D01*
X017560Y004330D01*
X018181Y004330D01*
X021060Y004330D01*
X021681Y004330D01*
X022475Y004330D01*
X022535Y004270D01*
X022620Y004270D01*
X023560Y003330D01*
X024181Y003330D01*
X027421Y003330D01*
X027699Y003215D01*
X028043Y003215D01*
X028361Y003347D01*
X028604Y003590D01*
X028736Y003908D01*
X028736Y004252D01*
X028621Y004530D01*
X028621Y005722D01*
X028701Y005915D01*
X028701Y006245D01*
X028574Y006550D01*
X028341Y006784D01*
X028036Y006910D01*
X027706Y006910D01*
X027401Y006784D01*
X027286Y006669D01*
X027165Y006790D01*
X026825Y007129D01*
X026941Y007245D01*
X026941Y007916D01*
X026776Y008080D01*
X026941Y008245D01*
X026941Y008870D01*
X027161Y008870D01*
X027161Y008516D01*
X027061Y008416D01*
X027061Y007745D01*
X027535Y007270D01*
X028206Y007270D01*
X028681Y007745D01*
X028681Y008416D01*
X028581Y008516D01*
X028581Y009095D01*
X028607Y009121D01*
X028731Y009419D01*
X028731Y009741D01*
X028677Y009870D01*
X029064Y009870D01*
X029011Y009741D01*
X029011Y009419D01*
X029134Y009121D01*
X029161Y009095D01*
X029161Y008516D01*
X029061Y008416D01*
X029061Y007745D01*
X029535Y007270D01*
X030121Y007270D01*
X030121Y006438D01*
X030041Y006245D01*
X030041Y005915D01*
X030167Y005610D01*
X030401Y005376D01*
X030706Y005250D01*
X031036Y005250D01*
X031341Y005376D01*
X031574Y005610D01*
X031701Y005915D01*
X031701Y006245D01*
X031621Y006438D01*
X031621Y010222D01*
X031701Y010415D01*
X031701Y010745D01*
X031649Y010870D01*
X032327Y010870D01*
X032741Y010870D01*
X032741Y010471D01*
X032923Y010030D01*
X033261Y009693D01*
X033702Y009510D01*
X034179Y009510D01*
X034506Y009645D01*
X034506Y004811D01*
X034145Y004960D01*
X033596Y004960D01*
X033089Y004750D01*
X032701Y004362D01*
X032491Y003855D01*
X032491Y003306D01*
X032666Y002882D01*
X003575Y002882D01*
X003751Y003306D01*
X003751Y003855D01*
X003541Y004362D01*
X003152Y004750D01*
X002645Y004960D01*
X002096Y004960D01*
X001736Y004811D01*
X001736Y018850D01*
X002096Y018700D01*
X002645Y018700D01*
X003152Y018910D01*
X003541Y019298D01*
X003751Y019806D01*
X003751Y020355D01*
X003575Y020778D01*
X021946Y020778D01*
X021946Y018727D01*
X022268Y018405D01*
X031550Y018405D01*
X031872Y018727D01*
X031872Y020778D01*
X032666Y020778D01*
X032491Y020355D01*
X032491Y019806D01*
X032701Y019298D01*
X033089Y018910D01*
X033596Y018700D01*
X034145Y018700D01*
X034506Y018850D01*
X034506Y016515D01*
X034179Y016650D01*
X033702Y016650D01*
X033261Y016467D01*
X032923Y016130D01*
X032741Y015689D01*
X032741Y015211D01*
X032923Y014770D01*
X033261Y014433D01*
X033702Y014250D01*
X034179Y014250D01*
X034506Y014385D01*
X034506Y011775D01*
X034179Y011910D01*
X033702Y011910D01*
X033581Y011860D01*
X033581Y012133D01*
X033701Y012423D01*
X033701Y012753D01*
X033574Y013058D01*
X033341Y013292D01*
X033410Y013223D02*
X034506Y013223D01*
X034506Y013124D02*
X033508Y013124D01*
X033588Y013026D02*
X034506Y013026D01*
X034506Y012927D02*
X033629Y012927D01*
X033669Y012829D02*
X034506Y012829D01*
X034506Y012730D02*
X033701Y012730D01*
X033701Y012632D02*
X034506Y012632D01*
X034506Y012533D02*
X033701Y012533D01*
X033701Y012434D02*
X034506Y012434D01*
X034506Y012336D02*
X033665Y012336D01*
X033624Y012237D02*
X034506Y012237D01*
X034506Y012139D02*
X033583Y012139D01*
X033581Y012040D02*
X034506Y012040D01*
X034506Y011942D02*
X033581Y011942D01*
X034341Y011843D02*
X034506Y011843D01*
X032741Y010858D02*
X031654Y010858D01*
X031695Y010759D02*
X032741Y010759D01*
X032741Y010661D02*
X031701Y010661D01*
X031701Y010562D02*
X032741Y010562D01*
X032744Y010464D02*
X031701Y010464D01*
X031680Y010365D02*
X032785Y010365D01*
X032826Y010267D02*
X031639Y010267D01*
X031621Y010168D02*
X032866Y010168D01*
X032907Y010069D02*
X031621Y010069D01*
X031621Y009971D02*
X032983Y009971D01*
X033081Y009872D02*
X031621Y009872D01*
X031621Y009774D02*
X033180Y009774D01*
X033303Y009675D02*
X031621Y009675D01*
X031621Y009577D02*
X033541Y009577D01*
X034340Y009577D02*
X034506Y009577D01*
X034506Y009478D02*
X031621Y009478D01*
X031621Y009380D02*
X034506Y009380D01*
X034506Y009281D02*
X031621Y009281D01*
X031621Y009183D02*
X034506Y009183D01*
X034506Y009084D02*
X031621Y009084D01*
X031621Y008985D02*
X034506Y008985D01*
X034506Y008887D02*
X031621Y008887D01*
X031621Y008788D02*
X034506Y008788D01*
X034506Y008690D02*
X031621Y008690D01*
X031621Y008591D02*
X034506Y008591D01*
X034506Y008493D02*
X031621Y008493D01*
X031621Y008394D02*
X034506Y008394D01*
X034506Y008296D02*
X031621Y008296D01*
X031621Y008197D02*
X034506Y008197D01*
X034506Y008099D02*
X031621Y008099D01*
X031621Y008000D02*
X034506Y008000D01*
X034506Y007901D02*
X031621Y007901D01*
X031621Y007803D02*
X034506Y007803D01*
X034506Y007704D02*
X031621Y007704D01*
X031621Y007606D02*
X034506Y007606D01*
X034506Y007507D02*
X031621Y007507D01*
X031621Y007409D02*
X034506Y007409D01*
X034506Y007310D02*
X031621Y007310D01*
X031621Y007212D02*
X034506Y007212D01*
X034506Y007113D02*
X031621Y007113D01*
X031621Y007015D02*
X034506Y007015D01*
X034506Y006916D02*
X031621Y006916D01*
X031621Y006818D02*
X034506Y006818D01*
X034506Y006719D02*
X031621Y006719D01*
X031621Y006620D02*
X034506Y006620D01*
X034506Y006522D02*
X031621Y006522D01*
X031627Y006423D02*
X034506Y006423D01*
X034506Y006325D02*
X031668Y006325D01*
X031701Y006226D02*
X034506Y006226D01*
X034506Y006128D02*
X031701Y006128D01*
X031701Y006029D02*
X034506Y006029D01*
X034506Y005931D02*
X031701Y005931D01*
X031666Y005832D02*
X034506Y005832D01*
X034506Y005734D02*
X031625Y005734D01*
X031585Y005635D02*
X034506Y005635D01*
X034506Y005536D02*
X031501Y005536D01*
X031402Y005438D02*
X034506Y005438D01*
X034506Y005339D02*
X031251Y005339D01*
X030490Y005339D02*
X028621Y005339D01*
X028621Y005241D02*
X034506Y005241D01*
X034506Y005142D02*
X028621Y005142D01*
X028621Y005044D02*
X034506Y005044D01*
X034506Y004945D02*
X034181Y004945D01*
X034419Y004847D02*
X034506Y004847D01*
X033560Y004945D02*
X028621Y004945D01*
X028621Y004847D02*
X033322Y004847D01*
X033087Y004748D02*
X028621Y004748D01*
X028621Y004650D02*
X032989Y004650D01*
X032890Y004551D02*
X028621Y004551D01*
X028653Y004452D02*
X032792Y004452D01*
X032698Y004354D02*
X028694Y004354D01*
X028734Y004255D02*
X032657Y004255D01*
X032616Y004157D02*
X028736Y004157D01*
X028736Y004058D02*
X032575Y004058D01*
X032534Y003960D02*
X028736Y003960D01*
X028716Y003861D02*
X032494Y003861D01*
X032491Y003763D02*
X028675Y003763D01*
X028635Y003664D02*
X032491Y003664D01*
X032491Y003566D02*
X028579Y003566D01*
X028481Y003467D02*
X032491Y003467D01*
X032491Y003369D02*
X028382Y003369D01*
X028175Y003270D02*
X032506Y003270D01*
X032546Y003171D02*
X003695Y003171D01*
X003654Y003073D02*
X032587Y003073D01*
X032628Y002974D02*
X003613Y002974D01*
X003736Y003270D02*
X027566Y003270D01*
X028621Y005438D02*
X030339Y005438D01*
X030241Y005536D02*
X028621Y005536D01*
X028621Y005635D02*
X030157Y005635D01*
X030116Y005734D02*
X028625Y005734D01*
X028666Y005832D02*
X030075Y005832D01*
X030041Y005931D02*
X028701Y005931D01*
X028701Y006029D02*
X030041Y006029D01*
X030041Y006128D02*
X028701Y006128D01*
X028701Y006226D02*
X030041Y006226D01*
X030074Y006325D02*
X028668Y006325D01*
X028627Y006423D02*
X030114Y006423D01*
X030121Y006522D02*
X028586Y006522D01*
X028504Y006620D02*
X030121Y006620D01*
X030121Y006719D02*
X028406Y006719D01*
X028259Y006818D02*
X030121Y006818D01*
X030121Y006916D02*
X027039Y006916D01*
X027137Y006818D02*
X027482Y006818D01*
X027336Y006719D02*
X027236Y006719D01*
X026940Y007015D02*
X030121Y007015D01*
X030121Y007113D02*
X026842Y007113D01*
X026908Y007212D02*
X030121Y007212D01*
X029495Y007310D02*
X028246Y007310D01*
X028345Y007409D02*
X029397Y007409D01*
X029298Y007507D02*
X028443Y007507D01*
X028542Y007606D02*
X029199Y007606D01*
X029101Y007704D02*
X028640Y007704D01*
X028681Y007803D02*
X029061Y007803D01*
X029061Y007901D02*
X028681Y007901D01*
X028681Y008000D02*
X029061Y008000D01*
X029061Y008099D02*
X028681Y008099D01*
X028681Y008197D02*
X029061Y008197D01*
X029061Y008296D02*
X028681Y008296D01*
X028681Y008394D02*
X029061Y008394D01*
X029138Y008493D02*
X028604Y008493D01*
X028581Y008591D02*
X029161Y008591D01*
X029161Y008690D02*
X028581Y008690D01*
X028581Y008788D02*
X029161Y008788D01*
X029161Y008887D02*
X028581Y008887D01*
X028581Y008985D02*
X029161Y008985D01*
X029161Y009084D02*
X028581Y009084D01*
X028633Y009183D02*
X029109Y009183D01*
X029068Y009281D02*
X028674Y009281D01*
X028714Y009380D02*
X029027Y009380D01*
X029011Y009478D02*
X028731Y009478D01*
X028731Y009577D02*
X029011Y009577D01*
X029011Y009675D02*
X028731Y009675D01*
X028717Y009774D02*
X029024Y009774D01*
X027161Y008788D02*
X026941Y008788D01*
X026941Y008690D02*
X027161Y008690D01*
X027161Y008591D02*
X026941Y008591D01*
X026941Y008493D02*
X027138Y008493D01*
X027061Y008394D02*
X026941Y008394D01*
X026941Y008296D02*
X027061Y008296D01*
X027061Y008197D02*
X026893Y008197D01*
X026795Y008099D02*
X027061Y008099D01*
X027061Y008000D02*
X026856Y008000D01*
X026941Y007901D02*
X027061Y007901D01*
X027061Y007803D02*
X026941Y007803D01*
X026941Y007704D02*
X027101Y007704D01*
X027199Y007606D02*
X026941Y007606D01*
X026941Y007507D02*
X027298Y007507D01*
X027397Y007409D02*
X026941Y007409D01*
X026941Y007310D02*
X027495Y007310D01*
X022733Y004157D02*
X014132Y004157D01*
X014172Y004255D02*
X022635Y004255D01*
X022832Y004058D02*
X014072Y004058D01*
X013974Y003960D02*
X022930Y003960D01*
X023029Y003861D02*
X013875Y003861D01*
X013657Y003763D02*
X023128Y003763D01*
X023226Y003664D02*
X003751Y003664D01*
X003751Y003566D02*
X023325Y003566D01*
X023423Y003467D02*
X003751Y003467D01*
X003751Y003369D02*
X023522Y003369D01*
X018041Y006916D02*
X016711Y006916D01*
X016809Y007015D02*
X018041Y007015D01*
X018041Y007113D02*
X016908Y007113D01*
X017006Y007212D02*
X018041Y007212D01*
X018041Y007310D02*
X017105Y007310D01*
X017203Y007409D02*
X018041Y007409D01*
X018124Y007507D02*
X017302Y007507D01*
X017400Y007606D02*
X018171Y007606D01*
X018073Y007704D02*
X017499Y007704D01*
X017581Y007803D02*
X018041Y007803D01*
X018041Y007901D02*
X017581Y007901D01*
X017581Y008000D02*
X018041Y008000D01*
X018041Y008099D02*
X017581Y008099D01*
X017581Y008197D02*
X018041Y008197D01*
X018041Y008296D02*
X017581Y008296D01*
X017581Y008394D02*
X018041Y008394D01*
X018110Y008493D02*
X017581Y008493D01*
X017581Y008591D02*
X018186Y008591D01*
X018087Y008690D02*
X017581Y008690D01*
X017581Y008788D02*
X018041Y008788D01*
X018041Y008887D02*
X017581Y008887D01*
X017581Y008985D02*
X018041Y008985D01*
X018041Y009084D02*
X017581Y009084D01*
X017581Y009183D02*
X018041Y009183D01*
X018041Y009281D02*
X017581Y009281D01*
X017581Y009380D02*
X018041Y009380D01*
X018095Y009478D02*
X017581Y009478D01*
X017581Y009577D02*
X018194Y009577D01*
X018102Y009675D02*
X017581Y009675D01*
X017581Y009774D02*
X018041Y009774D01*
X018041Y009872D02*
X017581Y009872D01*
X017581Y009971D02*
X018041Y009971D01*
X018041Y010069D02*
X017581Y010069D01*
X017581Y010168D02*
X018041Y010168D01*
X018041Y010267D02*
X017581Y010267D01*
X017581Y010365D02*
X018041Y010365D01*
X018080Y010464D02*
X017581Y010464D01*
X017581Y010562D02*
X018179Y010562D01*
X018277Y010661D02*
X017581Y010661D01*
X017581Y010759D02*
X018376Y010759D01*
X018475Y010858D02*
X017581Y010858D01*
X017581Y010956D02*
X019628Y010956D01*
X019587Y010858D02*
X019267Y010858D01*
X019672Y011055D02*
X017581Y011055D01*
X017581Y011153D02*
X019770Y011153D01*
X019869Y011252D02*
X017581Y011252D01*
X017581Y011351D02*
X020062Y011351D01*
X020680Y011351D02*
X021801Y011351D01*
X021801Y011449D02*
X017581Y011449D01*
X017581Y011548D02*
X021801Y011548D01*
X021801Y011646D02*
X017581Y011646D01*
X017581Y011745D02*
X021801Y011745D01*
X021801Y011843D02*
X017581Y011843D01*
X017581Y011942D02*
X021827Y011942D01*
X021925Y012040D02*
X017581Y012040D01*
X017581Y012139D02*
X021906Y012139D01*
X021808Y012237D02*
X017581Y012237D01*
X017581Y012336D02*
X018498Y012336D01*
X018343Y012434D02*
X017581Y012434D01*
X017581Y012533D02*
X018244Y012533D01*
X018158Y012632D02*
X017581Y012632D01*
X017581Y012730D02*
X018117Y012730D01*
X018076Y012829D02*
X017581Y012829D01*
X017581Y012927D02*
X018041Y012927D01*
X018041Y013026D02*
X017581Y013026D01*
X017581Y013124D02*
X018041Y013124D01*
X018041Y013223D02*
X017581Y013223D01*
X017581Y013321D02*
X018072Y013321D01*
X018113Y013420D02*
X017581Y013420D01*
X017581Y013518D02*
X018154Y013518D01*
X018164Y013617D02*
X017581Y013617D01*
X017618Y013716D02*
X018123Y013716D01*
X018082Y013814D02*
X017659Y013814D01*
X017700Y013913D02*
X018042Y013913D01*
X018041Y014011D02*
X017701Y014011D01*
X017701Y014110D02*
X018041Y014110D01*
X018041Y014208D02*
X017701Y014208D01*
X017675Y014307D02*
X018066Y014307D01*
X018107Y014405D02*
X017634Y014405D01*
X017594Y014504D02*
X018148Y014504D01*
X018219Y014602D02*
X017522Y014602D01*
X017424Y014701D02*
X018318Y014701D01*
X018439Y014800D02*
X017303Y014800D01*
X017065Y014898D02*
X018677Y014898D01*
X019065Y014898D02*
X021801Y014898D01*
X021801Y014800D02*
X019303Y014800D01*
X021801Y015292D02*
X015064Y015292D01*
X015163Y015194D02*
X021852Y015194D01*
X021950Y015095D02*
X015261Y015095D01*
X015360Y014997D02*
X021882Y014997D01*
X021801Y015391D02*
X014081Y015391D01*
X014081Y015489D02*
X021801Y015489D01*
X021801Y015588D02*
X014081Y015588D01*
X014081Y015686D02*
X021801Y015686D01*
X021801Y015785D02*
X014081Y015785D01*
X014081Y015884D02*
X021801Y015884D01*
X021867Y015982D02*
X014081Y015982D01*
X014081Y016081D02*
X021966Y016081D01*
X022064Y016179D02*
X014081Y016179D01*
X014714Y016278D02*
X022163Y016278D01*
X022261Y016376D02*
X014812Y016376D01*
X014911Y016475D02*
X033279Y016475D01*
X033170Y016376D02*
X023480Y016376D01*
X023579Y016278D02*
X033071Y016278D01*
X032973Y016179D02*
X023677Y016179D01*
X023776Y016081D02*
X032903Y016081D01*
X032862Y015982D02*
X023874Y015982D01*
X023941Y015884D02*
X032821Y015884D01*
X032781Y015785D02*
X023941Y015785D01*
X023941Y015686D02*
X032741Y015686D01*
X032741Y015588D02*
X023941Y015588D01*
X023941Y015489D02*
X032741Y015489D01*
X032741Y015391D02*
X030213Y015391D01*
X030403Y015292D02*
X032741Y015292D01*
X032748Y015194D02*
X030502Y015194D01*
X030600Y015095D02*
X032789Y015095D01*
X032830Y014997D02*
X030651Y014997D01*
X030691Y014898D02*
X032870Y014898D01*
X032911Y014800D02*
X030732Y014800D01*
X030751Y014701D02*
X032993Y014701D01*
X033091Y014602D02*
X030751Y014602D01*
X030751Y014504D02*
X033190Y014504D01*
X033327Y014405D02*
X031047Y014405D01*
X032486Y014307D02*
X033565Y014307D01*
X034316Y014307D02*
X034506Y014307D01*
X034506Y014208D02*
X032628Y014208D01*
X032727Y014110D02*
X034506Y014110D01*
X034506Y014011D02*
X032807Y014011D01*
X032848Y013913D02*
X034506Y013913D01*
X034506Y013814D02*
X032889Y013814D01*
X032921Y013716D02*
X034506Y013716D01*
X034506Y016573D02*
X034365Y016573D01*
X034506Y016672D02*
X015108Y016672D01*
X015181Y016770D02*
X034506Y016770D01*
X034506Y016869D02*
X015181Y016869D01*
X015181Y016967D02*
X034506Y016967D01*
X034506Y017066D02*
X015181Y017066D01*
X015181Y017165D02*
X034506Y017165D01*
X034506Y017263D02*
X015181Y017263D01*
X015181Y017362D02*
X034506Y017362D01*
X034506Y017460D02*
X015136Y017460D01*
X015038Y017559D02*
X034506Y017559D01*
X034506Y017657D02*
X015093Y017657D01*
X015181Y017756D02*
X034506Y017756D01*
X034506Y017854D02*
X015181Y017854D01*
X015181Y017953D02*
X034506Y017953D01*
X034506Y018051D02*
X015181Y018051D01*
X015181Y018150D02*
X034506Y018150D01*
X034506Y018249D02*
X015181Y018249D01*
X015181Y018347D02*
X034506Y018347D01*
X034506Y018446D02*
X031591Y018446D01*
X031689Y018544D02*
X034506Y018544D01*
X034506Y018643D02*
X031788Y018643D01*
X031872Y018741D02*
X033497Y018741D01*
X033259Y018840D02*
X031872Y018840D01*
X031872Y018938D02*
X033061Y018938D01*
X032962Y019037D02*
X031872Y019037D01*
X031872Y019135D02*
X032864Y019135D01*
X032765Y019234D02*
X031872Y019234D01*
X031872Y019333D02*
X032687Y019333D01*
X032646Y019431D02*
X031872Y019431D01*
X031872Y019530D02*
X032605Y019530D01*
X032564Y019628D02*
X031872Y019628D01*
X031872Y019727D02*
X032523Y019727D01*
X032491Y019825D02*
X031872Y019825D01*
X031872Y019924D02*
X032491Y019924D01*
X032491Y020022D02*
X031872Y020022D01*
X031872Y020121D02*
X032491Y020121D01*
X032491Y020219D02*
X031872Y020219D01*
X031872Y020318D02*
X032491Y020318D01*
X032516Y020416D02*
X031872Y020416D01*
X031872Y020515D02*
X032557Y020515D01*
X032598Y020614D02*
X031872Y020614D01*
X031872Y020712D02*
X032639Y020712D01*
X034244Y018741D02*
X034506Y018741D01*
X034506Y018840D02*
X034482Y018840D01*
X033517Y016573D02*
X015009Y016573D01*
X015441Y014898D02*
X016677Y014898D01*
X016439Y014800D02*
X015441Y014800D01*
X015441Y014701D02*
X016318Y014701D01*
X016219Y014602D02*
X015441Y014602D01*
X015441Y014504D02*
X016148Y014504D01*
X016107Y014405D02*
X015441Y014405D01*
X015441Y014307D02*
X016066Y014307D01*
X016041Y014208D02*
X015404Y014208D01*
X015306Y014110D02*
X016041Y014110D01*
X016041Y014011D02*
X015345Y014011D01*
X015441Y013913D02*
X016042Y013913D01*
X015724Y013814D02*
X015441Y013814D01*
X015441Y013716D02*
X015582Y013716D01*
X015484Y013617D02*
X015441Y013617D01*
X019243Y012336D02*
X021801Y012336D01*
X021801Y011252D02*
X020873Y011252D01*
X020971Y011153D02*
X021892Y011153D01*
X021940Y011055D02*
X021070Y011055D01*
X021113Y010956D02*
X021841Y010956D01*
X021801Y010858D02*
X021154Y010858D01*
X021196Y010759D02*
X021801Y010759D01*
X021801Y010661D02*
X021294Y010661D01*
X021393Y010562D02*
X021801Y010562D01*
X021801Y010464D02*
X021491Y010464D01*
X021590Y010365D02*
X021801Y010365D01*
X017434Y006818D02*
X015441Y006818D01*
X015441Y006719D02*
X017336Y006719D01*
X017237Y006620D02*
X015441Y006620D01*
X015441Y006522D02*
X017139Y006522D01*
X017041Y006423D02*
X015441Y006423D01*
X015441Y006325D02*
X017041Y006325D01*
X017041Y006226D02*
X015422Y006226D01*
X015324Y006128D02*
X017041Y006128D01*
X017041Y006029D02*
X015225Y006029D01*
X015127Y005931D02*
X017041Y005931D01*
X017041Y005832D02*
X015028Y005832D01*
X012569Y004255D02*
X003585Y004255D01*
X003625Y004157D02*
X012610Y004157D01*
X012669Y004058D02*
X003666Y004058D01*
X003707Y003960D02*
X012768Y003960D01*
X012866Y003861D02*
X003748Y003861D01*
X003751Y003763D02*
X013084Y003763D01*
X006541Y006910D02*
X006371Y006910D01*
X006371Y008133D01*
X006541Y007963D01*
X006541Y007736D01*
X006697Y007580D01*
X006541Y007424D01*
X006541Y006910D01*
X006541Y006916D02*
X006371Y006916D01*
X006371Y007015D02*
X006541Y007015D01*
X006541Y007113D02*
X006371Y007113D01*
X006371Y007212D02*
X006541Y007212D01*
X006541Y007310D02*
X006371Y007310D01*
X006371Y007409D02*
X006541Y007409D01*
X006624Y007507D02*
X006371Y007507D01*
X006371Y007606D02*
X006671Y007606D01*
X006573Y007704D02*
X006371Y007704D01*
X006371Y007803D02*
X006541Y007803D01*
X006541Y007901D02*
X006371Y007901D01*
X006371Y008000D02*
X006503Y008000D01*
X006405Y008099D02*
X006371Y008099D01*
X004871Y008099D02*
X001736Y008099D01*
X001736Y008197D02*
X004871Y008197D01*
X004871Y008296D02*
X001736Y008296D01*
X001736Y008394D02*
X004871Y008394D01*
X004871Y008493D02*
X001736Y008493D01*
X001736Y008591D02*
X004871Y008591D01*
X004871Y008690D02*
X001736Y008690D01*
X001736Y008788D02*
X002257Y008788D01*
X002158Y008887D02*
X001736Y008887D01*
X001736Y008985D02*
X002060Y008985D01*
X001961Y009084D02*
X001736Y009084D01*
X001736Y009183D02*
X001863Y009183D01*
X001801Y009281D02*
X001736Y009281D01*
X001736Y009380D02*
X001801Y009380D01*
X001801Y009478D02*
X001736Y009478D01*
X001736Y009577D02*
X001801Y009577D01*
X001801Y009675D02*
X001736Y009675D01*
X001736Y009774D02*
X001801Y009774D01*
X001801Y009872D02*
X001736Y009872D01*
X001736Y009971D02*
X001856Y009971D01*
X001955Y010069D02*
X001736Y010069D01*
X001736Y010168D02*
X002053Y010168D01*
X002152Y010267D02*
X001736Y010267D01*
X001736Y010365D02*
X002250Y010365D01*
X001736Y010464D02*
X004871Y010464D01*
X004871Y010562D02*
X001736Y010562D01*
X001736Y010661D02*
X004871Y010661D01*
X004871Y010759D02*
X001736Y010759D01*
X001736Y010858D02*
X002188Y010858D01*
X002089Y010956D02*
X001736Y010956D01*
X001736Y011055D02*
X001990Y011055D01*
X001892Y011153D02*
X001736Y011153D01*
X001736Y011252D02*
X001801Y011252D01*
X001801Y011351D02*
X001736Y011351D01*
X001736Y011449D02*
X001801Y011449D01*
X001801Y011548D02*
X001736Y011548D01*
X001736Y011646D02*
X001801Y011646D01*
X001801Y011745D02*
X001736Y011745D01*
X001736Y011843D02*
X001801Y011843D01*
X001827Y011942D02*
X001736Y011942D01*
X001736Y012040D02*
X001925Y012040D01*
X002024Y012139D02*
X001736Y012139D01*
X001736Y012237D02*
X002122Y012237D01*
X002221Y012336D02*
X001736Y012336D01*
X001736Y012434D02*
X003541Y012434D01*
X003541Y012533D02*
X001736Y012533D01*
X001736Y012632D02*
X003541Y012632D01*
X003541Y012730D02*
X001736Y012730D01*
X001736Y012829D02*
X003575Y012829D01*
X003616Y012927D02*
X001736Y012927D01*
X001736Y013026D02*
X003657Y013026D01*
X003661Y013124D02*
X001736Y013124D01*
X001736Y013223D02*
X003661Y013223D01*
X003661Y013321D02*
X001736Y013321D01*
X001736Y013420D02*
X003661Y013420D01*
X003661Y013518D02*
X001736Y013518D01*
X001736Y013617D02*
X003661Y013617D01*
X003661Y013716D02*
X001736Y013716D01*
X001736Y013814D02*
X003661Y013814D01*
X003661Y013913D02*
X001736Y013913D01*
X001736Y014011D02*
X003661Y014011D01*
X003661Y014110D02*
X001736Y014110D01*
X001736Y014208D02*
X003661Y014208D01*
X003661Y014307D02*
X001736Y014307D01*
X001736Y014405D02*
X003661Y014405D01*
X003661Y014504D02*
X001736Y014504D01*
X001736Y014602D02*
X003661Y014602D01*
X003661Y014701D02*
X001736Y014701D01*
X001736Y014800D02*
X003661Y014800D01*
X003661Y014898D02*
X001736Y014898D01*
X001736Y014997D02*
X003661Y014997D01*
X003661Y015095D02*
X001736Y015095D01*
X001736Y015194D02*
X003661Y015194D01*
X003661Y015292D02*
X001736Y015292D01*
X001736Y015391D02*
X003661Y015391D01*
X003661Y015489D02*
X001736Y015489D01*
X001736Y015588D02*
X003661Y015588D01*
X003661Y015686D02*
X001736Y015686D01*
X001736Y015785D02*
X003661Y015785D01*
X003661Y015884D02*
X001736Y015884D01*
X001736Y015982D02*
X003661Y015982D01*
X003661Y016081D02*
X001736Y016081D01*
X001736Y016179D02*
X003661Y016179D01*
X003661Y016278D02*
X001736Y016278D01*
X001736Y016376D02*
X003663Y016376D01*
X003761Y016475D02*
X001736Y016475D01*
X001736Y016573D02*
X003860Y016573D01*
X003958Y016672D02*
X001736Y016672D01*
X001736Y016770D02*
X004057Y016770D01*
X004155Y016869D02*
X001736Y016869D01*
X001736Y016967D02*
X004254Y016967D01*
X004353Y017066D02*
X001736Y017066D01*
X001736Y017165D02*
X004451Y017165D01*
X004550Y017263D02*
X001736Y017263D01*
X001736Y017362D02*
X010561Y017362D01*
X010561Y017263D02*
X009942Y017263D01*
X010040Y017165D02*
X010561Y017165D01*
X010561Y017066D02*
X010139Y017066D01*
X010237Y016967D02*
X010561Y016967D01*
X010561Y016869D02*
X010336Y016869D01*
X010434Y016770D02*
X010561Y016770D01*
X010533Y016672D02*
X010634Y016672D01*
X010632Y016573D02*
X010732Y016573D01*
X010730Y016475D02*
X010831Y016475D01*
X009609Y015588D02*
X006921Y015588D01*
X006921Y015686D02*
X009510Y015686D01*
X009412Y015785D02*
X006921Y015785D01*
X006921Y015789D02*
X006887Y015870D01*
X009327Y015870D01*
X009911Y015286D01*
X010301Y014896D01*
X010301Y014245D01*
X010465Y014080D01*
X010301Y013916D01*
X010301Y013245D01*
X010465Y013080D01*
X010301Y012916D01*
X010301Y012410D01*
X009247Y012410D01*
X008761Y011924D01*
X008761Y011236D01*
X009247Y010750D01*
X010301Y010750D01*
X010301Y010300D01*
X010036Y010410D01*
X009706Y010410D01*
X009401Y010284D01*
X009286Y010169D01*
X009081Y010374D01*
X008665Y010790D01*
X007834Y010790D01*
X007714Y010910D01*
X007501Y010910D01*
X007501Y011206D01*
X008581Y012286D01*
X008581Y012874D01*
X008581Y013145D01*
X008681Y013245D01*
X008681Y013916D01*
X008206Y014390D01*
X007535Y014390D01*
X007061Y013916D01*
X007061Y013245D01*
X007161Y013145D01*
X007161Y012874D01*
X006411Y012124D01*
X006411Y012068D01*
X006371Y012028D01*
X006371Y012935D01*
X006681Y013245D01*
X006681Y013916D01*
X006621Y013976D01*
X006621Y014845D01*
X006761Y014985D01*
X006921Y015371D01*
X006921Y015789D01*
X006921Y015489D02*
X009707Y015489D01*
X009806Y015391D02*
X006921Y015391D01*
X006888Y015292D02*
X009905Y015292D01*
X010003Y015194D02*
X006847Y015194D01*
X006806Y015095D02*
X010102Y015095D01*
X010200Y014997D02*
X006765Y014997D01*
X006674Y014898D02*
X010299Y014898D01*
X010301Y014800D02*
X006621Y014800D01*
X006621Y014701D02*
X010301Y014701D01*
X010301Y014602D02*
X006621Y014602D01*
X006621Y014504D02*
X010301Y014504D01*
X010301Y014405D02*
X006621Y014405D01*
X006621Y014307D02*
X007452Y014307D01*
X007353Y014208D02*
X006621Y014208D01*
X006621Y014110D02*
X007255Y014110D01*
X007156Y014011D02*
X006621Y014011D01*
X006681Y013913D02*
X007061Y013913D01*
X007061Y013814D02*
X006681Y013814D01*
X006681Y013716D02*
X007061Y013716D01*
X007061Y013617D02*
X006681Y013617D01*
X006681Y013518D02*
X007061Y013518D01*
X007061Y013420D02*
X006681Y013420D01*
X006681Y013321D02*
X007061Y013321D01*
X007083Y013223D02*
X006659Y013223D01*
X006560Y013124D02*
X007161Y013124D01*
X007161Y013026D02*
X006462Y013026D01*
X006371Y012927D02*
X007161Y012927D01*
X007115Y012829D02*
X006371Y012829D01*
X006371Y012730D02*
X007017Y012730D01*
X006918Y012632D02*
X006371Y012632D01*
X006371Y012533D02*
X006820Y012533D01*
X006721Y012434D02*
X006371Y012434D01*
X006371Y012336D02*
X006622Y012336D01*
X006524Y012237D02*
X006371Y012237D01*
X006371Y012139D02*
X006425Y012139D01*
X006383Y012040D02*
X006371Y012040D01*
X007547Y011252D02*
X008761Y011252D01*
X008761Y011351D02*
X007645Y011351D01*
X007744Y011449D02*
X008761Y011449D01*
X008761Y011548D02*
X007842Y011548D01*
X007941Y011646D02*
X008761Y011646D01*
X008761Y011745D02*
X008039Y011745D01*
X008138Y011843D02*
X008761Y011843D01*
X008779Y011942D02*
X008236Y011942D01*
X008335Y012040D02*
X008877Y012040D01*
X008976Y012139D02*
X008433Y012139D01*
X008532Y012237D02*
X009074Y012237D01*
X009173Y012336D02*
X008581Y012336D01*
X008581Y012434D02*
X010301Y012434D01*
X010301Y012533D02*
X008581Y012533D01*
X008581Y012632D02*
X010301Y012632D01*
X010301Y012730D02*
X008581Y012730D01*
X008581Y012829D02*
X010301Y012829D01*
X010312Y012927D02*
X008581Y012927D01*
X008581Y013026D02*
X010411Y013026D01*
X010421Y013124D02*
X008581Y013124D01*
X008659Y013223D02*
X010323Y013223D01*
X010301Y013321D02*
X008681Y013321D01*
X008681Y013420D02*
X010301Y013420D01*
X010301Y013518D02*
X008681Y013518D01*
X008681Y013617D02*
X010301Y013617D01*
X010301Y013716D02*
X008681Y013716D01*
X008681Y013814D02*
X010301Y013814D01*
X010301Y013913D02*
X008681Y013913D01*
X008585Y014011D02*
X010396Y014011D01*
X010436Y014110D02*
X008487Y014110D01*
X008388Y014208D02*
X010337Y014208D01*
X010301Y014307D02*
X008289Y014307D01*
X003573Y012336D02*
X003520Y012336D01*
X003491Y010365D02*
X004097Y010365D01*
X004645Y010365D02*
X004871Y010365D01*
X004858Y010267D02*
X004871Y010267D01*
X004851Y008887D02*
X004871Y008887D01*
X004871Y008788D02*
X004628Y008788D01*
X004113Y008788D02*
X003484Y008788D01*
X004871Y008000D02*
X001736Y008000D01*
X001736Y007901D02*
X004871Y007901D01*
X004871Y007803D02*
X001736Y007803D01*
X001736Y007704D02*
X004871Y007704D01*
X004871Y007606D02*
X001736Y007606D01*
X001736Y007507D02*
X004871Y007507D01*
X004871Y007409D02*
X001736Y007409D01*
X001736Y007310D02*
X004871Y007310D01*
X004871Y007212D02*
X001736Y007212D01*
X001736Y007113D02*
X004871Y007113D01*
X004871Y007015D02*
X001736Y007015D01*
X001736Y006916D02*
X004871Y006916D01*
X004871Y006818D02*
X001736Y006818D01*
X001736Y006719D02*
X004871Y006719D01*
X004871Y006620D02*
X001736Y006620D01*
X001736Y006522D02*
X004871Y006522D01*
X004871Y006423D02*
X001736Y006423D01*
X001736Y006325D02*
X004871Y006325D01*
X004871Y006226D02*
X001736Y006226D01*
X001736Y006128D02*
X004871Y006128D01*
X004871Y006029D02*
X001736Y006029D01*
X001736Y005931D02*
X004871Y005931D01*
X004871Y005832D02*
X001736Y005832D01*
X001736Y005734D02*
X004871Y005734D01*
X004871Y005635D02*
X001736Y005635D01*
X001736Y005536D02*
X004871Y005536D01*
X004871Y005438D02*
X001736Y005438D01*
X001736Y005339D02*
X004871Y005339D01*
X004871Y005241D02*
X001736Y005241D01*
X001736Y005142D02*
X004873Y005142D01*
X004971Y005044D02*
X001736Y005044D01*
X001736Y004945D02*
X002060Y004945D01*
X001823Y004847D02*
X001736Y004847D01*
X002681Y004945D02*
X005070Y004945D01*
X005169Y004847D02*
X002919Y004847D01*
X003154Y004748D02*
X005267Y004748D01*
X005366Y004650D02*
X003253Y004650D01*
X003351Y004551D02*
X005464Y004551D01*
X005563Y004452D02*
X003450Y004452D01*
X003544Y004354D02*
X005661Y004354D01*
X009188Y010267D02*
X009383Y010267D01*
X009597Y010365D02*
X009090Y010365D01*
X008991Y010464D02*
X010301Y010464D01*
X010301Y010562D02*
X008893Y010562D01*
X008794Y010661D02*
X010301Y010661D01*
X010301Y010365D02*
X010145Y010365D01*
X009238Y010759D02*
X008696Y010759D01*
X008942Y011055D02*
X007501Y011055D01*
X007501Y011153D02*
X008844Y011153D01*
X009041Y010956D02*
X007501Y010956D01*
X007767Y010858D02*
X009139Y010858D01*
X010605Y017460D02*
X001736Y017460D01*
X001736Y017559D02*
X010704Y017559D01*
X010648Y017657D02*
X001736Y017657D01*
X001736Y017756D02*
X010561Y017756D01*
X010561Y017854D02*
X001736Y017854D01*
X001736Y017953D02*
X010561Y017953D01*
X010561Y018051D02*
X001736Y018051D01*
X001736Y018150D02*
X010561Y018150D01*
X010561Y018249D02*
X001736Y018249D01*
X001736Y018347D02*
X010561Y018347D01*
X010591Y018446D02*
X001736Y018446D01*
X001736Y018544D02*
X010661Y018544D01*
X010661Y018643D02*
X001736Y018643D01*
X001736Y018741D02*
X001997Y018741D01*
X001759Y018840D02*
X001736Y018840D01*
X002744Y018741D02*
X010661Y018741D01*
X010607Y018840D02*
X010276Y018840D01*
X009466Y018840D02*
X002982Y018840D01*
X003180Y018938D02*
X009367Y018938D01*
X009268Y019037D02*
X003279Y019037D01*
X003377Y019135D02*
X009170Y019135D01*
X009071Y019234D02*
X003476Y019234D01*
X003555Y019333D02*
X009061Y019333D01*
X009061Y019431D02*
X003595Y019431D01*
X003636Y019530D02*
X009061Y019530D01*
X009061Y019628D02*
X003677Y019628D01*
X003718Y019727D02*
X009061Y019727D01*
X009061Y019825D02*
X003751Y019825D01*
X003751Y019924D02*
X009069Y019924D01*
X009167Y020022D02*
X003751Y020022D01*
X003751Y020121D02*
X009266Y020121D01*
X009364Y020219D02*
X003751Y020219D01*
X003751Y020318D02*
X009463Y020318D01*
X010278Y020318D02*
X012463Y020318D01*
X012364Y020219D02*
X011235Y020219D01*
X011334Y020121D02*
X012266Y020121D01*
X012167Y020022D02*
X011433Y020022D01*
X011531Y019924D02*
X012069Y019924D01*
X012061Y019825D02*
X011630Y019825D01*
X011728Y019727D02*
X012061Y019727D01*
X012061Y019628D02*
X011827Y019628D01*
X011925Y019530D02*
X012061Y019530D01*
X012061Y019431D02*
X012024Y019431D01*
X013278Y020318D02*
X015463Y020318D01*
X016278Y020318D02*
X021946Y020318D01*
X021946Y020416D02*
X003725Y020416D01*
X003684Y020515D02*
X021946Y020515D01*
X021946Y020614D02*
X003643Y020614D01*
X003603Y020712D02*
X021946Y020712D01*
X021946Y020219D02*
X016377Y020219D01*
X016475Y020121D02*
X021946Y020121D01*
X021946Y020022D02*
X016574Y020022D01*
X016673Y019924D02*
X021946Y019924D01*
X021946Y019825D02*
X016681Y019825D01*
X016681Y019727D02*
X021946Y019727D01*
X021946Y019628D02*
X016681Y019628D01*
X016681Y019530D02*
X021946Y019530D01*
X021946Y019431D02*
X016681Y019431D01*
X016681Y019333D02*
X021946Y019333D01*
X021946Y019234D02*
X016670Y019234D01*
X016571Y019135D02*
X021946Y019135D01*
X021946Y019037D02*
X016473Y019037D01*
X016374Y018938D02*
X021946Y018938D01*
X021946Y018840D02*
X016276Y018840D01*
X015466Y018840D02*
X015134Y018840D01*
X015081Y018741D02*
X021946Y018741D01*
X022030Y018643D02*
X015081Y018643D01*
X015081Y018544D02*
X022129Y018544D01*
X022227Y018446D02*
X015151Y018446D01*
X013816Y019530D02*
X013681Y019530D01*
X013681Y019628D02*
X013915Y019628D01*
X014013Y019727D02*
X013681Y019727D01*
X013681Y019825D02*
X014112Y019825D01*
X014210Y019924D02*
X013673Y019924D01*
X013574Y020022D02*
X014309Y020022D01*
X014407Y020121D02*
X013475Y020121D01*
X013377Y020219D02*
X014506Y020219D01*
X013718Y019431D02*
X013681Y019431D01*
X023791Y015095D02*
X024980Y015095D01*
X024882Y014997D02*
X023860Y014997D01*
X023941Y014898D02*
X024801Y014898D01*
X024801Y014800D02*
X023941Y014800D01*
X023890Y015194D02*
X025079Y015194D01*
X025177Y015292D02*
X023941Y015292D01*
X023941Y015391D02*
X028528Y015391D01*
X028338Y015292D02*
X026564Y015292D01*
X026663Y015194D02*
X028240Y015194D01*
X028141Y015095D02*
X026761Y015095D01*
X026860Y014997D02*
X028091Y014997D01*
X028050Y014898D02*
X026941Y014898D01*
X026941Y014800D02*
X028009Y014800D01*
X027991Y014701D02*
X026941Y014701D01*
X026941Y014602D02*
X027991Y014602D01*
X027991Y014504D02*
X026941Y014504D01*
X026941Y014405D02*
X027991Y014405D01*
X027452Y014307D02*
X026941Y014307D01*
X024801Y014701D02*
X024754Y014701D01*
X029213Y015391D02*
X029528Y015391D01*
D31*
X030871Y013580D02*
X030879Y013572D01*
X032091Y013572D01*
X030871Y010580D02*
X030871Y006080D01*
X027871Y006080D02*
X027871Y004080D01*
X023871Y004080D01*
X022871Y005080D01*
X022871Y006580D01*
X021371Y006080D02*
X021371Y005080D01*
X022871Y005080D01*
X021371Y005080D02*
X017871Y005080D01*
X017871Y006080D01*
X017871Y005080D02*
X013371Y005080D01*
X013371Y004580D01*
X013371Y005080D02*
X011371Y005080D01*
X011371Y006580D01*
X011371Y005080D02*
X005996Y005080D01*
X005621Y005455D01*
X005621Y006080D01*
X006371Y006080D01*
X005621Y006080D02*
X005621Y011580D01*
X005621Y013330D01*
X005871Y013580D01*
X005871Y015580D01*
X005621Y011580D02*
X002871Y011580D01*
D32*
X004371Y012580D02*
X004371Y016080D01*
X004871Y016580D01*
X009621Y016580D01*
X010621Y015580D01*
X011371Y015580D01*
X012371Y015080D02*
X012371Y016580D01*
X011871Y017080D01*
X011371Y017080D01*
X011371Y018080D02*
X011371Y019080D01*
X010871Y019580D01*
X009871Y019580D01*
X012871Y019580D02*
X012871Y018080D01*
X012871Y017080D02*
X012871Y014080D01*
X012371Y013580D01*
X011371Y013580D01*
X011371Y012580D02*
X012871Y012580D01*
X013371Y013080D01*
X013371Y016580D01*
X013871Y017080D01*
X014371Y017080D01*
X014371Y018080D02*
X014371Y019080D01*
X014871Y019580D01*
X015871Y019580D01*
X012371Y015080D02*
X011871Y014580D01*
X011371Y014580D01*
X007871Y013580D02*
X007871Y012580D01*
X007121Y011830D01*
X007371Y010080D02*
X008371Y010080D01*
X009871Y008580D01*
X011371Y008580D01*
X011371Y007580D02*
X009871Y007580D01*
X008371Y009080D01*
X007371Y009080D01*
X007371Y008080D02*
X008371Y008080D01*
X009371Y007080D01*
X010746Y007080D01*
X011996Y007080D02*
X012871Y007080D01*
X013371Y006580D01*
X014371Y006580D01*
X014371Y007580D02*
X016371Y007580D01*
X016871Y008080D01*
X016871Y014080D01*
X016121Y013080D02*
X016121Y009080D01*
X015621Y008580D01*
X014371Y008580D01*
X011371Y009580D02*
X009871Y009580D01*
X009871Y011580D02*
X011371Y011580D01*
X004371Y009580D02*
X002871Y009580D01*
X007371Y006080D02*
X009871Y006080D01*
X018871Y006080D02*
X020371Y006080D01*
X020871Y007080D02*
X022246Y007080D01*
X022871Y007580D02*
X021371Y007580D01*
X019871Y009080D01*
X018871Y009080D01*
X018871Y008080D02*
X019871Y008080D01*
X020871Y007080D01*
X021371Y008580D02*
X019871Y010080D01*
X018871Y010080D01*
X020371Y010580D02*
X021371Y009580D01*
X022871Y009580D01*
X022871Y008580D02*
X021371Y008580D01*
X023496Y007080D02*
X023871Y007080D01*
X024371Y006580D01*
X025871Y006580D01*
X026371Y006580D01*
X026871Y006080D01*
X026871Y005080D01*
X025871Y007580D02*
X024871Y007580D01*
X024371Y008080D01*
X024371Y012580D01*
X023871Y013080D01*
X023496Y013080D01*
X022246Y013080D02*
X018871Y013080D01*
X018871Y014080D02*
X022246Y014080D01*
X023496Y014080D02*
X024371Y014080D01*
X024871Y013580D01*
X024871Y008830D01*
X025121Y008580D01*
X025871Y008580D01*
X025871Y009580D02*
X027921Y009580D01*
X027871Y009580D01*
X027871Y008080D01*
X029871Y008080D02*
X029871Y009580D01*
X029821Y009580D01*
X029821Y010130D01*
X029371Y010580D01*
X025871Y010580D01*
X025871Y011580D02*
X027871Y011580D01*
X028871Y011830D02*
X029121Y011580D01*
X029871Y011580D01*
X032621Y011580D01*
X032871Y011830D01*
X032871Y012588D01*
X032091Y012588D02*
X029879Y012588D01*
X029871Y012580D01*
X029871Y013580D01*
X029871Y014580D01*
X028871Y014580D02*
X028871Y011830D01*
X027871Y012580D02*
X025871Y012580D01*
X025871Y013580D02*
X027871Y013580D01*
D33*
X023496Y013080D02*
X022246Y013080D01*
X022246Y014080D02*
X023496Y014080D01*
X023496Y007080D02*
X022246Y007080D01*
X011996Y007080D02*
X010746Y007080D01*
D34*
X007371Y008080D02*
X006996Y008455D01*
X006996Y011705D02*
X007121Y011830D01*
D35*
X006996Y011705D02*
X006871Y011580D01*
X006871Y008580D01*
X006996Y008455D01*
D36*
X002371Y003580D03*
X002371Y020080D03*
X033871Y020080D03*
X033871Y003580D03*
M02*
