%
M48
M72
T01C0.0276
T02C0.0320
T03C0.0360
T04C0.0400
T05C0.0440
T06C0.0900
T07C0.1260
%
T01
X9871Y6080
X9871Y9580
X6871Y14580
X4371Y12580
X4371Y9580
X16871Y14080
X16121Y13080
X18871Y13080
X18871Y14080
X20371Y6080
X20371Y10580
X27871Y6080
X30871Y6080
X30871Y10580
X30871Y13580
X3371Y14580
T02
X15871Y20580
X15871Y19580
X14371Y18080
X14371Y17080
X12871Y17080
X12871Y18080
X11371Y18080
X11371Y17080
X11371Y15580
X11371Y14580
X11371Y13580
X11371Y12580
X11371Y11580
X11371Y10580
X11371Y9580
X11371Y8580
X11371Y7580
X11371Y6580
X11371Y5080
X13371Y4580
X13371Y3580
X11371Y3080
X2871Y9580
X2871Y11580
X2871Y12580
X5871Y13580
X7871Y13580
X9871Y19580
X9871Y20580
X12871Y20580
X12871Y19580
X14371Y15580
X14371Y14580
X14371Y13580
X14371Y12580
X14371Y11580
X14371Y10580
X14371Y9580
X14371Y8580
X14371Y7580
X14371Y6580
X22871Y10580
X22871Y9580
X22871Y8580
X22871Y7580
X22871Y6580
X21371Y6080
X22871Y5080
X21371Y4080
X25871Y6580
X25871Y7580
X25871Y8580
X25871Y9580
X25871Y10580
X25871Y11580
X25871Y12580
X25871Y13580
X25871Y14580
X25871Y15580
X22871Y15580
X22871Y14580
X22871Y13580
X22871Y12580
X22871Y11580
X27871Y12580
X27871Y11580
X29871Y11580
X29871Y12580
X29871Y13580
X27871Y13580
X29821Y9580
X27921Y9580
X27871Y8080
X27871Y7080
X26871Y5080
X27871Y4080
X28871Y4080
X29871Y7080
X29871Y8080
T03
X32091Y12588
X32871Y12588
X32871Y13572
X32091Y13572
X18871Y6080
X17871Y6080
X17871Y7080
X18871Y7080
X18871Y8080
X17871Y8080
X17871Y9080
X18871Y9080
X18871Y10080
X17871Y10080
X9871Y11580
X9871Y12580
X6371Y9080
X7371Y9080
X7371Y8080
X6371Y8080
X6371Y7080
X7371Y7080
X7371Y6080
X6371Y6080
X6371Y10080
X7371Y10080
T04
X5871Y17580
X5871Y15580
T05
X28871Y18580
X29871Y18580
X29871Y14580
X28871Y14580
T06
X33941Y10710
X33941Y15450
T07
X2371Y3580
X33871Y3580
X33871Y20080
X2371Y20080
M30
